<?xml version="1.0" encoding="UTF-8" standalone="no"?>
<svg
   style="fill-opacity:1; color-rendering:auto; color-interpolation:auto; text-rendering:auto; stroke:black; stroke-linecap:square; stroke-miterlimit:10; shape-rendering:auto; stroke-opacity:1; fill:black; stroke-dasharray:none; font-weight:normal; stroke-width:1; font-family:'Dialog'; font-style:normal; stroke-linejoin:miter; font-size:12px; stroke-dashoffset:0; image-rendering:auto;"
   width="217"
   height="217"
   version="1.1"
   id="svg83"
   sodipodi:docname="new_plot.svg"
   inkscape:version="1.4.2 (1:1.4.2+202505120738+ebf0e940d0)"
   xmlns:inkscape="http://www.inkscape.org/namespaces/inkscape"
   xmlns:sodipodi="http://sodipodi.sourceforge.net/DTD/sodipodi-0.dtd"
   xmlns="http://www.w3.org/2000/svg"
   xmlns:svg="http://www.w3.org/2000/svg">
  <sodipodi:namedview
     id="namedview83"
     pagecolor="#ffffff"
     bordercolor="#000000"
     borderopacity="0.25"
     inkscape:showpageshadow="2"
     inkscape:pageopacity="0.0"
     inkscape:pagecheckerboard="0"
     inkscape:deskcolor="#d1d1d1"
     inkscape:zoom="2.7958416"
     inkscape:cx="96.750833"
     inkscape:cy="73.680856"
     inkscape:window-width="1850"
     inkscape:window-height="1016"
     inkscape:window-x="70"
     inkscape:window-y="27"
     inkscape:window-maximized="1"
     inkscape:current-layer="g83" />
  <!--Generated by the Batik Graphics2D SVG Generator-->
  <defs
     id="genericDefs" />
  <g
     id="g83">
    <defs
       id="defs1">
      <clipPath
         clipPathUnits="userSpaceOnUse"
         id="clipPath1">
        <path
           d="M0 0 L217 0 L217 217 L0 217 L0 0 Z"
           id="path1" />
      </clipPath>
    </defs>
    <g
       style="fill:white; stroke:white;"
       id="g1">
      <rect
         x="0"
         y="0"
         width="217"
         style="clip-path:url(#clipPath1); stroke:none;"
         height="217"
         clip-path="url(#clipPath1)"
         id="rect1" />
    </g>
    <g
       style="fill:white; text-rendering:optimizeSpeed; color-rendering:optimizeSpeed; image-rendering:optimizeSpeed; shape-rendering:crispEdges; stroke:white; color-interpolation:sRGB;"
       id="g2">
      <rect
         x="0"
         width="217"
         height="217"
         y="0"
         style="stroke:none;"
         id="rect2" />
      <path
         style="stroke:none;"
         d="M54 166 L196 166 L196 24 L54 24 Z"
         id="path2" />
    </g>
    <g
       style="fill-opacity:0.149; color-rendering:optimizeQuality; color-interpolation:linearRGB; text-rendering:geometricPrecision; stroke:rgb(38,38,38); stroke-linecap:butt; stroke-miterlimit:1; stroke-opacity:0.149; fill:rgb(38,38,38); stroke-dasharray:1,3; stroke-width:0.9583; stroke-linejoin:bevel; image-rendering:optimizeQuality;"
       id="g6">
      <line
         y2="24"
         style="fill:none;"
         x1="54"
         x2="54"
         y1="166"
         id="line2" />
      <line
         y2="24"
         style="fill:none;"
         x1="159.2253"
         x2="159.2253"
         y1="166"
         id="line3" />
      <line
         y2="166"
         style="fill:none;"
         x1="196"
         x2="54"
         y1="166"
         id="line4" />
      <line
         y2="95"
         style="fill:none;"
         x1="196"
         x2="54"
         y1="95"
         id="line5" />
      <line
         y2="24"
         style="fill:none;"
         x1="196"
         x2="54"
         y1="24"
         id="line6" />
    </g>
    <g
       style="fill:rgb(38,38,38); text-rendering:geometricPrecision; image-rendering:optimizeQuality; color-rendering:optimizeQuality; stroke-linejoin:round; stroke:rgb(38,38,38); color-interpolation:linearRGB; stroke-width:0.9583;"
       id="g32">
      <line
         y2="166"
         style="fill:none;"
         x1="54"
         x2="196"
         y1="166"
         id="line7" />
      <line
         y2="164.58"
         style="fill:none;"
         x1="54"
         x2="54"
         y1="166"
         id="line8" />
      <line
         y2="164.58"
         style="fill:none;"
         x1="159.2253"
         x2="159.2253"
         y1="166"
         id="line9" />
      <line
         y2="165.29"
         style="fill:none;"
         x1="54"
         x2="54"
         y1="166"
         id="line10" />
      <line
         y2="165.29"
         style="fill:none;"
         x1="69.838"
         x2="69.838"
         y1="166"
         id="line11" />
      <line
         y2="165.29"
         style="fill:none;"
         x1="79.1026"
         x2="79.1026"
         y1="166"
         id="line12" />
      <line
         y2="165.29"
         style="fill:none;"
         x1="85.676"
         x2="85.676"
         y1="166"
         id="line13" />
      <line
         y2="165.29"
         style="fill:none;"
         x1="90.7747"
         x2="90.7747"
         y1="166"
         id="line14" />
      <line
         y2="165.29"
         style="fill:none;"
         x1="94.9406"
         x2="94.9406"
         y1="166"
         id="line15" />
      <line
         y2="165.29"
         style="fill:none;"
         x1="98.4629"
         x2="98.4629"
         y1="166"
         id="line16" />
      <line
         y2="165.29"
         style="fill:none;"
         x1="101.514"
         x2="101.514"
         y1="166"
         id="line17" />
      <line
         y2="165.29"
         style="fill:none;"
         x1="104.2052"
         x2="104.2052"
         y1="166"
         id="line18" />
      <line
         y2="165.29"
         style="fill:none;"
         x1="106.6127"
         x2="106.6127"
         y1="166"
         id="line19" />
      <line
         y2="165.29"
         style="fill:none;"
         x1="122.4507"
         x2="122.4507"
         y1="166"
         id="line20" />
      <line
         y2="165.29"
         style="fill:none;"
         x1="131.7153"
         x2="131.7153"
         y1="166"
         id="line21" />
      <line
         y2="165.29"
         style="fill:none;"
         x1="138.2886"
         x2="138.2886"
         y1="166"
         id="line22" />
      <line
         y2="165.29"
         style="fill:none;"
         x1="143.3873"
         x2="143.3873"
         y1="166"
         id="line23" />
      <line
         y2="165.29"
         style="fill:none;"
         x1="147.5533"
         x2="147.5533"
         y1="166"
         id="line24" />
      <line
         y2="165.29"
         style="fill:none;"
         x1="151.0755"
         x2="151.0755"
         y1="166"
         id="line25" />
      <line
         y2="165.29"
         style="fill:none;"
         x1="154.1266"
         x2="154.1266"
         y1="166"
         id="line26" />
      <line
         y2="165.29"
         style="fill:none;"
         x1="156.8179"
         x2="156.8179"
         y1="166"
         id="line27" />
      <line
         y2="165.29"
         style="fill:none;"
         x1="159.2253"
         x2="159.2253"
         y1="166"
         id="line28" />
      <line
         y2="165.29"
         style="fill:none;"
         x1="175.0633"
         x2="175.0633"
         y1="166"
         id="line29" />
      <line
         y2="165.29"
         style="fill:none;"
         x1="184.3279"
         x2="184.3279"
         y1="166"
         id="line30" />
      <line
         y2="165.29"
         style="fill:none;"
         x1="190.9013"
         x2="190.9013"
         y1="166"
         id="line31" />
      <line
         y2="165.29"
         style="fill:none;"
         x1="196"
         x2="196"
         y1="166"
         id="line32" />
    </g>
    <g
       transform="translate(41,189)"
       style="font-size:14.0556px; fill:rgb(38,38,38); text-rendering:geometricPrecision; image-rendering:optimizeQuality; color-rendering:optimizeQuality; font-family:'SansSerif'; stroke:rgb(38,38,38); color-interpolation:linearRGB;"
       id="g33">
      <path
         style="stroke:none;"
         d="M1.7344 -1.1562 L4 -1.1562 L4 -8.9531 L1.5312 -8.4531 L1.5312 -9.7188 L3.9844 -10.2031 L5.3594 -10.2031 L5.3594 -1.1562 L7.6094 -1.1562 L7.6094 0 L1.7344 0 L1.7344 -1.1562 ZM13.3802 -9.2969 Q12.3177 -9.2969 11.7787 -8.25 Q11.2396 -7.2031 11.2396 -5.0938 Q11.2396 -3 11.7787 -1.9453 Q12.3177 -0.8906 13.3802 -0.8906 Q14.4584 -0.8906 14.9896 -1.9453 Q15.5209 -3 15.5209 -5.0938 Q15.5209 -7.2031 14.9896 -8.25 Q14.4584 -9.2969 13.3802 -9.2969 ZM13.3802 -10.3906 Q15.099 -10.3906 16.0052 -9.0312 Q16.9115 -7.6719 16.9115 -5.0938 Q16.9115 -2.5156 16.0052 -1.1562 Q15.099 0.2031 13.3802 0.2031 Q11.6615 0.2031 10.7552 -1.1562 Q9.849 -2.5156 9.849 -5.0938 Q9.849 -7.6719 10.7552 -9.0312 Q11.6615 -10.3906 13.3802 -10.3906 Z"
         id="path32" />
    </g>
    <g
       transform="translate(59,182)"
       style="font-size:11.2444px; fill:rgb(38,38,38); text-rendering:geometricPrecision; image-rendering:optimizeQuality; color-rendering:optimizeQuality; font-family:'SansSerif'; stroke:rgb(38,38,38); color-interpolation:linearRGB;"
       id="g34">
      <path
         style="stroke:none;"
         d="M3.5 -7.3125 Q2.6562 -7.3125 2.2344 -6.4844 Q1.8125 -5.6562 1.8125 -4 Q1.8125 -2.3594 2.2344 -1.5312 Q2.6562 -0.7031 3.5 -0.7031 Q4.3438 -0.7031 4.7656 -1.5312 Q5.1875 -2.3594 5.1875 -4 Q5.1875 -5.6562 4.7656 -6.4844 Q4.3438 -7.3125 3.5 -7.3125 ZM3.5 -8.1719 Q4.8438 -8.1719 5.5547 -7.1016 Q6.2656 -6.0312 6.2656 -4 Q6.2656 -1.9844 5.5547 -0.9141 Q4.8438 0.1562 3.5 0.1562 Q2.1562 0.1562 1.4375 -0.9141 Q0.7188 -1.9844 0.7188 -4 Q0.7188 -6.0312 1.4375 -7.1016 Q2.1562 -8.1719 3.5 -8.1719 Z"
         id="path33" />
    </g>
    <g
       transform="translate(146,189)"
       style="font-size:14.0556px; fill:rgb(38,38,38); text-rendering:geometricPrecision; image-rendering:optimizeQuality; color-rendering:optimizeQuality; font-family:'SansSerif'; stroke:rgb(38,38,38); color-interpolation:linearRGB;"
       id="g35">
      <path
         style="stroke:none;"
         d="M1.7344 -1.1562 L4 -1.1562 L4 -8.9531 L1.5312 -8.4531 L1.5312 -9.7188 L3.9844 -10.2031 L5.3594 -10.2031 L5.3594 -1.1562 L7.6094 -1.1562 L7.6094 0 L1.7344 0 L1.7344 -1.1562 ZM13.3802 -9.2969 Q12.3177 -9.2969 11.7787 -8.25 Q11.2396 -7.2031 11.2396 -5.0938 Q11.2396 -3 11.7787 -1.9453 Q12.3177 -0.8906 13.3802 -0.8906 Q14.4584 -0.8906 14.9896 -1.9453 Q15.5209 -3 15.5209 -5.0938 Q15.5209 -7.2031 14.9896 -8.25 Q14.4584 -9.2969 13.3802 -9.2969 ZM13.3802 -10.3906 Q15.099 -10.3906 16.0052 -9.0312 Q16.9115 -7.6719 16.9115 -5.0938 Q16.9115 -2.5156 16.0052 -1.1562 Q15.099 0.2031 13.3802 0.2031 Q11.6615 0.2031 10.7552 -1.1562 Q9.849 -2.5156 9.849 -5.0938 Q9.849 -7.6719 10.7552 -9.0312 Q11.6615 -10.3906 13.3802 -10.3906 Z"
         id="path34" />
    </g>
    <g
       transform="translate(164,182)"
       style="font-size:11.2444px; fill:rgb(38,38,38); text-rendering:geometricPrecision; image-rendering:optimizeQuality; color-rendering:optimizeQuality; font-family:'SansSerif'; stroke:rgb(38,38,38); color-interpolation:linearRGB;"
       id="g36">
      <path
         style="stroke:none;"
         d="M2.1094 -0.9062 L5.8906 -0.9062 L5.8906 0 L0.8125 0 L0.8125 -0.9062 Q1.4219 -1.5469 2.4922 -2.625 Q3.5625 -3.7031 3.8281 -4.0156 Q4.3438 -4.6094 4.5547 -5.0156 Q4.7656 -5.4219 4.7656 -5.8125 Q4.7656 -6.4531 4.3203 -6.8516 Q3.875 -7.25 3.1406 -7.25 Q2.6406 -7.25 2.0703 -7.0703 Q1.5 -6.8906 0.8594 -6.5312 L0.8594 -7.625 Q1.5156 -7.8906 2.0859 -8.0312 Q2.6562 -8.1719 3.125 -8.1719 Q4.375 -8.1719 5.1172 -7.5469 Q5.8594 -6.9219 5.8594 -5.875 Q5.8594 -5.375 5.6719 -4.9375 Q5.4844 -4.5 5 -3.8906 Q4.8594 -3.7344 4.1406 -2.9922 Q3.4219 -2.25 2.1094 -0.9062 Z"
         id="path35" />
    </g>
    <g
       transform="translate(125.0001,194.6444)"
       style="font-size:15.4611px; fill:rgb(38,38,38); text-rendering:geometricPrecision; image-rendering:optimizeQuality; color-rendering:optimizeQuality; font-family:'SansSerif'; stroke:rgb(38,38,38); color-interpolation:linearRGB;"
       id="g37">
      <path
         style="stroke:none;"
         d="M-20.5312 4.0625 L-19.0469 4.0625 L-19.0469 15 L-20.5312 15 L-20.5312 4.0625 ZM-14.6971 4.4688 L-14.6971 6.7969 L-11.9315 6.7969 L-11.9315 7.8438 L-14.6971 7.8438 L-14.6971 12.2969 Q-14.6971 13.2969 -14.4237 13.5859 Q-14.1503 13.875 -13.3065 13.875 L-11.9315 13.875 L-11.9315 15 L-13.3065 15 Q-14.869 15 -15.4628 14.4141 Q-16.0565 13.8281 -16.0565 12.2969 L-16.0565 7.8438 L-17.0409 7.8438 L-17.0409 6.7969 L-16.0565 6.7969 L-16.0565 4.4688 L-14.6971 4.4688 ZM-2.9568 10.5625 L-2.9568 11.2188 L-9.1599 11.2188 Q-9.0661 12.6094 -8.3161 13.3359 Q-7.5661 14.0625 -6.238 14.0625 Q-5.4568 14.0625 -4.7302 13.875 Q-4.0036 13.6875 -3.2849 13.3125 L-3.2849 14.5781 Q-4.0036 14.8906 -4.7693 15.0547 Q-5.5349 15.2188 -6.3161 15.2188 Q-8.2693 15.2188 -9.4177 14.0703 Q-10.5661 12.9219 -10.5661 10.9844 Q-10.5661 8.9688 -9.4802 7.7812 Q-8.3943 6.5938 -6.5505 6.5938 Q-4.8943 6.5938 -3.9255 7.6641 Q-2.9568 8.7344 -2.9568 10.5625 ZM-4.3161 10.1719 Q-4.3318 9.0625 -4.9333 8.3984 Q-5.5349 7.7344 -6.5349 7.7344 Q-7.6599 7.7344 -8.3396 8.375 Q-9.0193 9.0156 -9.113 10.1719 L-4.3161 10.1719 ZM5.9003 8.375 Q6.4159 7.4688 7.119 7.0312 Q7.8222 6.5938 8.7753 6.5938 Q10.0565 6.5938 10.7519 7.4922 Q11.4472 8.3906 11.4472 10.0469 L11.4472 15 L10.0878 15 L10.0878 10.0938 Q10.0878 8.9062 9.6659 8.3359 Q9.244 7.7656 8.4003 7.7656 Q7.3534 7.7656 6.744 8.4609 Q6.1347 9.1562 6.1347 10.3594 L6.1347 15 L4.7753 15 L4.7753 10.0938 Q4.7753 8.9062 4.3612 8.3359 Q3.9472 7.7656 3.0722 7.7656 Q2.0409 7.7656 1.4315 8.4688 Q0.8222 9.1719 0.8222 10.3594 L0.8222 15 L-0.5372 15 L-0.5372 6.7969 L0.8222 6.7969 L0.8222 8.0781 Q1.2753 7.3125 1.9237 6.9531 Q2.5722 6.5938 3.4628 6.5938 Q4.3534 6.5938 4.9784 7.0469 Q5.6034 7.5 5.9003 8.375 ZM19.782 7.0312 L19.782 8.3125 Q19.2195 8.0156 18.6024 7.875 Q17.9852 7.7344 17.3289 7.7344 Q16.3133 7.7344 15.8133 8.0391 Q15.3133 8.3438 15.3133 8.9531 Q15.3133 9.4219 15.6727 9.6875 Q16.032 9.9531 17.1258 10.2031 L17.5789 10.3125 Q19.0164 10.6094 19.618 11.1719 Q20.2195 11.7344 20.2195 12.7344 Q20.2195 13.875 19.3211 14.5469 Q18.4227 15.2188 16.8289 15.2188 Q16.1727 15.2188 15.4617 15.0859 Q14.7508 14.9531 13.9539 14.7031 L13.9539 13.3125 Q14.7039 13.7031 15.4305 13.8906 Q16.157 14.0781 16.8602 14.0781 Q17.8133 14.0781 18.3289 13.7578 Q18.8445 13.4375 18.8445 12.8438 Q18.8445 12.2969 18.4695 12 Q18.0945 11.7031 16.8445 11.4375 L16.3758 11.3281 Q15.1258 11.0625 14.5711 10.5156 Q14.0164 9.9688 14.0164 9.0156 Q14.0164 7.8594 14.8367 7.2266 Q15.657 6.5938 17.157 6.5938 Q17.907 6.5938 18.5711 6.7031 Q19.2352 6.8125 19.782 7.0312 Z"
         id="path36" />
    </g>
    <g
       style="fill:rgb(38,38,38); text-rendering:geometricPrecision; image-rendering:optimizeQuality; color-rendering:optimizeQuality; stroke-linejoin:round; stroke:rgb(38,38,38); color-interpolation:linearRGB; stroke-width:0.9583;"
       id="g59">
      <line
         y2="24"
         style="fill:none;"
         x1="54"
         x2="54"
         y1="166"
         id="line37" />
      <line
         y2="166"
         style="fill:none;"
         x1="54"
         x2="55.42"
         y1="166"
         id="line38" />
      <line
         y2="95"
         style="fill:none;"
         x1="54"
         x2="55.42"
         y1="95"
         id="line39" />
      <line
         y2="24"
         style="fill:none;"
         x1="54"
         x2="55.42"
         y1="24"
         id="line40" />
      <line
         y2="166"
         style="fill:none;"
         x1="54"
         x2="54.71"
         y1="166"
         id="line41" />
      <line
         y2="144.6269"
         style="fill:none;"
         x1="54"
         x2="54.71"
         y1="144.6269"
         id="line42" />
      <line
         y2="132.1244"
         style="fill:none;"
         x1="54"
         x2="54.71"
         y1="132.1244"
         id="line43" />
      <line
         y2="123.2537"
         style="fill:none;"
         x1="54"
         x2="54.71"
         y1="123.2537"
         id="line44" />
      <line
         y2="116.3731"
         style="fill:none;"
         x1="54"
         x2="54.71"
         y1="116.3731"
         id="line45" />
      <line
         y2="110.7513"
         style="fill:none;"
         x1="54"
         x2="54.71"
         y1="110.7513"
         id="line46" />
      <line
         y2="105.998"
         style="fill:none;"
         x1="54"
         x2="54.71"
         y1="105.998"
         id="line47" />
      <line
         y2="101.8806"
         style="fill:none;"
         x1="54"
         x2="54.71"
         y1="101.8806"
         id="line48" />
      <line
         y2="98.2488"
         style="fill:none;"
         x1="54"
         x2="54.71"
         y1="98.2488"
         id="line49" />
      <line
         y2="95"
         style="fill:none;"
         x1="54"
         x2="54.71"
         y1="95"
         id="line50" />
      <line
         y2="73.6269"
         style="fill:none;"
         x1="54"
         x2="54.71"
         y1="73.6269"
         id="line51" />
      <line
         y2="61.1244"
         style="fill:none;"
         x1="54"
         x2="54.71"
         y1="61.1244"
         id="line52" />
      <line
         y2="52.2537"
         style="fill:none;"
         x1="54"
         x2="54.71"
         y1="52.2537"
         id="line53" />
      <line
         y2="45.3731"
         style="fill:none;"
         x1="54"
         x2="54.71"
         y1="45.3731"
         id="line54" />
      <line
         y2="39.7513"
         style="fill:none;"
         x1="54"
         x2="54.71"
         y1="39.7513"
         id="line55" />
      <line
         y2="34.998"
         style="fill:none;"
         x1="54"
         x2="54.71"
         y1="34.998"
         id="line56" />
      <line
         y2="30.8806"
         style="fill:none;"
         x1="54"
         x2="54.71"
         y1="30.8806"
         id="line57" />
      <line
         y2="27.2488"
         style="fill:none;"
         x1="54"
         x2="54.71"
         y1="27.2488"
         id="line58" />
      <line
         y2="24"
         style="fill:none;"
         x1="54"
         x2="54.71"
         y1="24"
         id="line59" />
    </g>
    <g
       transform="translate(23,173)"
       style="font-size:14.0556px; fill:rgb(38,38,38); text-rendering:geometricPrecision; image-rendering:optimizeQuality; color-rendering:optimizeQuality; font-family:'SansSerif'; stroke:rgb(38,38,38); color-interpolation:linearRGB;"
       id="g60">
      <path
         style="stroke:none;"
         d="M1.7344 -1.1562 L4 -1.1562 L4 -8.9531 L1.5312 -8.4531 L1.5312 -9.7188 L3.9844 -10.2031 L5.3594 -10.2031 L5.3594 -1.1562 L7.6094 -1.1562 L7.6094 0 L1.7344 0 L1.7344 -1.1562 ZM13.3802 -9.2969 Q12.3177 -9.2969 11.7787 -8.25 Q11.2396 -7.2031 11.2396 -5.0938 Q11.2396 -3 11.7787 -1.9453 Q12.3177 -0.8906 13.3802 -0.8906 Q14.4584 -0.8906 14.9896 -1.9453 Q15.5209 -3 15.5209 -5.0938 Q15.5209 -7.2031 14.9896 -8.25 Q14.4584 -9.2969 13.3802 -9.2969 ZM13.3802 -10.3906 Q15.099 -10.3906 16.0052 -9.0312 Q16.9115 -7.6719 16.9115 -5.0938 Q16.9115 -2.5156 16.0052 -1.1562 Q15.099 0.2031 13.3802 0.2031 Q11.6615 0.2031 10.7552 -1.1562 Q9.849 -2.5156 9.849 -5.0938 Q9.849 -7.6719 10.7552 -9.0312 Q11.6615 -10.3906 13.3802 -10.3906 Z"
         id="path59" />
    </g>
    <g
       transform="translate(41,166)"
       style="font-size:11.2444px; fill:rgb(38,38,38); text-rendering:geometricPrecision; image-rendering:optimizeQuality; color-rendering:optimizeQuality; font-family:'SansSerif'; stroke:rgb(38,38,38); color-interpolation:linearRGB;"
       id="g61">
      <path
         style="stroke:none;"
         d="M3.5 -7.3125 Q2.6562 -7.3125 2.2344 -6.4844 Q1.8125 -5.6562 1.8125 -4 Q1.8125 -2.3594 2.2344 -1.5312 Q2.6562 -0.7031 3.5 -0.7031 Q4.3438 -0.7031 4.7656 -1.5312 Q5.1875 -2.3594 5.1875 -4 Q5.1875 -5.6562 4.7656 -6.4844 Q4.3438 -7.3125 3.5 -7.3125 ZM3.5 -8.1719 Q4.8438 -8.1719 5.5547 -7.1016 Q6.2656 -6.0312 6.2656 -4 Q6.2656 -1.9844 5.5547 -0.9141 Q4.8438 0.1562 3.5 0.1562 Q2.1562 0.1562 1.4375 -0.9141 Q0.7188 -1.9844 0.7188 -4 Q0.7188 -6.0312 1.4375 -7.1016 Q2.1562 -8.1719 3.5 -8.1719 Z"
         id="path60" />
    </g>
    <g
       transform="translate(23,102)"
       style="font-size:14.0556px; fill:rgb(38,38,38); text-rendering:geometricPrecision; image-rendering:optimizeQuality; color-rendering:optimizeQuality; font-family:'SansSerif'; stroke:rgb(38,38,38); color-interpolation:linearRGB;"
       id="g62">
      <path
         style="stroke:none;"
         d="M1.7344 -1.1562 L4 -1.1562 L4 -8.9531 L1.5312 -8.4531 L1.5312 -9.7188 L3.9844 -10.2031 L5.3594 -10.2031 L5.3594 -1.1562 L7.6094 -1.1562 L7.6094 0 L1.7344 0 L1.7344 -1.1562 ZM13.3802 -9.2969 Q12.3177 -9.2969 11.7787 -8.25 Q11.2396 -7.2031 11.2396 -5.0938 Q11.2396 -3 11.7787 -1.9453 Q12.3177 -0.8906 13.3802 -0.8906 Q14.4584 -0.8906 14.9896 -1.9453 Q15.5209 -3 15.5209 -5.0938 Q15.5209 -7.2031 14.9896 -8.25 Q14.4584 -9.2969 13.3802 -9.2969 ZM13.3802 -10.3906 Q15.099 -10.3906 16.0052 -9.0312 Q16.9115 -7.6719 16.9115 -5.0938 Q16.9115 -2.5156 16.0052 -1.1562 Q15.099 0.2031 13.3802 0.2031 Q11.6615 0.2031 10.7552 -1.1562 Q9.849 -2.5156 9.849 -5.0938 Q9.849 -7.6719 10.7552 -9.0312 Q11.6615 -10.3906 13.3802 -10.3906 Z"
         id="path61" />
    </g>
    <g
       transform="translate(41,95)"
       style="font-size:11.2444px; fill:rgb(38,38,38); text-rendering:geometricPrecision; image-rendering:optimizeQuality; color-rendering:optimizeQuality; font-family:'SansSerif'; stroke:rgb(38,38,38); color-interpolation:linearRGB;"
       id="g63">
      <path
         style="stroke:none;"
         d="M1.3594 -0.9062 L3.1406 -0.9062 L3.1406 -7.0312 L1.2031 -6.6406 L1.2031 -7.625 L3.125 -8.0156 L4.2188 -8.0156 L4.2188 -0.9062 L5.9844 -0.9062 L5.9844 0 L1.3594 0 L1.3594 -0.9062 Z"
         id="path62" />
    </g>
    <g
       transform="translate(23,31)"
       style="font-size:14.0556px; fill:rgb(38,38,38); text-rendering:geometricPrecision; image-rendering:optimizeQuality; color-rendering:optimizeQuality; font-family:'SansSerif'; stroke:rgb(38,38,38); color-interpolation:linearRGB;"
       id="g64">
      <path
         style="stroke:none;"
         d="M1.7344 -1.1562 L4 -1.1562 L4 -8.9531 L1.5312 -8.4531 L1.5312 -9.7188 L3.9844 -10.2031 L5.3594 -10.2031 L5.3594 -1.1562 L7.6094 -1.1562 L7.6094 0 L1.7344 0 L1.7344 -1.1562 ZM13.3802 -9.2969 Q12.3177 -9.2969 11.7787 -8.25 Q11.2396 -7.2031 11.2396 -5.0938 Q11.2396 -3 11.7787 -1.9453 Q12.3177 -0.8906 13.3802 -0.8906 Q14.4584 -0.8906 14.9896 -1.9453 Q15.5209 -3 15.5209 -5.0938 Q15.5209 -7.2031 14.9896 -8.25 Q14.4584 -9.2969 13.3802 -9.2969 ZM13.3802 -10.3906 Q15.099 -10.3906 16.0052 -9.0312 Q16.9115 -7.6719 16.9115 -5.0938 Q16.9115 -2.5156 16.0052 -1.1562 Q15.099 0.2031 13.3802 0.2031 Q11.6615 0.2031 10.7552 -1.1562 Q9.849 -2.5156 9.849 -5.0938 Q9.849 -7.6719 10.7552 -9.0312 Q11.6615 -10.3906 13.3802 -10.3906 Z"
         id="path63" />
    </g>
    <g
       transform="translate(41,24)"
       style="font-size:11.2444px; fill:rgb(38,38,38); text-rendering:geometricPrecision; image-rendering:optimizeQuality; color-rendering:optimizeQuality; font-family:'SansSerif'; stroke:rgb(38,38,38); color-interpolation:linearRGB;"
       id="g65">
      <path
         style="stroke:none;"
         d="M2.1094 -0.9062 L5.8906 -0.9062 L5.8906 0 L0.8125 0 L0.8125 -0.9062 Q1.4219 -1.5469 2.4922 -2.625 Q3.5625 -3.7031 3.8281 -4.0156 Q4.3438 -4.6094 4.5547 -5.0156 Q4.7656 -5.4219 4.7656 -5.8125 Q4.7656 -6.4531 4.3203 -6.8516 Q3.875 -7.25 3.1406 -7.25 Q2.6406 -7.25 2.0703 -7.0703 Q1.5 -6.8906 0.8594 -6.5312 L0.8594 -7.625 Q1.5156 -7.8906 2.0859 -8.0312 Q2.6562 -8.1719 3.125 -8.1719 Q4.375 -8.1719 5.1172 -7.5469 Q5.8594 -6.9219 5.8594 -5.875 Q5.8594 -5.375 5.6719 -4.9375 Q5.4844 -4.5 5 -3.8906 Q4.8594 -3.7344 4.1406 -2.9922 Q3.4219 -2.25 2.1094 -0.9062 Z"
         id="path64" />
    </g>
    <g
       transform="translate(18.8,94.9999) rotate(-90)"
       style="font-size:15.4611px; fill:rgb(38,38,38); text-rendering:geometricPrecision; image-rendering:optimizeQuality; color-rendering:optimizeQuality; font-family:'SansSerif'; stroke:rgb(38,38,38); color-interpolation:linearRGB;"
       id="g66">
      <path
         style="stroke:none;"
         d="M-58.0312 -14.9375 L-51.1094 -14.9375 L-51.1094 -13.6875 L-56.5469 -13.6875 L-56.5469 -10.4531 L-51.3438 -10.4531 L-51.3438 -9.2031 L-56.5469 -9.2031 L-56.5469 -5.25 L-50.9844 -5.25 L-50.9844 -4 L-58.0312 -4 L-58.0312 -14.9375 ZM-47.0273 -5.2344 L-47.0273 -0.875 L-48.3867 -0.875 L-48.3867 -12.2031 L-47.0273 -12.2031 L-47.0273 -10.9531 Q-46.6054 -11.6875 -45.957 -12.0469 Q-45.3085 -12.4062 -44.4023 -12.4062 Q-42.9179 -12.4062 -41.9804 -11.2188 Q-41.0429 -10.0312 -41.0429 -8.0938 Q-41.0429 -6.1562 -41.9804 -4.9688 Q-42.9179 -3.7812 -44.4023 -3.7812 Q-45.3085 -3.7812 -45.957 -4.1406 Q-46.6054 -4.5 -47.0273 -5.2344 ZM-42.4492 -8.0938 Q-42.4492 -9.5781 -43.0585 -10.4219 Q-43.6679 -11.2656 -44.7304 -11.2656 Q-45.8085 -11.2656 -46.4179 -10.4219 Q-47.0273 -9.5781 -47.0273 -8.0938 Q-47.0273 -6.6094 -46.4179 -5.7656 Q-45.8085 -4.9219 -44.7304 -4.9219 Q-43.6679 -4.9219 -43.0585 -5.7656 Q-42.4492 -6.6094 -42.4492 -8.0938 ZM-38.5406 -12.2031 L-37.1812 -12.2031 L-37.1812 -4 L-38.5406 -4 L-38.5406 -12.2031 ZM-38.5406 -15.3906 L-37.1812 -15.3906 L-37.1812 -13.6875 L-38.5406 -13.6875 L-38.5406 -15.3906 ZM-29.0172 -11.9688 L-29.0172 -10.6875 Q-29.5797 -10.9844 -30.1969 -11.125 Q-30.8141 -11.2656 -31.4703 -11.2656 Q-32.4859 -11.2656 -32.9859 -10.9609 Q-33.4859 -10.6562 -33.4859 -10.0469 Q-33.4859 -9.5781 -33.1266 -9.3125 Q-32.7672 -9.0469 -31.6734 -8.7969 L-31.2203 -8.6875 Q-29.7828 -8.3906 -29.1812 -7.8281 Q-28.5797 -7.2656 -28.5797 -6.2656 Q-28.5797 -5.125 -29.4781 -4.4531 Q-30.3766 -3.7812 -31.9703 -3.7812 Q-32.6266 -3.7812 -33.3375 -3.9141 Q-34.0484 -4.0469 -34.8453 -4.2969 L-34.8453 -5.6875 Q-34.0953 -5.2969 -33.3687 -5.1094 Q-32.6422 -4.9219 -31.9391 -4.9219 Q-30.9859 -4.9219 -30.4703 -5.2422 Q-29.9547 -5.5625 -29.9547 -6.1562 Q-29.9547 -6.7031 -30.3297 -7 Q-30.7047 -7.2969 -31.9547 -7.5625 L-32.4234 -7.6719 Q-33.6734 -7.9375 -34.2281 -8.4844 Q-34.7828 -9.0312 -34.7828 -9.9844 Q-34.7828 -11.1406 -33.9625 -11.7734 Q-33.1422 -12.4062 -31.6422 -12.4062 Q-30.8922 -12.4062 -30.2281 -12.2969 Q-29.5641 -12.1875 -29.0172 -11.9688 ZM-23.0212 -11.2656 Q-24.0993 -11.2656 -24.7321 -10.4141 Q-25.3649 -9.5625 -25.3649 -8.0938 Q-25.3649 -6.625 -24.7399 -5.7812 Q-24.1149 -4.9375 -23.0212 -4.9375 Q-21.9431 -4.9375 -21.3181 -5.7812 Q-20.6931 -6.625 -20.6931 -8.0938 Q-20.6931 -9.5469 -21.3181 -10.4062 Q-21.9431 -11.2656 -23.0212 -11.2656 ZM-23.0212 -12.4062 Q-21.2712 -12.4062 -20.2634 -11.2578 Q-19.2556 -10.1094 -19.2556 -8.0938 Q-19.2556 -6.0781 -20.2634 -4.9297 Q-21.2712 -3.7812 -23.0212 -3.7812 Q-24.7868 -3.7812 -25.7868 -4.9297 Q-26.7868 -6.0781 -26.7868 -8.0938 Q-26.7868 -10.1094 -25.7868 -11.2578 Q-24.7868 -12.4062 -23.0212 -12.4062 ZM-11.3575 -10.9531 L-11.3575 -15.3906 L-10.0138 -15.3906 L-10.0138 -4 L-11.3575 -4 L-11.3575 -5.2344 Q-11.7794 -4.5 -12.4278 -4.1406 Q-13.0763 -3.7812 -13.9825 -3.7812 Q-15.4669 -3.7812 -16.4044 -4.9688 Q-17.3419 -6.1562 -17.3419 -8.0938 Q-17.3419 -10.0312 -16.4044 -11.2188 Q-15.4669 -12.4062 -13.9825 -12.4062 Q-13.0763 -12.4062 -12.4278 -12.0469 Q-11.7794 -11.6875 -11.3575 -10.9531 ZM-15.9513 -8.0938 Q-15.9513 -6.6094 -15.3419 -5.7656 Q-14.7325 -4.9219 -13.6544 -4.9219 Q-12.5919 -4.9219 -11.9747 -5.7656 Q-11.3575 -6.6094 -11.3575 -8.0938 Q-11.3575 -9.5781 -11.9747 -10.4219 Q-12.5919 -11.2656 -13.6544 -11.2656 Q-14.7325 -11.2656 -15.3419 -10.4219 Q-15.9513 -9.5781 -15.9513 -8.0938 ZM0.0667 -8.4375 L0.0667 -7.7812 L-6.1364 -7.7812 Q-6.0427 -6.3906 -5.2927 -5.6641 Q-4.5427 -4.9375 -3.2146 -4.9375 Q-2.4333 -4.9375 -1.7068 -5.125 Q-0.9802 -5.3125 -0.2614 -5.6875 L-0.2614 -4.4219 Q-0.9802 -4.1094 -1.7458 -3.9453 Q-2.5114 -3.7812 -3.2927 -3.7812 Q-5.2458 -3.7812 -6.3943 -4.9297 Q-7.5427 -6.0781 -7.5427 -8.0156 Q-7.5427 -10.0312 -6.4568 -11.2188 Q-5.3708 -12.4062 -3.5271 -12.4062 Q-1.8708 -12.4062 -0.9021 -11.3359 Q0.0667 -10.2656 0.0667 -8.4375 ZM-1.2927 -8.8281 Q-1.3083 -9.9375 -1.9099 -10.6016 Q-2.5114 -11.2656 -3.5114 -11.2656 Q-4.6364 -11.2656 -5.3161 -10.625 Q-5.9958 -9.9844 -6.0896 -8.8281 L-1.2927 -8.8281 ZM7.7675 -11.9688 L7.7675 -10.6875 Q7.205 -10.9844 6.5878 -11.125 Q5.9706 -11.2656 5.3144 -11.2656 Q4.2987 -11.2656 3.7987 -10.9609 Q3.2987 -10.6562 3.2987 -10.0469 Q3.2987 -9.5781 3.6581 -9.3125 Q4.0175 -9.0469 5.1112 -8.7969 L5.5644 -8.6875 Q7.0019 -8.3906 7.6034 -7.8281 Q8.205 -7.2656 8.205 -6.2656 Q8.205 -5.125 7.3065 -4.4531 Q6.4081 -3.7812 4.8144 -3.7812 Q4.1581 -3.7812 3.4472 -3.9141 Q2.7362 -4.0469 1.9394 -4.2969 L1.9394 -5.6875 Q2.6894 -5.2969 3.4159 -5.1094 Q4.1425 -4.9219 4.8456 -4.9219 Q5.7987 -4.9219 6.3144 -5.2422 Q6.83 -5.5625 6.83 -6.1562 Q6.83 -6.7031 6.455 -7 Q6.08 -7.2969 4.83 -7.5625 L4.3612 -7.6719 Q3.1112 -7.9375 2.5565 -8.4844 Q2.0019 -9.0312 2.0019 -9.9844 Q2.0019 -11.1406 2.8222 -11.7734 Q3.6425 -12.4062 5.1425 -12.4062 Q5.8925 -12.4062 6.5565 -12.2969 Q7.2206 -12.1875 7.7675 -11.9688 ZM17.8894 -14.9375 L19.1237 -14.9375 L15.3269 -2.6094 L14.0769 -2.6094 L17.8894 -14.9375 ZM25.6539 -14.9375 L27.1382 -14.9375 L27.1382 -4 L25.6539 -4 L25.6539 -14.9375 ZM31.488 -14.5312 L31.488 -12.2031 L34.2536 -12.2031 L34.2536 -11.1562 L31.488 -11.1562 L31.488 -6.7031 Q31.488 -5.7031 31.7614 -5.4141 Q32.0349 -5.125 32.8786 -5.125 L34.2536 -5.125 L34.2536 -4 L32.8786 -4 Q31.3161 -4 30.7224 -4.5859 Q30.1286 -5.1719 30.1286 -6.7031 L30.1286 -11.1562 L29.1442 -11.1562 L29.1442 -12.2031 L30.1286 -12.2031 L30.1286 -14.5312 L31.488 -14.5312 ZM43.2284 -8.4375 L43.2284 -7.7812 L37.0252 -7.7812 Q37.119 -6.3906 37.869 -5.6641 Q38.619 -4.9375 39.9471 -4.9375 Q40.7284 -4.9375 41.4549 -5.125 Q42.1815 -5.3125 42.9002 -5.6875 L42.9002 -4.4219 Q42.1815 -4.1094 41.4159 -3.9453 Q40.6502 -3.7812 39.869 -3.7812 Q37.9159 -3.7812 36.7674 -4.9297 Q35.619 -6.0781 35.619 -8.0156 Q35.619 -10.0312 36.7049 -11.2188 Q37.7909 -12.4062 39.6346 -12.4062 Q41.2909 -12.4062 42.2596 -11.3359 Q43.2284 -10.2656 43.2284 -8.4375 ZM41.869 -8.8281 Q41.8534 -9.9375 41.2518 -10.6016 Q40.6502 -11.2656 39.6502 -11.2656 Q38.5252 -11.2656 37.8456 -10.625 Q37.1659 -9.9844 37.0721 -8.8281 L41.869 -8.8281 ZM52.0854 -10.625 Q52.601 -11.5312 53.3042 -11.9688 Q54.0073 -12.4062 54.9604 -12.4062 Q56.2417 -12.4062 56.937 -11.5078 Q57.6323 -10.6094 57.6323 -8.9531 L57.6323 -4 L56.2729 -4 L56.2729 -8.9062 Q56.2729 -10.0938 55.851 -10.6641 Q55.4292 -11.2344 54.5854 -11.2344 Q53.5385 -11.2344 52.9292 -10.5391 Q52.3198 -9.8438 52.3198 -8.6406 L52.3198 -4 L50.9604 -4 L50.9604 -8.9062 Q50.9604 -10.0938 50.5464 -10.6641 Q50.1323 -11.2344 49.2573 -11.2344 Q48.226 -11.2344 47.6167 -10.5312 Q47.0073 -9.8281 47.0073 -8.6406 L47.0073 -4 L45.6479 -4 L45.6479 -12.2031 L47.0073 -12.2031 L47.0073 -10.9219 Q47.4604 -11.6875 48.1089 -12.0469 Q48.7573 -12.4062 49.6479 -12.4062 Q50.5385 -12.4062 51.1635 -11.9531 Q51.7885 -11.5 52.0854 -10.625 Z"
         id="path65" />
    </g>
    <path
       d="m 54,29.0113 h 15.838 9.2646 6.5734 5.0987 4.1659 3.5223 3.0511 2.6912 2.4075 2.1777 1.9882 1.8289 1.6933 1.5765 1.4747 1.3852 1.306 1.2354 1.1721 1.1148 1.0629 1.0157 0.9725 0.9327 0.8962 0.8624 0.8309 0.8019 0.7746 0.7492 0.7255 0.7031 0.6821 0.6623 0.6437 0.6261 0.6093 0.5935 0.5785 0.5643 0.5506 0.5376 0.5253 0.5135 0.5022 0.4914 0.4811 0.4711 0.4616 0.4525 0.4437 0.4353 0.427 0.4193 0.4117 0.4045 0.3973 0.3907 0.384 0.3777 0.3715 0.3656 0.3598 0.3543 0.3488 0.3437 0.3385 0.3335 0.3288 0.3241 0.3196 0.3152 0.3109 0.3067 0.3026 0.2987 0.2948 0.2911 0.2874 0.2839 0.2803 0.277 0.2737 0.2704 0.2672 0.2642 0.2611 0.2582 0.2553 0.2525 0.2497 0.247 0.2444 0.2418 0.2393 0.2368 0.2343 0.232 0.2296 0.2274 0.2251 0.2229 0.2208 0.2186 0.2166 0.2146 0.2125 0.2106 0.2087 0.2068 0.2049 0.2031 0.2013 0.1996 0.1978 0.1962 0.1944 0.1929 0.1912 0.1896 0.1881 0.1865 0.185 0.1835 0.1821 0.1806 0.1792 0.1778 0.1765 0.1751 0.1737 0.1725 0.1711 0.1699 0.1687 0.1674 0.1661 0.165 0.1638 0.1626 0.1615 0.1604 0.1592 0.1581 0.1571 0.1559 0.1549 0.1539 0.1529 0.1518 0.1508 0.1498 0.1489 0.1479 0.1469 0.146 0.1451 0.1442 0.1432 0.1424 0.1415 0.1406 0.1397 0.1389 0.1381 0.1372 0.1365 0.1356 0.1348 0.134 0.1332 0.1325 0.1317 0.1309 0.1302 0.1295 0.1287 0.128 0.1273 0.1266 0.1259 0.1252 0.1245 0.1238 0.1232 0.1225 0.1219 0.1212 0.1206 0.1199 0.1194 0.1187 0.118 0.1175 0.1169 0.1163 0.1157 0.1151 0.1145 0.114 0.1134 0.1128 0.1123 0.1117 0.1112 0.1107 0.1101 0.1096 0.109 0.1086 0.108 0.1076 0.107 0.1065 0.106 0.1056 0.105 0.1046 0.1041 0.1036 0.1032 0.1027 0.1022 0.1018 0.1013 0.1009 0.1004 0.1 0.0996 0.0991 0.0987 0.0983 0.0979 0.0974 0.097 0.0966 0.0962 0.0959 0.0953 0.0951 0.0946 0.0942 0.0938 0.0935 0.0931 0.0927 0.0923 0.0919 0.0916 0.0912 0.0909 0.0905 0.0901 0.0898 0.0894 0.0891 0.0887 0.0884 0.0881 0.0877 0.0874 0.087 0.0867 0.0864 0.0861 0.0857 0.0854 0.0851 0.0848 0.0845 0.0842 0.0838 0.0835 0.0833 0.0829 0.0827 0.0823 0.0821 0.0817 0.0815 0.0811 0.0809 0.0806 0.0803 0.0801 0.0797 0.0795 0.0792 0.0789 0.0787 0.0784 0.0781 0.0778 0.0776 0.0773 0.0771 0.0768 0.0765 0.0763 0.0761 0.0758 0.0755 0.0753 0.075 0.0748 0.0746 0.0743 0.074 0.0739 0.0736 0.0733 0.0731 0.0729 0.0727 0.0724 0.0722 0.072 0.0717 0.0715 0.0713 0.0711 0.0708 0.0707 0.0704 0.0702 0.07 0.0697 0.0696 0.0693 0.0692 0.0689 0.0687 0.0685 0.0683 0.0681 0.0679 0.0677 0.0675 0.0674 0.0671 0.0669 0.0667 0.0665 0.0663 0.0662 0.0659 0.0658 0.0655 0.0654 0.0652 0.065 0.0648 0.0646 0.0645 0.0643 0.0641 0.0639 0.0637 0.0636 0.0634 0.0632 0.063 0.0629 0.0627 0.0625 0.0623 0.0622 0.062 0.0618 0.0617 0.0615 0.0614 0.0611 0.061 0.0609 0.0607 0.0605 0.0604 0.0602 0.06 0.0599 0.0598 0.0596 0.0594 0.0592 0.0592 0.0589 0.0588 0.0587 0.0585 0.0584 0.0582 0.0581 0.0579 0.0578 0.0576 0.0575 0.0573 0.0572 0.0571 0.0569 0.0567 0.0567 0.0565 0.0563 0.0562 0.0561 0.0559 0.0558 0.0557 0.0555 0.0554 0.0553 0.0551 0.055 0.0548 0.0548 0.0546 0.0544 0.0544 0.0542 0.0541 0.0539 0.0538 0.0537 0.0536 0.0535 0.0533 0.0532 0.0531 0.0529 0.0528 0.0528 0.0525 0.0525 0.0524 0.0522 0.0521 0.052 0.0519 0.0517 0.0516 0.0516 0.0514 0.0513 0.0511 0.0511 0.0509 0.0509 0.0507 0.0506 0.0505 0.0504 0.0503 0.0501 0.0501 0.0499 0.0498 0.0498 0.0496 0.0495 0.0494 0.0493 0.0492 0.0491 0.049 0.0488 0.0488 0.0487 0.0486 0.0484 0.0484 0.0482 0.0482 0.048 0.048 0.0478 0.0478 0.0476 0.0476 0.0474 0.0474 0.0473 0.0471 0.0471 0.047 0.0468 0.0468 0.0467 0.0466 0.0465 0.0463 0.0464 0.0462 0.0461 0.046 0.0459 0.0459 H 196"
       style="color-interpolation:linearRGB;fill:none;fill-rule:evenodd;stroke:#0072bd;stroke-width:1.33333333;stroke-linecap:butt;stroke-linejoin:round;stroke-dasharray:5.33333333,2.66666667,1.33333333,2.66666667;stroke-dashoffset:0;color-rendering:optimizeQuality;image-rendering:optimizeQuality;text-rendering:geometricPrecision"
       id="path66" />
    <path
       d="m 54,29.0113 15.838,0.1381 9.2646,0.1461 6.5734,0.1363 5.0987,0.1252 4.1659,0.1439 3.5223,0.1247 3.0511,0.1228 2.6912,0.1065 2.4075,0.1103 2.1777,0.1199 1.9882,0.1103 1.8289,0.1242 1.6933,0.1417 1.5765,0.1082 1.4747,0.1437 1.3852,0.1366 1.306,0.1416 1.2354,0.2022 1.1721,0.1301 1.1148,0.1332 1.0629,0.1347 1.0157,0.1016 0.9725,0.158 0.9327,0.1319 0.8962,0.1182 0.8624,0.16 0.8309,0.0596 0.8019,0.1585 0.7746,0.1511 0.7492,0.1243 0.7255,0.1506 0.7031,0.0775 0.6821,0.1146 0.6623,0.1737 0.6437,0.0634 0.6261,0.0964 0.6093,0.1238 0.5935,0.1074 0.5785,0.1949 0.5643,0.1724 0.5506,0.1387 0.5376,0.0942 0.5253,0.0751 0.5135,0.1731 0.5022,0.1897 0.4914,0.1506 0.4811,0.0825 0.4711,0.0197 0.4616,0.2638 0.4525,0.0735 0.4437,0.1646 0.4353,0.2601 0.427,0.0696 0.4193,0.1043 0.4117,0.177 0.4045,0.255 0.3973,0.2095 0.3907,-0.1044 0.384,0.3466 0.3777,0.3189 0.3715,0.0126 0.3656,0.7399 0.3598,0.3182 0.3543,-0.0774 0.3488,0.1353 0.3437,0.2251 0.3385,0.1823 0.3335,-0.0099 0.3288,0.0155 0.3241,0.1422 0.3196,-0.3731 0.3152,0.0529 0.3109,0.1038 0.3067,0.1163 0.3026,0.0211 0.2987,0.0768 0.2948,0.5959 0.2911,0.3942 0.2874,0.1903 0.2839,0.1113 0.2803,0.2577 0.277,0.3355 0.2737,0.3416 0.2704,0.1946 0.2672,0.4758 0.2642,0.1005 0.2611,0.0835 0.2582,0.0974 0.2553,0.2143 0.2525,0.2384 0.2497,0.6302 0.247,0.5001 0.2444,0.7605 0.2418,-0.2045 0.2393,-0.2202 0.2368,0.1291 0.2343,0.6142 0.232,0.7189 0.2296,0.9982 0.2274,0.1698 0.2251,-0.2607 0.2229,0.2135 0.2208,0.9841 0.2186,0.6483 0.2166,0.7733 0.2146,0.1765 0.2125,-0.2383 0.2106,-0.4346 0.2087,0.1401 0.2068,0.2283 0.2049,0.2921 0.2031,0.1136 0.2013,0.351 0.1996,-0.1462 0.1978,0.5046 0.1962,0.9555 0.1944,1.0149 0.1929,0.7991 0.1912,0.822 0.1896,0.1311 0.1881,0.4367 0.1865,0.7912 0.185,0.628 0.1835,0.5417 0.1821,0.496 0.1806,-0.422 0.1792,0.1681 0.1778,0.3251 0.1765,0.5537 0.1751,0.3794 0.1737,0.5625 0.1725,0.7195 0.1711,1.251 0.1699,0.1 0.1687,1.054 0.1674,0.3379 0.1661,0.3109 0.165,0.0588 0.1638,-0.1409 0.1626,-1.105 0.1615,0.6952 0.1604,0.4497 0.1592,0.9581 0.1581,-0.5661 0.1571,-0.67 0.1559,-0.4686 0.1549,-0.2214 0.1539,0.5577 0.1529,0.422 0.1518,-0.6757 0.1508,0.1242 0.1498,-0.6909 0.1489,0.5116 0.1479,1.2421 0.1469,1.0217 0.146,0.8302 0.1451,1.1386 0.1442,1.9795 0.1432,0.7523 0.1424,-1.4236 0.1415,0.1513 0.1406,-0.487 0.1397,1.3511 0.1389,1.047 0.1381,1.6202 0.1372,0.7671 0.1365,-0.9735 0.1356,0.6644 0.1348,1.4489 0.134,1.7842 0.1332,1.0349 0.1325,-0.9756 0.1317,0.4042 0.1309,-1.0538 0.1302,0.5102 0.1295,0.9819 0.1287,0.1367 0.128,1.3936 0.1273,-0.4642 0.1266,1.8448 0.1259,0.4609 0.1252,1.0631 0.1245,0.4382 0.1238,-1.248 0.1232,-0.2493 0.1225,1.8779 0.1219,-1.9698 0.1212,1.0517 0.1206,0.1864 0.1199,-0.5519 0.1194,-0.7022 0.1187,0.7267 0.118,0.5482 0.1175,2.1393 0.1169,-0.9264 0.1163,1.1815 0.1157,-1.6153 0.1151,0.2354 0.1145,3.6211 0.114,1.4598 0.1134,2.2761 0.1128,2.6176 0.1123,-0.8262 0.1117,0.2438 0.1112,0.1226 0.1107,2.1065 0.1101,0.3782 0.1096,-2.5665 0.109,-1.7083 0.1086,-0.9031 0.108,-0.9191 0.1076,0.6735 0.107,1 0.1065,2.9741 0.106,1.5574 0.1056,1.1014 0.105,2.1509 0.1046,1.6861 0.1041,1.0639 0.1036,0.8863 0.1032,-0.8941 0.1027,0.9897 0.1022,-1.4348 0.1018,1.228 0.1013,-2.4236 0.1009,-0.328 0.1004,2.4125 0.1,1.3875 0.0996,-0.2858 0.0991,1.4817 0.0987,-1.4003 0.0983,1.0358 0.0979,1.6976 0.0974,3.0486 0.097,1.8533 0.0966,1.1269 0.0962,-1.366 0.0959,2.2779 0.0953,2.3392 0.0951,4.0848 0.0946,-1.6577 0.0942,-5.5263 0.0938,2.9552 0.0935,-3.4731 0.0931,-1.432 0.0927,-0.3756 0.0923,-2.1247 0.0919,1.2395 0.0916,-1.079 0.0912,0.9616 0.0909,2.112 0.0905,0.3789 0.0901,3.3643 0.0898,1.1428 0.0894,-0.5466 0.0891,4.0882 0.0887,-1.0806 0.0884,-2.7294 0.0881,1.468 0.0877,2.9529 0.0874,-1.8107 0.087,-0.224 0.0867,1.3414 0.0864,1.8651 0.0861,-0.9042 0.0857,0.9479 0.0854,5.2162 0.0851,-0.2066 0.0848,-1.2773 0.0845,2.3777 0.0842,-1.4587 0.0838,-4.3434 0.0835,0.8514 0.0833,1.0161 0.0829,-0.4352 0.0827,-2.1603 0.0823,-0.3007 0.0821,1.9863 0.0817,-2.579 0.0815,2.1264 0.0811,1.8516 0.0809,2.0717 0.0806,-0.2372 0.0803,0.442 0.0801,3.8617 0.0797,0.5284 0.0795,-0.8949 0.0792,3.5743 0.0789,0.5431 0.0787,3.3537 0.0784,-3.3098 0.0781,0.6879 0.0778,0.4522 0.0776,-1.684 0.0773,1.5703 0.0771,-1.0264 0.0768,0.2645 0.0765,-0.9589 0.0763,0.129 0.0761,4.0467 0.0758,0.2714 0.0755,0.9566 0.0753,0.9609 0.075,0.7205 0.0748,1.7498 0.0746,-4.977 0.0743,1.6996 0.074,0.9392 0.0739,-3.6906 0.0736,-1.9136 0.0733,-2.2772 0.0731,1.4706 0.0729,0.3245 0.0727,-3.1791 0.0724,3.2662 0.0722,0.2408 0.072,-0.9095 0.0717,-1.6616 0.0715,1.1327 0.0713,3.0628 0.0711,-0.8454 0.0708,0.6146 0.0707,3.9178 0.0704,0.8738 0.0702,0.3512 0.07,-1.7942 0.0697,4.5786 0.0696,1.8062 h 0.0693 l 0.0692,-1.2965 0.0689,-0.6284 0.0687,0.9627 0.0685,0.711 0.0683,0.094 0.0681,3.8364 0.0679,-0.2477 0.0677,0.2477 0.0675,-3.2026 0.0674,2.1892 0.0671,-1.8349 0.0669,-0.1616 h 0.0667 l 0.0665,2.1689 0.0663,-0.5482 0.0662,1.5316 0.0659,-0.6008 0.0658,1.0321 0.0655,0.5477 0.0654,1.743 0.0652,1.1517 h 0.065 l 0.0648,0.8201 0.0646,-0.4947 0.0645,2.4681 0.0643,1.128 0.0641,-1.4365 0.0639,1.3447 0.0637,1.4061 0.0636,-1.4519 0.0634,-1.123 h 0.0632 l 0.063,2.4792 0.0629,1.1196 0.0627,0.9055 0.0625,-0.102 0.0623,-4.7532 0.0622,-2.1884 0.062,1.2859 0.0618,0.2125 0.0617,-1.3354 0.0615,-1.0045 0.0614,-1.2018 0.0611,-0.6397 0.061,2.7644 0.0609,4.4156 0.0607,2.5466 0.0605,-1.3485 0.0604,0.9932 0.0602,1.6587 0.06,1.361 0.0599,1.7756 0.0598,-1.8312 0.0596,-4.1522 0.0594,-2.1565 h 0.0592 l 0.0592,-0.0904 0.0589,-1.8826 0.0588,-1.9343 h 0.0587 0.0585 l 0.0584,2.0194 0.0582,5.0313 0.0581,2.3971 h 0.0579 l 0.0578,-1.1175 0.0576,2.3334 0.0575,1.1485 h 0.0573 l 0.0572,-1.8177 h 0.0571 l 0.0569,-2.5401 h 0.0567 0.0567 l 0.0565,2.6507 h 0.0563 l 0.0562,0.615 0.0561,-1.1637 0.0559,0.8267 h 0.0558 l 0.0557,2.8051 0.0555,-2.5808 0.0554,-0.9966 0.0553,-4.5972 h 0.0551 l 0.055,-0.5119 0.0548,0.9849 0.0548,-0.0476 h 0.0546 0.0544 l 0.0544,2.1682 0.0542,0.1535 0.0541,5.0626 h 0.0539 l 0.0538,1.6772 h 0.0537 l 0.0536,1.1711 h 0.0535 0.0533 l 0.0532,-1.8029 0.0531,0.9527 h 0.0529 0.0528 0.0528 l 0.0525,-4.2702 h 0.0525 l 0.0524,-1.0491 h 0.0522 l 0.0521,1.5587 0.052,-2.6782 h 0.0519 0.0517 0.0516 l 0.0516,3.9608 0.0514,-3.1116 0.0513,1.0398 0.0511,-0.8238 h 0.0511 l 0.0509,1.8423 0.0509,-4.4891 0.0507,-1.1232 0.0506,-0.711 h 0.0505 l 0.0504,2.6915 0.0503,-1.1543 0.0501,-0.1474 h 0.0501 l 0.0499,0.7945 0.0498,4.5443 0.0498,1.3707 0.0496,-0.1216 h 0.0495 0.0494 l 0.0493,1.4286 0.0492,1.1662 h 0.0491 0.049 0.0488 0.0488 l 0.0487,-0.1975 h 0.0486 0.0484 0.0484 0.0482 0.0482 0.048 0.048 0.0478 l 0.0478,1.3409 0.0476,-4.1003 0.0476,-1.0613 h 0.0474 0.0474 0.0473 l 0.0471,-1.3606 h 0.0471 0.047 0.0468 l 0.0468,3.7708 0.0467,1.1492 h 0.0466 0.0465 0.0463 l 0.0464,1.6022 0.0462,-3.6775 h 0.0461 l 0.046,-0.9749 0.0459,-1.6807 0.0459,-3.5983 L 196,166"
       style="color-interpolation:linearRGB;fill:none;fill-rule:evenodd;stroke:#d95319;stroke-width:1.33333333;stroke-linecap:butt;stroke-linejoin:round;stroke-dasharray:4.00000012,1.33333333;stroke-dashoffset:0;color-rendering:optimizeQuality;image-rendering:optimizeQuality;text-rendering:geometricPrecision"
       id="path67" />
    <path
       d="m 54,29.0113 15.838,0.2135 9.2646,0.191 6.5734,0.2025 5.0987,0.18 4.1659,0.1992 3.5223,0.1736 3.0511,0.1821 2.6912,0.1681 2.4075,0.1723 2.1777,0.1716 1.9882,0.1665 1.8289,0.1839 1.6933,0.1989 1.5765,0.174 1.4747,0.2057 1.3852,0.1983 1.306,0.2049 1.2354,0.2594 1.1721,0.1854 1.1148,0.1947 1.0629,0.1885 1.0157,0.1621 0.9725,0.1991 0.9327,0.1789 0.8962,0.1837 0.8624,0.2084 0.8309,0.1176 0.8019,0.225 0.7746,0.2026 0.7492,0.1758 0.7255,0.2139 0.7031,0.1506 0.6821,0.1829 0.6623,0.2167 0.6437,0.1194 0.6261,0.1469 0.6093,0.1879 0.5935,0.1637 0.5785,0.2676 0.5643,0.2144 0.5506,0.1972 0.5376,0.162 0.5253,0.144 0.5135,0.2268 0.5022,0.2444 0.4914,0.1854 0.4811,0.1414 0.4711,0.0612 0.4616,0.3396 0.4525,0.1396 0.4437,0.2226 0.4353,0.3041 0.427,0.1448 0.4193,0.1702 0.4117,0.2366 0.4045,0.3219 0.3973,0.2814 0.3907,-0.0392 0.384,0.4013 0.3777,0.3534 0.3715,0.0567 0.3656,0.7896 0.3598,0.3835 h 0.3543 l 0.3488,0.1614 0.3437,0.2593 0.3385,0.2376 0.3335,0.0402 0.3288,0.0767 0.3241,0.2214 0.3196,-0.3233 0.3152,0.1145 0.3109,0.1796 0.3067,0.2099 0.3026,0.1164 0.2987,0.1465 0.2948,0.6809 0.2911,0.4709 0.2874,0.2482 0.2839,0.177 0.2803,0.2805 0.277,0.3314 0.2737,0.3979 0.2704,0.2121 0.2672,0.5033 0.2642,0.1048 0.2611,0.173 0.2582,0.241 0.2553,0.2326 0.2525,0.3026 0.2497,0.7369 0.247,0.5872 0.2444,0.8682 0.2418,-0.1366 0.2393,-0.1392 0.2368,0.1313 0.2343,0.6033 0.232,0.8322 0.2296,1.1192 0.2274,0.2039 0.2251,-0.2383 0.2229,0.2677 0.2208,1.0589 0.2186,0.7396 0.2166,0.8275 0.2146,0.2637 0.2125,-0.2013 0.2106,-0.4584 0.2087,0.2415 0.2068,0.2756 0.2049,0.3088 0.2031,0.094 0.2013,0.3634 0.1996,-0.1048 0.1978,0.5651 0.1962,1.0477 0.1944,1.0994 0.1929,0.8125 0.1912,0.8791 0.1896,0.2131 0.1881,0.6091 0.1865,0.8589 0.185,0.7453 0.1835,0.5047 0.1821,0.5155 0.1806,-0.4023 0.1792,0.2552 0.1778,0.4207 0.1765,0.5727 0.1751,0.4164 0.1737,0.634 0.1725,0.7479 0.1711,1.3527 0.1699,0.177 0.1687,1.1575 0.1674,0.3376 0.1661,0.2594 0.165,0.1336 0.1638,-0.0456 0.1626,-1.0659 0.1615,0.8781 0.1604,0.4471 0.1592,1.0153 0.1581,-0.4931 0.1571,-0.5191 0.1559,-0.2016 0.1549,-0.1791 0.1539,0.4635 0.1529,0.5299 0.1518,-0.7808 0.1508,0.2202 0.1498,-0.7009 0.1489,0.5539 0.1479,1.2785 0.1469,0.99 0.146,1.0058 0.1451,1.3753 0.1442,2.0597 0.1432,0.9485 0.1424,-1.3821 0.1415,0.1953 0.1406,-0.3856 0.1397,1.4669 0.1389,1.1043 0.1381,1.5637 0.1372,0.7451 0.1365,-1.0288 0.1356,0.5701 0.1348,1.4329 0.134,1.8016 0.1332,1.033 0.1325,-1.0759 0.1317,0.4849 0.1309,-1.0325 0.1302,0.581 0.1295,1.1809 0.1287,0.1839 0.128,1.4072 0.1273,-0.2856 0.1266,1.9907 0.1259,0.5226 0.1252,0.9279 0.1245,0.6069 0.1238,-1.2305 0.1232,-0.3715 0.1225,1.91 0.1219,-1.8035 0.1212,1.0973 0.1206,0.2336 0.1199,-0.1345 0.1194,-0.4807 0.1187,0.9038 0.118,0.6156 0.1175,2.3837 0.1169,-0.7601 0.1163,1.1869 0.1157,-1.4278 0.1151,0.2663 0.1145,3.3821 0.114,1.403 0.1134,2.252 0.1128,2.7514 0.1123,-0.7433 0.1117,0.1799 0.1112,0.6422 0.1107,1.8245 0.1101,0.2241 0.1096,-2.5272 0.109,-1.7701 0.1086,-0.9553 0.108,-1.049 0.1076,0.7188 0.107,1.0904 0.1065,2.4526 0.106,1.7692 0.1056,0.9721 0.105,2.257 0.1046,1.8494 0.1041,1.1494 0.1036,0.9467 0.1032,-0.9239 0.1027,0.7836 0.1022,-1.4366 0.1018,1.2504 0.1013,-2.0856 0.1009,-0.42 0.1004,2.494 0.1,1.2544 0.0996,-0.396 0.0991,1.4401 0.0987,-1.1406 0.0983,1.1281 0.0979,1.4445 0.0974,3.0517 0.097,1.9534 0.0966,0.8586 0.0962,-1.2562 0.0959,2.6153 0.0953,2.0342 0.0951,3.515 0.0946,-1.1278 0.0942,-4.7668 0.0938,2.8246 0.0935,-3.069 0.0931,-1.3961 0.0927,-0.1701 0.0923,-1.8558 0.0919,1.3509 0.0916,-0.9709 0.0912,0.699 0.0909,1.8439 0.0905,0.2244 0.0901,2.9518 0.0898,1.3385 0.0894,-0.6404 0.0891,3.4446 0.0887,-1.1915 0.0884,-2.126 0.0881,1.6237 0.0877,2.6395 0.0874,-1.567 0.087,0.1791 0.0867,1.1384 0.0864,2.1214 0.0861,-0.8532 0.0857,0.8089 0.0854,4.7053 0.0851,-0.4101 0.0848,-1.2964 0.0845,2.0177 0.0842,-1.7234 0.0838,-3.7548 0.0835,0.6617 0.0833,0.8362 0.0829,-0.16 0.0827,-1.8143 0.0823,0.043 0.0821,1.7941 0.0817,-2.2427 0.0815,1.8575 0.0811,2.0245 0.0809,1.6298 0.0806,-0.076 0.0803,0.2285 0.0801,2.8829 0.0797,0.0841 0.0795,-0.3349 0.0792,3.0306 0.0789,0.3387 0.0787,2.2803 0.0784,-2.1251 0.0781,0.5019 0.0778,0.4139 0.0776,-0.9158 0.0773,1.3678 0.0771,-0.9922 0.0768,0.1896 0.0765,-0.2211 0.0763,0.1894 0.0761,2.8157 0.0758,0.2088 0.0755,0.9936 0.0753,1.0267 0.075,0.3374 0.0748,1.6651 0.0746,-3.3521 0.0743,1.3123 0.074,0.8687 0.0739,-2.7117 0.0736,-1.6395 0.0733,-1.6198 0.0731,1.1576 0.0729,0.3626 0.0727,-2.9991 0.0724,2.1489 0.0722,-0.0323 0.072,-0.7637 0.0717,-0.5915 0.0715,1.1305 0.0713,2.1525 0.0711,-0.7789 0.0708,0.6079 0.0707,3.1958 0.0704,0.7661 0.0702,0.6665 0.07,-1.2428 0.0697,2.8704 0.0696,1.63 h 0.0693 l 0.0692,-1.0394 0.0689,-0.3389 0.0687,0.7246 0.0685,0.5657 0.0683,-0.3928 0.0681,2.4356 0.0679,-0.0468 0.0677,-0.2799 0.0675,-2.1955 0.0674,1.3707 0.0671,-1.3274 0.0669,-0.0865 h 0.0667 l 0.0665,1.732 0.0663,-0.4984 0.0662,0.8661 0.0659,-0.3677 0.0658,0.5067 0.0655,0.5623 0.0654,1.4029 0.0652,0.7515 h 0.065 l 0.0648,0.4599 0.0646,-0.2563 0.0645,1.4101 0.0643,0.8122 0.0641,-0.6515 0.0639,0.8165 0.0637,0.5005 0.0636,-1.0472 0.0634,-0.5372 h 0.0632 l 0.063,1.6406 0.0629,0.6241 0.0627,0.5201 0.0625,-0.0582 0.0623,-2.5128 0.0622,-1.2609 0.062,0.9939 0.0618,0.1599 0.0617,-0.7392 0.0615,-0.6709 0.0614,-0.5565 0.0611,-0.2994 0.061,1.7888 0.0609,2.4637 0.0607,1.3992 0.0605,-0.6492 0.0604,0.4115 0.0602,0.8399 0.06,0.801 0.0599,0.6943 0.0598,-1.0666 0.0596,-1.5044 0.0594,-0.9827 h 0.0592 l 0.0592,0.1712 0.0589,-1.1235 0.0588,-0.9237 h 0.0587 0.0585 l 0.0584,1.2565 0.0582,2.3753 0.0581,1.0412 h 0.0579 l 0.0578,-0.6777 0.0576,1.2435 0.0575,0.5118 h 0.0573 l 0.0572,-0.7645 h 0.0571 l 0.0569,-0.9298 h 0.0567 0.0567 l 0.0565,1.1825 h 0.0563 l 0.0562,0.1909 0.0561,-0.5065 0.0559,0.3156 h 0.0558 l 0.0557,0.9667 0.0555,-1.2823 0.0554,-0.4365 0.0553,-1.8037 h 0.0551 l 0.055,-0.2906 0.0548,0.4663 0.0548,-0.0587 h 0.0546 0.0544 l 0.0544,1.1953 0.0542,-0.0609 0.0541,1.8808 h 0.0539 l 0.0538,0.7194 h 0.0537 l 0.0536,0.5339 h 0.0535 0.0533 l 0.0532,-0.9936 0.0531,0.5259 h 0.0529 0.0528 0.0528 l 0.0525,-1.6776 h 0.0525 l 0.0524,-0.5601 h 0.0522 l 0.0521,0.9392 0.052,-0.8775 h 0.0519 0.0517 0.0516 l 0.0516,1.6501 0.0514,-1.6501 0.0513,0.5613 0.0511,-0.3131 h 0.0511 l 0.0509,0.6293 0.0509,-2.2669 0.0507,-0.5271 0.0506,-0.4611 h 0.0505 l 0.0504,1.5245 0.0503,-0.2991 0.0501,-0.1781 h 0.0501 l 0.0499,0.2377 0.0498,2.2897 0.0498,0.5836 0.0496,0.0655 h 0.0495 0.0494 l 0.0493,0.3298 0.0492,0.5351 h 0.0491 0.049 0.0488 0.0488 l 0.0487,0.1353 h 0.0486 0.0484 0.0484 0.0482 0.0482 0.048 0.048 0.0478 l 0.0478,0.3407 0.0476,-1.6672 0.0476,-0.3228 h 0.0474 0.0474 0.0473 l 0.0471,-0.4465 h 0.0471 0.047 0.0468 l 0.0468,1.625 0.0467,0.3355 h 0.0466 0.0465 0.0463 l 0.0464,0.476 0.0462,-0.8115 h 0.0461 l 0.046,-0.228 0.0459,-0.4061 0.0459,-0.9275 L 196,166"
       style="color-interpolation:linearRGB;fill:none;fill-rule:evenodd;stroke:#edb120;stroke-width:1.33333333;stroke-linecap:butt;stroke-linejoin:round;color-rendering:optimizeQuality;image-rendering:optimizeQuality;text-rendering:geometricPrecision;stroke-dasharray:1.33333333,1.33333333;stroke-dashoffset:0"
       id="path68" />
    <path
       d="m 54,36.8404 15.838,3.9137 9.2646,3.7651 6.5734,3.6441 5.0987,3.5101 4.1659,4.2758 3.5223,4.3148 3.0511,4.4742 2.6912,4.6328 2.4075,4.8579 2.1777,5.1063 1.9882,5.373 1.8289,5.8455 1.6933,6.5223 1.5765,7.0976 1.4747,7.8007 1.3852,8.2317 1.306,8.4443 1.2354,8.9865 1.1721,9.1542 1.1148,8.4932 1.0629,6.9776 1.0157,3.2622 0.9725,0.476 h 0.9327 0.8962 0.8624 0.8309 0.8019 0.7746 0.7492 0.7255 0.7031 0.6821 0.6623 0.6437 0.6261 0.6093 0.5935 0.5785 0.5643 0.5506 0.5376 0.5253 0.5135 0.5022 0.4914 0.4811 0.4711 0.4616 0.4525 0.4437 0.4353 0.427 0.4193 0.4117 0.4045 0.3973 0.3907 0.384 0.3777 0.3715 0.3656 0.3598 0.3543 0.3488 0.3437 0.3385 0.3335 0.3288 0.3241 0.3196 0.3152 0.3109 0.3067 0.3026 0.2987 0.2948 0.2911 0.2874 0.2839 0.2803 0.277 0.2737 0.2704 0.2672 0.2642 0.2611 0.2582 0.2553 0.2525 0.2497 0.247 0.2444 0.2418 0.2393 0.2368 0.2343 0.232 0.2296 0.2274 0.2251 0.2229 0.2208 0.2186 0.2166 0.2146 0.2125 0.2106 0.2087 0.2068 0.2049 0.2031 0.2013 0.1996 0.1978 0.1962 0.1944 0.1929 0.1912 0.1896 0.1881 0.1865 0.185 0.1835 0.1821 0.1806 0.1792 0.1778 0.1765 0.1751 0.1737 0.1725 0.1711 0.1699 0.1687 0.1674 0.1661 0.165 0.1638 0.1626 0.1615 0.1604 0.1592 0.1581 0.1571 0.1559 0.1549 0.1539 0.1529 0.1518 0.1508 0.1498 0.1489 0.1479 0.1469 0.146 0.1451 0.1442 0.1432 0.1424 0.1415 0.1406 0.1397 0.1389 0.1381 0.1372 0.1365 0.1356 0.1348 0.134 0.1332 0.1325 0.1317 0.1309 0.1302 0.1295 0.1287 0.128 0.1273 0.1266 0.1259 0.1252 0.1245 0.1238 0.1232 0.1225 0.1219 0.1212 0.1206 0.1199 0.1194 0.1187 0.118 0.1175 0.1169 0.1163 0.1157 0.1151 0.1145 0.114 0.1134 0.1128 0.1123 0.1117 0.1112 0.1107 0.1101 0.1096 0.109 0.1086 0.108 0.1076 0.107 0.1065 0.106 0.1056 0.105 0.1046 0.1041 0.1036 0.1032 0.1027 0.1022 0.1018 0.1013 0.1009 0.1004 0.1 0.0996 0.0991 0.0987 0.0983 0.0979 0.0974 0.097 0.0966 0.0962 0.0959 0.0953 0.0951 0.0946 0.0942 0.0938 0.0935 0.0931 0.0927 0.0923 0.0919 0.0916 0.0912 0.0909 0.0905 0.0901 0.0898 0.0894 0.0891 0.0887 0.0884 0.0881 0.0877 0.0874 0.087 0.0867 0.0864 0.0861 0.0857 0.0854 0.0851 0.0848 0.0845 0.0842 0.0838 0.0835 0.0833 0.0829 0.0827 0.0823 0.0821 0.0817 0.0815 0.0811 0.0809 0.0806 0.0803 0.0801 0.0797 0.0795 0.0792 0.0789 0.0787 0.0784 0.0781 0.0778 0.0776 0.0773 0.0771 0.0768 0.0765 0.0763 0.0761 0.0758 0.0755 0.0753 0.075 0.0748 0.0746 0.0743 0.074 0.0739 0.0736 0.0733 0.0731 0.0729 0.0727 0.0724 0.0722 0.072 0.0717 0.0715 0.0713 0.0711 0.0708 0.0707 0.0704 0.0702 0.07 0.0697 0.0696 0.0693 0.0692 0.0689 0.0687 0.0685 0.0683 0.0681 0.0679 0.0677 0.0675 0.0674 0.0671 0.0669 0.0667 0.0665 0.0663 0.0662 0.0659 0.0658 0.0655 0.0654 0.0652 0.065 0.0648 0.0646 0.0645 0.0643 0.0641 0.0639 0.0637 0.0636 0.0634 0.0632 0.063 0.0629 0.0627 0.0625 0.0623 0.0622 0.062 0.0618 0.0617 0.0615 0.0614 0.0611 0.061 0.0609 0.0607 0.0605 0.0604 0.0602 0.06 0.0599 0.0598 0.0596 0.0594 0.0592 0.0592 0.0589 0.0588 0.0587 0.0585 0.0584 0.0582 0.0581 0.0579 0.0578 0.0576 0.0575 0.0573 0.0572 0.0571 0.0569 0.0567 0.0567 0.0565 0.0563 0.0562 0.0561 0.0559 0.0558 0.0557 0.0555 0.0554 0.0553 0.0551 0.055 0.0548 0.0548 0.0546 0.0544 0.0544 0.0542 0.0541 0.0539 0.0538 0.0537 0.0536 0.0535 0.0533 0.0532 0.0531 0.0529 0.0528 0.0528 0.0525 0.0525 0.0524 0.0522 0.0521 0.052 0.0519 0.0517 0.0516 0.0516 0.0514 0.0513 0.0511 0.0511 0.0509 0.0509 0.0507 0.0506 0.0505 0.0504 0.0503 0.0501 0.0501 0.0499 0.0498 0.0498 0.0496 0.0495 0.0494 0.0493 0.0492 0.0491 0.049 0.0488 0.0488 0.0487 0.0486 0.0484 0.0484 0.0482 0.0482 0.048 0.048 0.0478 0.0478 0.0476 0.0476 0.0474 0.0474 0.0473 0.0471 0.0471 0.047 0.0468 0.0468 0.0467 0.0466 0.0465 0.0463 0.0464 0.0462 0.0461 0.046 0.0459 0.0459 H 196"
       style="color-interpolation:linearRGB;fill:none;fill-rule:evenodd;stroke:#7e2f8e;stroke-width:1.33333333;stroke-linecap:butt;stroke-linejoin:round;color-rendering:optimizeQuality;image-rendering:optimizeQuality;text-rendering:geometricPrecision;stroke-dasharray:none"
       id="path69" />
    <g
       transform="translate(163.2301,100.6908)"
       style="font-size:12.7778px; text-rendering:geometricPrecision; color-rendering:optimizeQuality; image-rendering:optimizeQuality; font-family:'mwa_cmr10'; color-interpolation:linearRGB;"
       id="g70">
      <path
         style="stroke:none;"
         d="M0.3438 3.0666 L0.3438 2.6135 Q1.7344 2.6135 1.7344 2.1916 L1.7344 -4.949 Q1.7344 -5.3553 0.3438 -5.3553 L0.3438 -5.8084 L4.3594 -5.8084 L4.3594 -5.3553 Q2.9531 -5.3553 2.9531 -4.949 L2.9531 2.1916 Q2.9531 2.6135 4.3594 2.6135 L4.3594 3.0666 L0.3438 3.0666 Z"
         id="path70" />
    </g>
    <g
       transform="translate(163.2301,100.6908)"
       style="font-size:12.7778px; text-rendering:geometricPrecision; color-rendering:optimizeQuality; image-rendering:optimizeQuality; font-family:'mwa_cmr10'; color-interpolation:linearRGB;"
       id="g72">
      <path
         style="stroke:none;"
         d="M5.0517 3.0979 L5.0517 0.9885 Q5.0517 0.8791 5.1611 0.8791 L5.3173 0.8791 Q5.3955 0.8791 5.4267 0.9885 Q5.7861 2.8635 7.1767 2.8635 Q7.7861 2.8635 8.2001 2.5901 Q8.6142 2.3166 8.6142 1.7229 Q8.6142 1.301 8.2939 1.0119 Q7.9736 0.7229 7.5205 0.6135 L6.6611 0.4416 Q6.2236 0.3479 5.8642 0.1526 Q5.5048 -0.0428 5.2783 -0.3709 Q5.0517 -0.699 5.0517 -1.1365 Q5.0517 -1.7146 5.3486 -2.074 Q5.6455 -2.4334 6.1298 -2.5974 Q6.6142 -2.7615 7.1767 -2.7615 Q7.833 -2.7615 8.333 -2.4021 L8.708 -2.7303 Q8.708 -2.7615 8.7705 -2.7615 L8.8642 -2.7615 Q8.9111 -2.7615 8.9423 -2.7224 Q8.9736 -2.6834 8.9736 -2.6521 L8.9736 -0.949 Q8.9736 -0.824 8.8642 -0.824 L8.708 -0.824 Q8.5986 -0.824 8.5986 -0.949 Q8.5986 -1.6365 8.2158 -2.0428 Q7.833 -2.449 7.1611 -2.449 Q6.583 -2.449 6.1533 -2.2381 Q5.7236 -2.0271 5.7236 -1.4959 Q5.7236 -1.1365 6.0283 -0.9021 Q6.333 -0.6678 6.7548 -0.574 L7.6298 -0.4021 Q8.0673 -0.3084 8.458 -0.0662 Q8.8486 0.176 9.0673 0.5432 Q9.2861 0.9104 9.2861 1.3791 Q9.2861 1.8479 9.1298 2.1916 Q8.9736 2.5354 8.6845 2.7697 Q8.3955 3.0041 7.997 3.1057 Q7.5986 3.2072 7.1767 3.2072 Q6.3642 3.2072 5.7861 2.6604 L5.3017 3.176 Q5.3017 3.2072 5.2392 3.2072 L5.1611 3.2072 Q5.0517 3.2072 5.0517 3.0979 Z"
         id="path71" />
      <path
         style="stroke:none;"
         d="M10.0606 3.0666 L10.0606 2.6135 Q11.3887 2.6135 11.3887 2.1916 L11.3887 -4.949 Q11.3887 -5.3553 10.0606 -5.3553 L10.0606 -5.8084 L14.2637 -5.8084 L14.2637 -5.3553 Q12.6074 -5.3553 12.6074 -4.949 L12.6074 2.1916 Q12.6074 2.4729 12.7637 2.5432 Q12.9199 2.6135 13.2637 2.6135 L14.2637 2.6135 Q15.2481 2.6135 15.7715 2.2541 Q16.2949 1.8947 16.5137 1.2854 Q16.7324 0.676 16.8418 -0.3396 L17.2168 -0.3396 L16.8574 3.0666 L10.0606 3.0666 Z"
         id="path72" />
    </g>
    <g
       style="stroke-linecap:butt;fill:rgb(0, 114, 189);text-rendering:geometricPrecision;image-rendering:optimizeQuality;color-rendering:optimizeQuality;stroke-linejoin:round;stroke:rgb(0, 114, 189);color-interpolation:linearRGB;stroke-width:1.33333333;stroke-dasharray:5.33333333,2.66666667,1.33333333,2.66666667;stroke-dashoffset:0"
       id="g73">
      <line
         y2="100.6908"
         style="fill:none;stroke-dasharray:5.33333333,2.66666667,1.33333333,2.66666667;stroke-dashoffset:0;stroke-width:1.33333333"
         x1="121.9909"
         x2="160.2369"
         y1="100.6908"
         id="line72" />
    </g>
    <g
       transform="translate(163.2301,116.5636)"
       style="font-size:12.7778px; text-rendering:geometricPrecision; color-rendering:optimizeQuality; image-rendering:optimizeQuality; font-family:'mwa_cmr10'; color-interpolation:linearRGB;"
       id="g74">
      <path
         style="stroke:none;"
         d="M0.3438 3.0666 L0.3438 2.6135 Q1.7344 2.6135 1.7344 2.1916 L1.7344 -4.949 Q1.7344 -5.3553 0.3438 -5.3553 L0.3438 -5.8084 L4.3594 -5.8084 L4.3594 -5.3553 Q2.9531 -5.3553 2.9531 -4.949 L2.9531 2.1916 Q2.9531 2.6135 4.3594 2.6135 L4.3594 3.0666 L0.3438 3.0666 Z"
         id="path73" />
    </g>
    <g
       transform="translate(163.2301,116.5636)"
       style="font-size:12.7778px; text-rendering:geometricPrecision; color-rendering:optimizeQuality; image-rendering:optimizeQuality; font-family:'mwa_cmr10'; color-interpolation:linearRGB;"
       id="g75">
      <path
         style="stroke:none;"
         d="M5.0205 3.0666 L5.0205 2.6135 Q6.3486 2.6135 6.3486 2.1916 L6.3486 -4.949 Q6.3486 -5.3553 5.0205 -5.3553 L5.0205 -5.8084 L9.2236 -5.8084 L9.2236 -5.3553 Q7.5673 -5.3553 7.5673 -4.949 L7.5673 2.1916 Q7.5673 2.4729 7.7236 2.5432 Q7.8798 2.6135 8.2236 2.6135 L9.2236 2.6135 Q10.208 2.6135 10.7314 2.2541 Q11.2548 1.8947 11.4736 1.2854 Q11.6923 0.676 11.8017 -0.3396 L12.1767 -0.3396 L11.8173 3.0666 L5.0205 3.0666 Z"
         id="path74" />
    </g>
    <g
       style="stroke-linecap:butt;fill:rgb(217, 83, 25);text-rendering:geometricPrecision;image-rendering:optimizeQuality;color-rendering:optimizeQuality;stroke-linejoin:round;stroke:rgb(217, 83, 25);color-interpolation:linearRGB;stroke-width:1.33333333;stroke-dasharray:4.00000012,1.33333333;stroke-dashoffset:0"
       id="g76">
      <line
         y2="116.5636"
         style="fill:none;stroke-dasharray:4.00000012,1.33333333;stroke-dashoffset:0;stroke-width:1.33333333"
         x1="121.9909"
         x2="160.2369"
         y1="116.5636"
         id="line75" />
    </g>
    <g
       transform="translate(163.2301,132.4364)"
       style="font-size:12.7778px; text-rendering:geometricPrecision; color-rendering:optimizeQuality; image-rendering:optimizeQuality; font-family:'mwa_cmr10'; color-interpolation:linearRGB;"
       id="g77">
      <path
         style="stroke:none;"
         d="M2.2031 3.0666 L2.2031 2.6135 Q2.8438 2.6135 3.4609 2.5354 Q4.0781 2.4572 4.0781 2.1916 L4.0781 -4.949 Q4.0781 -5.2303 3.9219 -5.2928 Q3.7656 -5.3553 3.4219 -5.3553 L2.875 -5.3553 Q1.7969 -5.3553 1.3594 -4.8865 Q1.125 -4.6521 1.0234 -4.1365 Q0.9219 -3.6209 0.8438 -2.8396 L0.4688 -2.8396 L0.7188 -5.8084 L8.6562 -5.8084 L8.9062 -2.8396 L8.5312 -2.8396 Q8.4531 -3.6678 8.3594 -4.1599 Q8.2656 -4.6521 8.0312 -4.8865 Q7.5625 -5.3553 6.5 -5.3553 L5.9531 -5.3553 Q5.7188 -5.3553 5.5859 -5.3396 Q5.4531 -5.324 5.375 -5.2303 Q5.2969 -5.1365 5.2969 -4.949 L5.2969 2.1916 Q5.2969 2.4572 5.9141 2.5354 Q6.5312 2.6135 7.1719 2.6135 L7.1719 3.0666 L2.2031 3.0666 Z"
         id="path76" />
    </g>
    <g
       transform="translate(163.2301,132.4364)"
       style="font-size:12.7778px; text-rendering:geometricPrecision; color-rendering:optimizeQuality; image-rendering:optimizeQuality; font-family:'mwa_cmr10'; color-interpolation:linearRGB;"
       id="g78">
      <path
         style="stroke:none;"
         d="M9.5722 3.0666 L9.5722 2.6135 Q10.9628 2.6135 10.9628 2.1916 L10.9628 -4.949 Q10.9628 -5.3553 9.5722 -5.3553 L9.5722 -5.8084 L13.5878 -5.8084 L13.5878 -5.3553 Q12.1815 -5.3553 12.1815 -4.949 L12.1815 2.1916 Q12.1815 2.6135 13.5878 2.6135 L13.5878 3.0666 L9.5722 3.0666 Z"
         id="path77" />
      <path
         style="stroke:none;"
         d="M14.2489 3.0666 L14.2489 2.6135 Q15.577 2.6135 15.577 2.1916 L15.577 -4.949 Q15.577 -5.3553 14.2489 -5.3553 L14.2489 -5.8084 L18.452 -5.8084 L18.452 -5.3553 Q16.7957 -5.3553 16.7957 -4.949 L16.7957 2.1916 Q16.7957 2.4729 16.952 2.5432 Q17.1082 2.6135 17.452 2.6135 L18.452 2.6135 Q19.4364 2.6135 19.9598 2.2541 Q20.4832 1.8947 20.702 1.2854 Q20.9207 0.676 21.0301 -0.3396 L21.4051 -0.3396 L21.0457 3.0666 L14.2489 3.0666 Z"
         id="path78" />
    </g>
    <g
       style="stroke-linecap:butt;fill:rgb(237, 177, 32);text-rendering:geometricPrecision;image-rendering:optimizeQuality;color-rendering:optimizeQuality;stroke-linejoin:round;stroke:rgb(237, 177, 32);color-interpolation:linearRGB;stroke-width:1.33333333;stroke-dasharray:1.33333333,1.33333333;stroke-dashoffset:0"
       id="g79">
      <line
         y2="132.4364"
         style="fill:none;stroke-dasharray:1.33333333,1.33333333;stroke-dashoffset:0;stroke-width:1.33333333"
         x1="121.9909"
         x2="160.2369"
         y1="132.4364"
         id="line78" />
    </g>
    <g
       transform="translate(163.2301,148.3092)"
       style="font-size:12.7778px; text-rendering:geometricPrecision; color-rendering:optimizeQuality; image-rendering:optimizeQuality; font-family:'mwa_cmr10'; color-interpolation:linearRGB;"
       id="g80">
      <path
         style="stroke:none;"
         d="M2.9688 1.676 Q3.4062 2.2385 4.0703 2.5666 Q4.7344 2.8947 5.4531 2.8947 Q6.0625 2.8947 6.5781 2.6604 Q7.0938 2.426 7.4766 1.9963 Q7.8594 1.5666 8.0625 1.0276 Q8.2656 0.4885 8.2656 -0.1053 Q8.2656 -0.2146 8.3906 -0.2146 L8.5469 -0.2146 Q8.6406 -0.2146 8.6406 -0.0896 Q8.6406 0.5979 8.3828 1.2307 Q8.125 1.8635 7.6484 2.3401 Q7.1719 2.8166 6.5547 3.0822 Q5.9375 3.3479 5.2656 3.3479 Q4.3281 3.3479 3.4922 2.9729 Q2.6562 2.5979 2.0391 1.9416 Q1.4219 1.2854 1.0781 0.4182 Q0.7344 -0.449 0.7344 -1.3709 Q0.7344 -2.3084 1.0781 -3.1756 Q1.4219 -4.0428 2.0391 -4.699 Q2.6562 -5.3553 3.4922 -5.7303 Q4.3281 -6.1053 5.2656 -6.1053 Q5.9219 -6.1053 6.5312 -5.8162 Q7.1406 -5.5271 7.6094 -4.9959 L8.3594 -6.0584 Q8.4375 -6.1053 8.4531 -6.1053 L8.5469 -6.1053 Q8.5781 -6.1053 8.6094 -6.074 Q8.6406 -6.0428 8.6406 -5.9959 L8.6406 -2.4803 Q8.6406 -2.3709 8.5469 -2.3709 L8.3125 -2.3709 Q8.1875 -2.3709 8.1875 -2.4803 Q8.1875 -2.8553 8.0391 -3.3162 Q7.8906 -3.7771 7.6562 -4.199 Q7.4219 -4.6209 7.125 -4.9334 Q6.3906 -5.6365 5.4531 -5.6365 Q4.7344 -5.6365 4.0781 -5.3162 Q3.4219 -4.9959 2.9688 -4.4178 Q2.4844 -3.8084 2.3047 -3.0349 Q2.125 -2.2615 2.125 -1.3709 Q2.125 -0.4959 2.3047 0.2854 Q2.4844 1.0666 2.9688 1.676 Z"
         id="path79" />
    </g>
    <g
       transform="translate(163.2301,148.3092)"
       style="font-size:12.7778px; text-rendering:geometricPrecision; color-rendering:optimizeQuality; image-rendering:optimizeQuality; font-family:'mwa_cmr10'; color-interpolation:linearRGB;"
       id="g81">
      <path
         style="stroke:none;"
         d="M9.6347 3.0666 L9.6347 2.6135 Q10.9628 2.6135 10.9628 2.1916 L10.9628 -4.949 Q10.9628 -5.3553 9.6347 -5.3553 L9.6347 -5.8084 L13.8378 -5.8084 L13.8378 -5.3553 Q12.1815 -5.3553 12.1815 -4.949 L12.1815 2.1916 Q12.1815 2.4729 12.3378 2.5432 Q12.494 2.6135 12.8378 2.6135 L13.8378 2.6135 Q14.8222 2.6135 15.3456 2.2541 Q15.869 1.8947 16.0878 1.2854 Q16.3065 0.676 16.4159 -0.3396 L16.7909 -0.3396 L16.4315 3.0666 L9.6347 3.0666 Z"
         id="path80" />
    </g>
    <g
       style="stroke-linecap:butt;fill:rgb(126, 47, 142);text-rendering:geometricPrecision;image-rendering:optimizeQuality;color-rendering:optimizeQuality;stroke-linejoin:round;stroke:rgb(126, 47, 142);color-interpolation:linearRGB;stroke-width:1.33333333;stroke-dasharray:none"
       id="g82">
      <line
         y2="148.3092"
         style="fill:none;stroke-width:1.33333333;stroke-dasharray:none"
         x1="121.9909"
         x2="160.2369"
         y1="148.3092"
         id="line81" />
    </g>
  </g>
</svg>
