<?xml version="1.0" encoding="UTF-8" standalone="no"?>
<!-- Created with Inkscape (http://www.inkscape.org/) -->

<svg
   version="1.1"
   id="svg2"
   width="1219.4052"
   height="1024.5822"
   viewBox="0 0 1219.4051 1024.5822"
   sodipodi:docname="cluster_knowledge_transfer_v3.svg"
   inkscape:version="1.2 (1:1.2+202206011327+fc4e4096c5)"
   xmlns:inkscape="http://www.inkscape.org/namespaces/inkscape"
   xmlns:sodipodi="http://sodipodi.sourceforge.net/DTD/sodipodi-0.dtd"
   xmlns="http://www.w3.org/2000/svg"
   xmlns:svg="http://www.w3.org/2000/svg">
  <defs
     id="defs6">
    <marker
       markerWidth="2"
       markerHeight="2"
       refX="0"
       refY="0"
       orient="auto-start-reverse"
       id="Cap4"
       viewBox="0 0 1.05 2"
       inkscape:stockid="pin"
       style="overflow:visible"
       preserveAspectRatio="xMidYMid"
       inkscape:isstock="true"
       inkscape:collect="always"
       markerUnits="strokeWidth">
      <path
         id="path104971"
         style="fill:context-stroke;stroke-linecap:butt"
         d="M 0,-1 H 0.585 C 1.33,-1 1.7,-1.6 2,-2 V 2 C 1.7,1.6 1.33,1 0.585,1 H 0 L -0.1,0 Z"
         sodipodi:nodetypes="sssssscsss"
         transform="scale(0.5)" />
    </marker>
    <marker
       style="overflow:visible"
       id="marker9011"
       refX="0"
       refY="0"
       orient="auto-start-reverse"
       inkscape:stockid="Arrow2"
       markerWidth="7.7"
       markerHeight="5.6"
       viewBox="0 0 7.7 5.6"
       inkscape:isstock="true"
       inkscape:collect="always"
       preserveAspectRatio="xMidYMid">
      <path
         transform="scale(0.7)"
         d="M -2,-4 9,0 -2,4 c 2,-2.33 2,-5.66 0,-8 z"
         style="fill:context-stroke;fill-rule:evenodd;stroke:none"
         id="path9009" />
    </marker>
    <marker
       style="overflow:visible"
       id="marker8675"
       refX="0"
       refY="0"
       orient="auto-start-reverse"
       inkscape:stockid="Arrow2"
       markerWidth="4"
       markerHeight="2.909091"
       viewBox="0 0 7.7 5.6"
       inkscape:isstock="true"
       inkscape:collect="always"
       preserveAspectRatio="xMidYMid">
      <path
         transform="scale(0.7)"
         d="M -2,-4 9,0 -2,4 c 2,-2.33 2,-5.66 0,-8 z"
         style="fill:context-stroke;fill-rule:evenodd;stroke:none"
         id="path8673" />
    </marker>
    <inkscape:path-effect
       effect="bspline"
       id="path-effect3411"
       is_visible="true"
       lpeversion="1"
       weight="33.333333"
       steps="2"
       helper_size="0"
       apply_no_weight="true"
       apply_with_weight="true"
       only_selected="false" />
    <inkscape:path-effect
       effect="bspline"
       id="path-effect2877"
       is_visible="true"
       lpeversion="1"
       weight="33.333333"
       steps="2"
       helper_size="0"
       apply_no_weight="true"
       apply_with_weight="true"
       only_selected="false" />
    <inkscape:path-effect
       effect="bspline"
       id="path-effect1168"
       is_visible="true"
       lpeversion="1"
       weight="33.333333"
       steps="2"
       helper_size="0"
       apply_no_weight="true"
       apply_with_weight="true"
       only_selected="false" />
    <inkscape:path-effect
       effect="bspline"
       id="path-effect1086"
       is_visible="true"
       lpeversion="1"
       weight="33.333333"
       steps="2"
       helper_size="0"
       apply_no_weight="true"
       apply_with_weight="true"
       only_selected="false" />
    <inkscape:path-effect
       effect="bspline"
       id="path-effect1082"
       is_visible="true"
       lpeversion="1"
       weight="33.333333"
       steps="2"
       helper_size="0"
       apply_no_weight="true"
       apply_with_weight="true"
       only_selected="false" />
    <inkscape:path-effect
       effect="bspline"
       id="path-effect1039"
       is_visible="true"
       lpeversion="1"
       weight="33.333333"
       steps="2"
       helper_size="0"
       apply_no_weight="true"
       apply_with_weight="true"
       only_selected="false" />
    <inkscape:path-effect
       effect="bspline"
       id="path-effect1168-6"
       is_visible="true"
       lpeversion="1"
       weight="33.333333"
       steps="2"
       helper_size="0"
       apply_no_weight="true"
       apply_with_weight="true"
       only_selected="false" />
    <inkscape:path-effect
       effect="bspline"
       id="path-effect1039-5"
       is_visible="true"
       lpeversion="1"
       weight="33.333333"
       steps="2"
       helper_size="0"
       apply_no_weight="true"
       apply_with_weight="true"
       only_selected="false" />
  </defs>
  <sodipodi:namedview
     id="namedview4"
     pagecolor="#ffffff"
     bordercolor="#666666"
     borderopacity="1.0"
     inkscape:showpageshadow="2"
     inkscape:pageopacity="0.0"
     inkscape:pagecheckerboard="0"
     inkscape:deskcolor="#d1d1d1"
     showgrid="false"
     inkscape:zoom="0.57235864"
     inkscape:cx="695.3682"
     inkscape:cy="612.37828"
     inkscape:window-width="1848"
     inkscape:window-height="1016"
     inkscape:window-x="72"
     inkscape:window-y="27"
     inkscape:window-maximized="1"
     inkscape:current-layer="g15639">
    <inkscape:page
       x="0"
       y="0"
       id="page8"
       width="1219.4052"
       height="1024.5822" />
  </sodipodi:namedview>
  <g
     id="g10"
     inkscape:groupmode="layer"
     inkscape:label="Page 1"
     transform="matrix(1.3333333,0,0,1.3333333,-107.83262,-14.476115)">
    <g
       id="g12">
      <path
         style="font-variation-settings:normal;opacity:1;fill:#e8e8e8;fill-opacity:0.49928;stroke:#000000;stroke-width:1.5;stroke-linecap:butt;stroke-linejoin:miter;stroke-miterlimit:4;stroke-dasharray:1.5, 3;stroke-dashoffset:0;stroke-opacity:1;stop-color:#000000;stop-opacity:1"
         d="m 328.46931,129.43099 c -47.06527,-2.2303 -81.02895,0.89235 -109.29752,16.85367 -28.26857,15.96132 -50.83959,44.75993 -64.47136,77.76856 -13.63178,33.00863 -18.32369,70.22471 -18.94759,113.33384 -0.6239,43.10912 2.82003,92.10845 27.62716,144.50491 24.80714,52.39646 70.97495,108.18683 113.86144,148.94035 42.88648,40.75353 82.48894,66.46832 131.4,85.23071 48.91106,18.76239 107.1276,30.57177 172.3839,33.04257 65.25631,2.4708 137.5485,-4.39672 183.61706,-23.06802 46.06856,-18.67129 65.91198,-49.14525 77.42972,-78.6999 11.51774,-29.55465 14.70915,-58.18816 -28.66978,-92.99904 C 770.0234,519.52776 680.07868,478.54411 619.39333,409.59516 558.70798,340.64621 527.28989,243.73848 481.49674,191.49154 435.70359,139.24461 375.53459,131.6613 328.46931,129.43099 Z"
         id="path2875"
         inkscape:path-effect="#path-effect2877"
         inkscape:original-d="m 315.36664,124.07813 c -33.96253,3.12337 -67.9262,6.24603 -101.89143,9.368 -22.57116,28.8005 -45.14218,57.59911 -67.71438,86.39753 -4.69134,37.2183 -9.38325,74.43438 -14.07601,111.65044 3.44482,49.00203 6.88875,98.00136 10.33199,147.00091 46.17041,55.79335 92.33822,111.58372 138.5062,167.37446 39.60479,25.71657 79.20725,51.43136 118.80975,77.14591 58.21962,11.81061 116.43616,23.61999 174.65311,35.42887 72.29585,-6.86707 144.58805,-13.73456 216.88098,-20.60296 19.845,-30.47442 39.68842,-60.94838 59.53147,-91.4237 3.19236,-28.63447 6.38377,-57.26798 9.57464,-85.90398 C 770.02325,519.5281 680.07852,478.54445 590.12717,437.55737 558.70843,340.64606 527.29035,243.73833 495.87082,146.82769 435.70351,139.24525 375.53451,131.66195 315.36664,124.07813 Z"
         sodipodi:nodetypes="cccccccccccccc" />
      <g
         id="g20">
        <path
           d="m 247.812,238.832 c 0,2.414 -1.921,4.391 -4.332,4.461 -2.414,0.07 -4.445,-1.789 -4.585,-4.199 -0.141,-2.41 1.66,-4.492 4.062,-4.707 2.402,-0.211 4.539,1.527 4.824,3.922 l -4.433,0.523 z"
           style="fill:#000000;fill-opacity:1;fill-rule:nonzero;stroke:#000000;stroke-width:2.83465;stroke-linecap:butt;stroke-linejoin:miter;stroke-miterlimit:4;stroke-dasharray:none;stroke-opacity:1"
           id="path22" />
      </g>
      <g
         id="g24">
        <path
           d="m 377.145,250.059 c 0,2.41 -1.918,4.386 -4.329,4.457 -2.414,0.07 -4.445,-1.789 -4.586,-4.196 -0.14,-2.41 1.657,-4.496 4.063,-4.707 2.402,-0.211 4.539,1.524 4.82,3.922 l -4.429,0.524 z"
           style="fill:#000000;fill-opacity:1;fill-rule:nonzero;stroke:#000000;stroke-width:2.83465;stroke-linecap:butt;stroke-linejoin:miter;stroke-miterlimit:4;stroke-dasharray:none;stroke-opacity:1"
           id="path26" />
      </g>
      <g
         id="g28">
        <path
           d="m 381.398,346.441 c 0,2.411 -1.918,4.387 -4.332,4.457 -2.41,0.071 -4.441,-1.789 -4.582,-4.195 -0.144,-2.41 1.657,-4.496 4.059,-4.707 2.406,-0.211 4.543,1.524 4.824,3.922 l -4.429,0.523 z"
           style="fill:#000000;fill-opacity:1;fill-rule:nonzero;stroke:#000000;stroke-width:2.83465;stroke-linecap:butt;stroke-linejoin:miter;stroke-miterlimit:4;stroke-dasharray:none;stroke-opacity:1"
           id="path30" />
      </g>
      <g
         id="g32">
        <path
           d="m 302.023,339.352 c 0,2.414 -1.918,4.39 -4.328,4.46 -2.414,0.071 -4.445,-1.789 -4.586,-4.199 -0.14,-2.406 1.657,-4.492 4.063,-4.703 2.402,-0.215 4.539,1.524 4.82,3.918 l -4.43,0.524 z"
           style="fill:#000000;fill-opacity:1;fill-rule:nonzero;stroke:#000000;stroke-width:2.83465;stroke-linecap:butt;stroke-linejoin:miter;stroke-miterlimit:4;stroke-dasharray:none;stroke-opacity:1"
           id="path34" />
      </g>
      <g
         id="g36">
        <path
           d="m 336.043,248.641 c 0,2.41 -1.922,4.386 -4.332,4.457 -2.41,0.07 -4.441,-1.789 -4.586,-4.196 -0.141,-2.41 1.66,-4.496 4.063,-4.707 2.402,-0.211 4.539,1.524 4.824,3.922 l -4.434,0.524 z"
           style="fill:#000000;fill-opacity:1;fill-rule:nonzero;stroke:#000000;stroke-width:2.83465;stroke-linecap:butt;stroke-linejoin:miter;stroke-miterlimit:4;stroke-dasharray:none;stroke-opacity:1"
           id="path38" />
      </g>
      <g
         id="g40">
        <path
           d="m 246.746,388.961 c 0,2.414 -1.918,4.391 -4.332,4.461 -2.41,0.07 -4.441,-1.789 -4.582,-4.199 -0.144,-2.407 1.656,-4.493 4.059,-4.707 2.406,-0.211 4.543,1.527 4.824,3.922 l -4.43,0.523 z"
           style="fill:#000000;fill-opacity:1;fill-rule:nonzero;stroke:#000000;stroke-width:2.83465;stroke-linecap:butt;stroke-linejoin:miter;stroke-miterlimit:4;stroke-dasharray:none;stroke-opacity:1"
           id="path42" />
      </g>
      <g
         id="g50">
        <path
           d="m 525.547,609.586 c 0,2.414 -1.918,4.387 -4.332,4.461 -2.41,0.07 -4.442,-1.789 -4.582,-4.199 -0.145,-2.41 1.656,-4.493 4.058,-4.707 2.407,-0.211 4.543,1.527 4.825,3.921 l -4.43,0.524 z"
           style="fill:#000000;fill-opacity:1;fill-rule:nonzero;stroke:#000000;stroke-width:2.83465;stroke-linecap:butt;stroke-linejoin:miter;stroke-miterlimit:4;stroke-dasharray:none;stroke-opacity:1"
           id="path52" />
      </g>
      <g
         id="g54">
        <path
           d="m 370.059,213.203 c 0,2.414 -1.918,4.391 -4.332,4.461 -2.411,0.07 -4.442,-1.789 -4.582,-4.199 -0.141,-2.406 1.656,-4.492 4.058,-4.703 2.406,-0.215 4.543,1.523 4.824,3.922 l -4.429,0.519 z"
           style="fill:#000000;fill-opacity:1;fill-rule:nonzero;stroke:#000000;stroke-width:2.83465;stroke-linecap:butt;stroke-linejoin:miter;stroke-miterlimit:4;stroke-dasharray:none;stroke-opacity:1"
           id="path56" />
      </g>
      <g
         id="g58">
        <path
           d="m 241.074,313.84 c 0,2.414 -1.918,4.387 -4.328,4.461 -2.414,0.07 -4.445,-1.789 -4.586,-4.199 -0.14,-2.411 1.66,-4.493 4.063,-4.707 2.402,-0.211 4.539,1.527 4.824,3.921 l -4.434,0.524 z"
           style="fill:#000000;fill-opacity:1;fill-rule:nonzero;stroke:#000000;stroke-width:2.83465;stroke-linecap:butt;stroke-linejoin:miter;stroke-miterlimit:4;stroke-dasharray:none;stroke-opacity:1"
           id="path60" />
      </g>
      <g
         id="g62">
        <path
           d="m 730.078,299.664 c 0,2.414 -1.918,4.391 -4.332,4.461 -2.41,0.07 -4.441,-1.789 -4.586,-4.199 -0.14,-2.406 1.66,-4.492 4.063,-4.703 2.406,-0.215 4.543,1.523 4.824,3.922 l -4.43,0.519 z"
           style="fill:#000000;fill-opacity:1;fill-rule:nonzero;stroke:#000000;stroke-width:2.83465;stroke-linecap:butt;stroke-linejoin:miter;stroke-miterlimit:4;stroke-dasharray:none;stroke-opacity:1"
           id="path64" />
      </g>
      <g
         id="g66">
        <path
           d="m 809.453,472.586 c 0,2.414 -1.922,4.391 -4.332,4.461 -2.414,0.07 -4.445,-1.789 -4.586,-4.195 -0.14,-2.411 1.66,-4.497 4.063,-4.707 2.402,-0.215 4.539,1.523 4.824,3.921 l -4.434,0.52 z"
           style="fill:#000000;fill-opacity:1;fill-rule:nonzero;stroke:#000000;stroke-width:2.83465;stroke-linecap:butt;stroke-linejoin:miter;stroke-miterlimit:4;stroke-dasharray:none;stroke-opacity:1"
           id="path68" />
      </g>
      <g
         id="g70">
        <path
           d="m 771.184,422.98 c 0,2.411 -1.922,4.387 -4.332,4.458 -2.414,0.07 -4.446,-1.79 -4.586,-4.196 -0.141,-2.41 1.66,-4.496 4.062,-4.707 2.402,-0.211 4.539,1.524 4.824,3.922 l -4.433,0.523 z"
           style="fill:#000000;fill-opacity:1;fill-rule:nonzero;stroke:#000000;stroke-width:2.83465;stroke-linecap:butt;stroke-linejoin:miter;stroke-miterlimit:4;stroke-dasharray:none;stroke-opacity:1"
           id="path72" />
      </g>
      <g
         id="g74">
        <path
           d="m 737.164,354.945 c 0,2.41 -1.918,4.387 -4.332,4.457 -2.41,0.071 -4.441,-1.789 -4.582,-4.195 -0.145,-2.41 1.656,-4.496 4.059,-4.707 2.406,-0.211 4.543,1.523 4.824,3.922 l -4.43,0.523 z"
           style="fill:#000000;fill-opacity:1;fill-rule:nonzero;stroke:#000000;stroke-width:2.83465;stroke-linecap:butt;stroke-linejoin:miter;stroke-miterlimit:4;stroke-dasharray:none;stroke-opacity:1"
           id="path76" />
      </g>
      <g
         id="g78">
        <path
           d="m 823.625,353.527 c 0,2.414 -1.918,4.387 -4.332,4.457 -2.41,0.075 -4.441,-1.785 -4.582,-4.195 -0.141,-2.41 1.656,-4.496 4.059,-4.707 2.406,-0.211 4.542,1.527 4.824,3.922 l -4.43,0.523 z"
           style="fill:#000000;fill-opacity:1;fill-rule:nonzero;stroke:#000000;stroke-width:2.83465;stroke-linecap:butt;stroke-linejoin:miter;stroke-miterlimit:4;stroke-dasharray:none;stroke-opacity:1"
           id="path80" />
      </g>
      <g
         id="g82">
        <path
           d="m 871.816,485.344 c 0,2.414 -1.918,4.39 -4.332,4.461 -2.41,0.07 -4.441,-1.789 -4.582,-4.2 -0.14,-2.406 1.657,-4.492 4.059,-4.707 2.406,-0.21 4.543,1.528 4.824,3.922 l -4.43,0.524 z"
           style="fill:#000000;fill-opacity:1;fill-rule:nonzero;stroke:#000000;stroke-width:2.83465;stroke-linecap:butt;stroke-linejoin:miter;stroke-miterlimit:4;stroke-dasharray:none;stroke-opacity:1"
           id="path84" />
      </g>
      <g
         id="g86">
        <path
           d="m 741.418,380.457 c 0,2.414 -1.922,4.391 -4.332,4.461 -2.41,0.07 -4.441,-1.789 -4.586,-4.199 -0.141,-2.41 1.66,-4.492 4.062,-4.707 2.403,-0.211 4.54,1.527 4.825,3.922 l -4.434,0.523 z"
           style="fill:#000000;fill-opacity:1;fill-rule:nonzero;stroke:#000000;stroke-width:2.83465;stroke-linecap:butt;stroke-linejoin:miter;stroke-miterlimit:4;stroke-dasharray:none;stroke-opacity:1"
           id="path88" />
      </g>
      <g
         id="g90">
        <path
           d="m 769.766,312.422 c 0,2.414 -1.918,4.39 -4.332,4.461 -2.411,0.07 -4.442,-1.789 -4.586,-4.199 -0.141,-2.411 1.66,-4.493 4.062,-4.707 2.402,-0.211 4.539,1.527 4.824,3.921 l -4.429,0.524 z"
           style="fill:#000000;fill-opacity:1;fill-rule:nonzero;stroke:#000000;stroke-width:2.83465;stroke-linecap:butt;stroke-linejoin:miter;stroke-miterlimit:4;stroke-dasharray:none;stroke-opacity:1"
           id="path92" />
      </g>
      <g
         id="g94">
        <path
           d="m 789.609,360.613 c 0,2.414 -1.921,4.391 -4.332,4.461 -2.41,0.071 -4.441,-1.789 -4.586,-4.199 -0.14,-2.41 1.661,-4.492 4.063,-4.707 2.402,-0.211 4.539,1.527 4.824,3.922 l -4.433,0.523 z"
           style="fill:#000000;fill-opacity:1;fill-rule:nonzero;stroke:#000000;stroke-width:2.83465;stroke-linecap:butt;stroke-linejoin:miter;stroke-miterlimit:4;stroke-dasharray:none;stroke-opacity:1"
           id="path96" />
      </g>
      <g
         id="g98">
        <path
           d="m 806.617,424.395 c 0,2.414 -1.918,4.39 -4.332,4.46 -2.41,0.071 -4.441,-1.789 -4.582,-4.195 -0.144,-2.41 1.656,-4.496 4.059,-4.707 2.406,-0.215 4.543,1.524 4.824,3.922 l -4.43,0.52 z"
           style="fill:#000000;fill-opacity:1;fill-rule:nonzero;stroke:#000000;stroke-width:2.83465;stroke-linecap:butt;stroke-linejoin:miter;stroke-miterlimit:4;stroke-dasharray:none;stroke-opacity:1"
           id="path100" />
      </g>
      <g
         id="g102">
        <path
           d="m 792.441,481.094 c 0,2.41 -1.918,4.386 -4.328,4.457 -2.414,0.07 -4.445,-1.789 -4.586,-4.196 -0.14,-2.41 1.657,-4.496 4.063,-4.707 2.402,-0.21 4.539,1.524 4.82,3.922 l -4.43,0.524 z"
           style="fill:#000000;fill-opacity:1;fill-rule:nonzero;stroke:#000000;stroke-width:2.83465;stroke-linecap:butt;stroke-linejoin:miter;stroke-miterlimit:4;stroke-dasharray:none;stroke-opacity:1"
           id="path104" />
      </g>
      <g
         id="g106">
        <path
           d="m 832.129,432.902 c 0,2.41 -1.918,4.387 -4.328,4.457 -2.414,0.071 -4.446,-1.789 -4.586,-4.195 -0.141,-2.41 1.656,-4.496 4.062,-4.707 2.403,-0.211 4.539,1.523 4.821,3.922 l -4.43,0.523 z"
           style="fill:#000000;fill-opacity:1;fill-rule:nonzero;stroke:#000000;stroke-width:2.83465;stroke-linecap:butt;stroke-linejoin:miter;stroke-miterlimit:4;stroke-dasharray:none;stroke-opacity:1"
           id="path108" />
      </g>
      <g
         id="g110">
        <path
           d="m 529.285,399.035 c 0,2.414 -1.918,4.391 -4.328,4.461 -2.414,0.07 -4.445,-1.789 -4.586,-4.199 -0.141,-2.406 1.66,-4.492 4.063,-4.703 2.402,-0.215 4.539,1.523 4.824,3.922 l -4.434,0.519 z"
           style="fill:#000000;fill-opacity:1;fill-rule:nonzero;stroke:#000000;stroke-width:2.83465;stroke-linecap:butt;stroke-linejoin:miter;stroke-miterlimit:4;stroke-dasharray:none;stroke-opacity:1"
           id="path112" />
      </g>
      <g
         id="g114">
        <path
           d="m 512.91,441.934 c 0,2.414 -1.918,4.39 -4.332,4.461 -2.41,0.07 -4.441,-1.79 -4.586,-4.2 -0.14,-2.406 1.66,-4.492 4.063,-4.703 2.402,-0.215 4.539,1.524 4.824,3.922 l -4.43,0.52 z"
           style="fill:#000000;fill-opacity:1;fill-rule:nonzero;stroke:#000000;stroke-width:2.83465;stroke-linecap:butt;stroke-linejoin:miter;stroke-miterlimit:4;stroke-dasharray:none;stroke-opacity:1"
           id="path116" />
      </g>
      <g
         id="g118">
        <path
           d="m 450.852,459.832 c 0,2.414 -1.918,4.387 -4.332,4.457 -2.411,0.074 -4.442,-1.789 -4.586,-4.195 -0.141,-2.41 1.66,-4.496 4.062,-4.707 2.402,-0.211 4.539,1.527 4.824,3.922 l -4.429,0.523 z"
           style="fill:#000000;fill-opacity:1;fill-rule:nonzero;stroke:#000000;stroke-width:2.83465;stroke-linecap:butt;stroke-linejoin:miter;stroke-miterlimit:4;stroke-dasharray:none;stroke-opacity:1"
           id="path120" />
      </g>
      <g
         id="g122">
        <path
           d="m 517.469,343.605 c 0,2.415 -1.918,4.387 -4.332,4.457 -2.41,0.075 -4.442,-1.785 -4.586,-4.195 -0.141,-2.41 1.66,-4.496 4.062,-4.707 2.407,-0.211 4.543,1.528 4.825,3.922 l -4.43,0.523 z"
           style="fill:#000000;fill-opacity:1;fill-rule:nonzero;stroke:#000000;stroke-width:2.83465;stroke-linecap:butt;stroke-linejoin:miter;stroke-miterlimit:4;stroke-dasharray:none;stroke-opacity:1"
           id="path124" />
      </g>
      <g
         id="g126">
        <path
           d="m 615.27,553.379 c 0,2.414 -1.918,4.391 -4.332,4.461 -2.411,0.07 -4.442,-1.789 -4.586,-4.199 -0.141,-2.411 1.66,-4.493 4.062,-4.707 2.402,-0.211 4.539,1.527 4.824,3.921 l -4.429,0.524 z"
           style="fill:#000000;fill-opacity:1;fill-rule:nonzero;stroke:#000000;stroke-width:2.83465;stroke-linecap:butt;stroke-linejoin:miter;stroke-miterlimit:4;stroke-dasharray:none;stroke-opacity:1"
           id="path128" />
      </g>
      <g
         id="g130">
        <path
           d="m 751.34,617.164 c 0,2.41 -1.922,4.387 -4.332,4.457 -2.414,0.07 -4.442,-1.789 -4.586,-4.195 -0.141,-2.41 1.66,-4.496 4.062,-4.707 2.403,-0.215 4.539,1.523 4.825,3.922 l -4.434,0.523 z"
           style="fill:#000000;fill-opacity:1;fill-rule:nonzero;stroke:#000000;stroke-width:2.83465;stroke-linecap:butt;stroke-linejoin:miter;stroke-miterlimit:4;stroke-dasharray:none;stroke-opacity:1"
           id="path132" />
      </g>
      <g
         id="g134">
        <path
           d="m 656.371,639.84 c 0,2.414 -1.918,4.39 -4.328,4.461 -2.414,0.07 -4.445,-1.789 -4.586,-4.199 -0.141,-2.407 1.656,-4.493 4.063,-4.707 2.402,-0.211 4.539,1.527 4.824,3.921 l -4.434,0.524 z"
           style="fill:#000000;fill-opacity:1;fill-rule:nonzero;stroke:#000000;stroke-width:2.83465;stroke-linecap:butt;stroke-linejoin:miter;stroke-miterlimit:4;stroke-dasharray:none;stroke-opacity:1"
           id="path136" />
      </g>
      <g
         id="g138">
        <path
           d="m 642.223,642.547 c 0,2.414 -1.918,4.391 -4.328,4.461 -2.415,0.07 -4.446,-1.789 -4.586,-4.199 -0.141,-2.411 1.656,-4.493 4.062,-4.707 2.402,-0.211 4.539,1.527 4.82,3.921 l -4.429,0.524 z"
           style="fill:#000000;fill-opacity:1;fill-rule:nonzero;stroke:#000000;stroke-width:2.83465;stroke-linecap:butt;stroke-linejoin:miter;stroke-miterlimit:4;stroke-dasharray:none;stroke-opacity:1"
           id="path140" />
      </g>
      <g
         id="g142">
        <path
           d="m 697.477,654.016 c 0,2.41 -1.918,4.386 -4.329,4.457 -2.414,0.07 -4.445,-1.789 -4.586,-4.196 -0.14,-2.41 1.657,-4.496 4.063,-4.707 2.402,-0.211 4.539,1.524 4.82,3.922 l -4.429,0.524 z"
           style="fill:#000000;fill-opacity:1;fill-rule:nonzero;stroke:#000000;stroke-width:2.83465;stroke-linecap:butt;stroke-linejoin:miter;stroke-miterlimit:4;stroke-dasharray:none;stroke-opacity:1"
           id="path144" />
      </g>
      <g
         id="g146">
        <path
           d="m 664.879,583.145 c 0,2.414 -1.922,4.39 -4.332,4.46 -2.414,0.071 -4.445,-1.789 -4.586,-4.199 -0.141,-2.41 1.66,-4.492 4.062,-4.707 2.403,-0.211 4.539,1.528 4.825,3.922 l -4.434,0.524 z"
           style="fill:#000000;fill-opacity:1;fill-rule:nonzero;stroke:#000000;stroke-width:2.83465;stroke-linecap:butt;stroke-linejoin:miter;stroke-miterlimit:4;stroke-dasharray:none;stroke-opacity:1"
           id="path148" />
      </g>
      <g
         id="g150">
        <path
           d="m 792.09,610.012 c 0,2.414 -1.918,4.39 -4.328,4.461 -2.414,0.07 -4.446,-1.789 -4.586,-4.2 -0.141,-2.406 1.656,-4.492 4.062,-4.703 2.403,-0.215 4.539,1.524 4.821,3.922 l -4.43,0.52 z"
           style="fill:#000000;fill-opacity:1;fill-rule:nonzero;stroke:#000000;stroke-width:2.83465;stroke-linecap:butt;stroke-linejoin:miter;stroke-miterlimit:4;stroke-dasharray:none;stroke-opacity:1"
           id="path152" />
      </g>
      <g
         id="g154">
        <path
           d="m 704.562,618.578 c 0,2.414 -1.917,4.391 -4.328,4.461 -2.414,0.07 -4.445,-1.789 -4.586,-4.199 -0.14,-2.406 1.657,-4.492 4.063,-4.703 2.402,-0.215 4.539,1.523 4.824,3.922 l -4.433,0.519 z"
           style="fill:#000000;fill-opacity:1;fill-rule:nonzero;stroke:#000000;stroke-width:2.83465;stroke-linecap:butt;stroke-linejoin:miter;stroke-miterlimit:4;stroke-dasharray:none;stroke-opacity:1"
           id="path156" />
      </g>
      <g
         id="g158">
        <path
           d="m 620.938,617.164 c 0,2.41 -1.918,4.387 -4.333,4.457 -2.41,0.07 -4.441,-1.789 -4.582,-4.195 -0.14,-2.41 1.657,-4.496 4.059,-4.707 2.406,-0.215 4.543,1.523 4.824,3.922 l -4.429,0.523 z"
           style="fill:#000000;fill-opacity:1;fill-rule:nonzero;stroke:#000000;stroke-width:2.83465;stroke-linecap:butt;stroke-linejoin:miter;stroke-miterlimit:4;stroke-dasharray:none;stroke-opacity:1"
           id="path160" />
      </g>
      <g
         id="g162">
        <path
           d="m 321.867,315.258 c 0,2.414 -1.918,4.387 -4.332,4.457 -2.41,0.074 -4.441,-1.789 -4.582,-4.195 -0.141,-2.411 1.656,-4.497 4.059,-4.708 2.406,-0.21 4.543,1.528 4.824,3.922 l -4.43,0.524 z"
           style="fill:#000000;fill-opacity:1;fill-rule:nonzero;stroke:#000000;stroke-width:2.83465;stroke-linecap:butt;stroke-linejoin:miter;stroke-miterlimit:4;stroke-dasharray:none;stroke-opacity:1"
           id="path164" />
      </g>
      <g
         id="g166">
        <path
           d="m 290.684,278.406 c 0,2.41 -1.918,4.387 -4.329,4.457 -2.414,0.071 -4.445,-1.789 -4.585,-4.195 -0.141,-2.41 1.656,-4.496 4.062,-4.707 2.402,-0.211 4.539,1.523 4.82,3.922 l -4.429,0.523 z"
           style="fill:#000000;fill-opacity:1;fill-rule:nonzero;stroke:#000000;stroke-width:2.83465;stroke-linecap:butt;stroke-linejoin:miter;stroke-miterlimit:4;stroke-dasharray:none;stroke-opacity:1"
           id="path168" />
      </g>
      <g
         id="g170">
        <path
           d="m 664.879,293.996 c 0,2.414 -1.922,4.391 -4.332,4.461 -2.414,0.07 -4.445,-1.789 -4.586,-4.199 -0.141,-2.41 1.66,-4.492 4.062,-4.707 2.403,-0.211 4.539,1.527 4.825,3.922 l -4.434,0.523 z"
           style="fill:#000000;fill-opacity:1;fill-rule:nonzero;stroke:#000000;stroke-width:2.83465;stroke-linecap:butt;stroke-linejoin:miter;stroke-miterlimit:4;stroke-dasharray:none;stroke-opacity:1"
           id="path172" />
      </g>
      <g
         id="g174">
        <path
           d="m 659.207,615.746 c 0,2.41 -1.918,4.387 -4.328,4.457 -2.414,0.07 -4.445,-1.789 -4.586,-4.195 -0.141,-2.41 1.656,-4.496 4.062,-4.707 2.403,-0.211 4.54,1.523 4.821,3.922 l -4.43,0.523 z"
           style="fill:#000000;fill-opacity:1;fill-rule:nonzero;stroke:#000000;stroke-width:2.83465;stroke-linecap:butt;stroke-linejoin:miter;stroke-miterlimit:4;stroke-dasharray:none;stroke-opacity:1"
           id="path176" />
      </g>
      <path
         d="m 373.75987,190.95651 c 45.6482,-90.48666 529.08507,-23.73717 411.5249,90.9495"
         style="font-variation-settings:normal;opacity:1;vector-effect:none;fill:none;fill-opacity:1;stroke:#000000;stroke-width:2.83465;stroke-linecap:butt;stroke-linejoin:miter;stroke-miterlimit:4;stroke-dasharray:0.283465, 0.283465;stroke-dashoffset:0;stroke-opacity:1;-inkscape-stroke:none;marker-start:url(#Cap4);marker-end:url(#marker8675);stop-color:#000000;stop-opacity:1"
         id="path192"
         sodipodi:nodetypes="cc" />
      <g
         id="g198"
         style="font-variation-settings:normal;opacity:1;vector-effect:none;fill:none;fill-opacity:1;stroke:#000000;stroke-width:2.83465;stroke-linecap:butt;stroke-linejoin:miter;stroke-miterlimit:4;stroke-dasharray:0.283465,0.283465;stroke-dashoffset:0;stroke-opacity:1;-inkscape-stroke:none;marker-end:url(#marker8675);stop-color:#000000;stop-opacity:1;marker-start:url(#Cap4)">
        <path
           d="M 620.58642,530.59687 C 622.83527,485.41633 451.25316,129.27553 770.8844,284.14817"
           style="font-variation-settings:normal;vector-effect:none;fill:none;fill-opacity:1;stroke:#000000;stroke-width:2.83465;stroke-linecap:butt;stroke-linejoin:miter;stroke-miterlimit:4;stroke-dasharray:0.283465, 0.283465;stroke-dashoffset:0;stroke-opacity:1;-inkscape-stroke:none;marker-start:url(#Cap4);marker-end:url(#marker8675);stop-color:#000000;stop-opacity:1"
           id="path200"
           sodipodi:nodetypes="cc" />
      </g>
      <g
         id="g212">
        <path
           d="M 243.348,238.832 357.422,214.973"
           style="fill:none;stroke:#000000;stroke-width:1.41732;stroke-linecap:butt;stroke-linejoin:miter;stroke-miterlimit:4;stroke-dasharray:2.83465, 1.41732;stroke-dashoffset:0;stroke-opacity:1"
           id="path214" />
      </g>
      <g
         id="g216"
         transform="matrix(-1,0.209157,-0.209157,-1,-1.925e-6,1.3380001e-6)">
        <path
           d="m -284.529,-271.429 -16.675,-6.133 16.674,-6.133 c -2.664,3.622 -2.649,8.575 10e-4,12.266 z"
           style="fill:#000000;fill-opacity:1;fill-rule:evenodd;stroke:#000000;stroke-width:0.953771;stroke-linecap:butt;stroke-linejoin:round;stroke-miterlimit:4;stroke-dasharray:none;stroke-opacity:1"
           id="path218" />
      </g>
      <g
         id="g220">
        <path
           d="m 297.562,339.352 70.704,6.453"
           style="fill:none;stroke:#000000;stroke-width:1.41732;stroke-linecap:butt;stroke-linejoin:miter;stroke-miterlimit:4;stroke-dasharray:2.83465, 1.41732;stroke-dashoffset:0;stroke-opacity:1"
           id="path222" />
      </g>
      <g
         id="g224"
         transform="matrix(-1,-0.0912553,0.0912553,-1,-1.66445e-6,5.17755e-6)">
        <path
           d="m -381.429,-303.357 -16.964,-6.237 16.962,-6.239 c -2.707,3.681 -2.692,8.722 0.002,12.476 z"
           style="fill:#000000;fill-opacity:1;fill-rule:evenodd;stroke:#000000;stroke-width:0.970377;stroke-linecap:butt;stroke-linejoin:round;stroke-miterlimit:4;stroke-dasharray:none;stroke-opacity:1"
           id="path226" />
      </g>
      <g
         id="g228">
        <path
           d="m 242.285,388.961 -4.699,-66.949"
           style="fill:none;stroke:#000000;stroke-width:1.41732;stroke-linecap:butt;stroke-linejoin:miter;stroke-miterlimit:4;stroke-dasharray:2.83465, 1.41732;stroke-dashoffset:0;stroke-opacity:1"
           id="path230" />
      </g>
      <g
         id="g232"
         transform="matrix(0.070182,1,-1,0.070182,9.2300006e-7,7.753e-6)">
        <path
           d="m 352.14,-207.657 -16.991,-6.251 16.993,-6.249 c -2.716,3.692 -2.699,8.736 -0.002,12.5 z"
           style="fill:#000000;fill-opacity:1;fill-rule:evenodd;stroke:#000000;stroke-width:0.972019;stroke-linecap:butt;stroke-linejoin:round;stroke-miterlimit:4;stroke-dasharray:none;stroke-opacity:1"
           id="path234" />
      </g>
      <g
         id="g236">
        <path
           d="M 450.82,459.309 500.359,443.98"
           style="fill:none;stroke:#000000;stroke-width:1.41732;stroke-linecap:butt;stroke-linejoin:miter;stroke-miterlimit:4;stroke-dasharray:2.83465, 1.41732;stroke-dashoffset:0;stroke-opacity:1"
           id="path238" />
      </g>
      <g
         id="g240"
         transform="matrix(-1,0.309421,-0.309421,-1,0,0)">
        <path
           d="m -316.794,-540.472 -16.273,-5.984 16.273,-5.985 c -2.6,3.532 -2.584,8.365 0,11.969 z"
           style="fill:#000000;fill-opacity:1;fill-rule:evenodd;stroke:#000000;stroke-width:0.930867;stroke-linecap:butt;stroke-linejoin:round;stroke-miterlimit:4;stroke-dasharray:none;stroke-opacity:1"
           id="path242" />
      </g>
      <g
         id="g244">
        <path
           d="m 524.824,399.035 -7.929,-50.473"
           style="fill:none;stroke:#000000;stroke-width:1.41732;stroke-linecap:butt;stroke-linejoin:miter;stroke-miterlimit:4;stroke-dasharray:2.83465, 1.41732;stroke-dashoffset:0;stroke-opacity:1"
           id="path246" />
      </g>
      <g
         id="g248"
         transform="matrix(0.157152,1,-1,0.157152,0,0)">
        <path
           d="m 434.404,-444.764 -16.828,-6.191 16.828,-6.188 c -2.692,3.656 -2.673,8.655 0,12.379 z"
           style="fill:#000000;fill-opacity:1;fill-rule:evenodd;stroke:#000000;stroke-width:0.962595;stroke-linecap:butt;stroke-linejoin:round;stroke-miterlimit:4;stroke-dasharray:none;stroke-opacity:1"
           id="path250" />
      </g>
      <g
         id="g252">
        <path
           d="m 512.879,441.414 11.152,-35.418"
           style="fill:none;stroke:#000000;stroke-width:1.41732;stroke-linecap:butt;stroke-linejoin:miter;stroke-miterlimit:4;stroke-dasharray:2.83465, 1.41732;stroke-dashoffset:0;stroke-opacity:1"
           id="path254" />
      </g>
      <g
         id="g256"
         transform="matrix(-0.314884,1,-1,-0.314884,0,0)">
        <path
           d="m 233.704,-587.07 -16.248,-5.974 16.247,-5.975 c -2.596,3.528 -2.581,8.352 0.001,11.949 z"
           style="fill:#000000;fill-opacity:1;fill-rule:evenodd;stroke:#000000;stroke-width:0.929421;stroke-linecap:butt;stroke-linejoin:round;stroke-miterlimit:4;stroke-dasharray:none;stroke-opacity:1"
           id="path258" />
      </g>
      <g
         id="g260">
        <path
           d="m 376.938,346.441 -134.653,42.52"
           style="fill:none;stroke:#000000;stroke-width:1.41732;stroke-linecap:butt;stroke-linejoin:miter;stroke-miterlimit:4;stroke-dasharray:2.83465, 1.41732;stroke-dashoffset:0;stroke-opacity:1"
           id="path262" />
      </g>
      <g
         id="g264"
         transform="matrix(1,-0.315789,0.315789,1,-4.5215e-6,1.5165e-6)">
        <path
           d="m 123.07,429.259 -16.243,-5.973 16.245,-5.972 c -2.598,3.527 -2.583,8.352 -0.002,11.945 z"
           style="fill:#000000;fill-opacity:1;fill-rule:evenodd;stroke:#000000;stroke-width:0.92918;stroke-linecap:butt;stroke-linejoin:round;stroke-miterlimit:4;stroke-dasharray:none;stroke-opacity:1"
           id="path266" />
      </g>
      <g
         id="g268">
        <path
           d="m 372.684,250.059 -32.922,-1.297"
           style="fill:none;stroke:#000000;stroke-width:1.41732;stroke-linecap:butt;stroke-linejoin:miter;stroke-miterlimit:4;stroke-dasharray:2.83465, 1.41732;stroke-dashoffset:0;stroke-opacity:1"
           id="path270" />
      </g>
      <g
         id="g272"
         transform="matrix(1,0.0392932,-0.0392932,1,1.8219998e-7,2.2454e-6)">
        <path
           d="m 364.139,241.332 -17.023,-6.256 17.019,-6.259 c -2.718,3.693 -2.703,8.751 0.004,12.515 z"
           style="fill:#000000;fill-opacity:1;fill-rule:evenodd;stroke:#000000;stroke-width:0.973658;stroke-linecap:butt;stroke-linejoin:round;stroke-miterlimit:4;stroke-dasharray:none;stroke-opacity:1"
           id="path274" />
      </g>
      <g
         id="g276">
        <path
           d="m 365.598,213.203 5.343,29.145"
           style="fill:none;stroke:#000000;stroke-width:1.41732;stroke-linecap:butt;stroke-linejoin:miter;stroke-miterlimit:4;stroke-dasharray:2.83465, 1.41732;stroke-dashoffset:0;stroke-opacity:1"
           id="path278" />
      </g>
      <g
         id="g280"
         transform="matrix(-0.183305,-1,1,-0.183305,-4.8425e-6,-1.9625e-6)">
        <path
           d="m -285.349,322.089 -16.757,-6.162 16.754,-6.163 c -2.674,3.639 -2.66,8.614 0.003,12.325 z"
           style="fill:#000000;fill-opacity:1;fill-rule:evenodd;stroke:#000000;stroke-width:0.95844;stroke-linecap:butt;stroke-linejoin:round;stroke-miterlimit:4;stroke-dasharray:none;stroke-opacity:1"
           id="path282" />
      </g>
      <g
         id="g284">
        <path
           d="M 331.578,248.641 292.84,274.004"
           style="fill:none;stroke:#000000;stroke-width:1.41732;stroke-linecap:butt;stroke-linejoin:miter;stroke-miterlimit:4;stroke-dasharray:2.83465, 1.41732;stroke-dashoffset:0;stroke-opacity:1"
           id="path286" />
      </g>
      <g
         id="g288"
         transform="matrix(1,-0.654739,0.654739,1,-3.9455e-6,-2.1505e-6)">
        <path
           d="m 92.078,331.252 -14.25,-5.24 14.249,-5.241 c -2.277,3.095 -2.263,7.327 0.001,10.481 z"
           style="fill:#000000;fill-opacity:1;fill-rule:evenodd;stroke:#000000;stroke-width:0.815218;stroke-linecap:butt;stroke-linejoin:round;stroke-miterlimit:4;stroke-dasharray:none;stroke-opacity:1"
           id="path290" />
      </g>
      <g
         id="g292">
        <path
           d="m 286.223,278.406 25.789,30.727"
           style="fill:none;stroke:#000000;stroke-width:1.41732;stroke-linecap:butt;stroke-linejoin:miter;stroke-miterlimit:4;stroke-dasharray:2.83465, 1.41732;stroke-dashoffset:0;stroke-opacity:1"
           id="path294" />
      </g>
      <g
         id="g296"
         transform="matrix(-0.839337,-1,1,-0.839337,5.0450004e-7,-2.1545e-6)">
        <path
           d="m -323.403,35.646 -13.047,-4.799 13.05,-4.797 c -2.085,2.833 -2.075,6.708 -0.003,9.596 z"
           style="fill:#000000;fill-opacity:1;fill-rule:evenodd;stroke:#000000;stroke-width:0.746354;stroke-linecap:butt;stroke-linejoin:round;stroke-miterlimit:4;stroke-dasharray:none;stroke-opacity:1"
           id="path298" />
      </g>
      <g
         id="g300">
        <path
           d="m 317.406,315.258 -15.14,17.832"
           style="fill:none;stroke:#000000;stroke-width:1.41732;stroke-linecap:butt;stroke-linejoin:miter;stroke-miterlimit:4;stroke-dasharray:2.83465, 1.41732;stroke-dashoffset:0;stroke-opacity:1"
           id="path302" />
      </g>
      <g
         id="g304"
         transform="matrix(0.848981,-1,1,0.848981,8.6700005e-7,6.3599995e-7)">
        <path
           d="m -32.889,344.79 -12.985,-4.777 12.985,-4.775 c -2.075,2.82 -2.062,6.677 0,9.552 z"
           style="fill:#000000;fill-opacity:1;fill-rule:evenodd;stroke:#000000;stroke-width:0.742814;stroke-linecap:butt;stroke-linejoin:round;stroke-miterlimit:4;stroke-dasharray:none;stroke-opacity:1"
           id="path306" />
      </g>
      <g
         id="g308">
        <path
           d="m 778.719,287.953 -106.934,5.52"
           style="fill:none;stroke:#000000;stroke-width:0.850394;stroke-linecap:butt;stroke-linejoin:miter;stroke-miterlimit:4;stroke-dasharray:0.212598, 0.212598;stroke-dashoffset:0;stroke-opacity:1"
           id="path310" />
      </g>
      <g
         id="g312"
         transform="matrix(-1,0.0516372,-0.0516372,-1,0,0)">
        <path
           d="m -650.963,-327.29 -5.878,3.396 0.003,-6.793 z"
           style="fill:#000000;fill-opacity:1;fill-rule:evenodd;stroke:#000000;stroke-width:0.90588;stroke-linecap:butt;stroke-linejoin:miter;stroke-miterlimit:4;stroke-dasharray:none;stroke-opacity:1"
           id="path314" />
      </g>
      <g
         id="g316">
        <path
           d="M 778.719,287.953 769.34,302.09"
           style="fill:none;stroke:#000000;stroke-width:0.850394;stroke-linecap:butt;stroke-linejoin:miter;stroke-miterlimit:4;stroke-dasharray:0.212598, 0.212598;stroke-dashoffset:0;stroke-opacity:1"
           id="path318" />
      </g>
      <g
         id="g320"
         transform="matrix(-0.663217,1,-1,-0.663217,0,0)">
        <path
           d="m -141.291,-673.466 -4.905,2.836 0.002,-5.67 z"
           style="fill:#000000;fill-opacity:1;fill-rule:evenodd;stroke:#000000;stroke-width:0.755943;stroke-linecap:butt;stroke-linejoin:miter;stroke-miterlimit:4;stroke-dasharray:none;stroke-opacity:1"
           id="path322" />
      </g>
      <g
         id="g324">
        <path
           d="m 778.719,287.953 -48.672,11.192"
           style="fill:none;stroke:#000000;stroke-width:0.850394;stroke-linecap:butt;stroke-linejoin:miter;stroke-miterlimit:4;stroke-dasharray:0.212598, 0.212598;stroke-dashoffset:0;stroke-opacity:1"
           id="path326" />
      </g>
      <g
         id="g328"
         transform="matrix(-1,0.229939,-0.229939,-1,0,0)">
        <path
           d="m -624.232,-443.558 -5.734,3.314 10e-4,-6.629 z"
           style="fill:#000000;fill-opacity:1;fill-rule:evenodd;stroke:#000000;stroke-width:0.884018;stroke-linecap:butt;stroke-linejoin:miter;stroke-miterlimit:4;stroke-dasharray:none;stroke-opacity:1"
           id="path330" />
      </g>
      <g
         id="g332">
        <path
           d="m 778.719,287.953 33.926,59.598"
           style="fill:none;stroke:#000000;stroke-width:0.850394;stroke-linecap:butt;stroke-linejoin:miter;stroke-miterlimit:4;stroke-dasharray:0.212598, 0.212598;stroke-dashoffset:0;stroke-opacity:1"
           id="path334" />
      </g>
      <g
         id="g336"
         transform="matrix(0.569254,1,-1,0.569254,0,0)">
        <path
           d="m 615.287,-464.331 -5.115,2.955 0.002,-5.913 z"
           style="fill:#000000;fill-opacity:1;fill-rule:evenodd;stroke:#000000;stroke-width:0.788309;stroke-linecap:butt;stroke-linejoin:miter;stroke-miterlimit:4;stroke-dasharray:none;stroke-opacity:1"
           id="path338" />
      </g>
      <g
         id="g340">
        <path
           d="m 778.719,287.953 7.316,62.203"
           style="fill:none;stroke:#000000;stroke-width:0.850394;stroke-linecap:butt;stroke-linejoin:miter;stroke-miterlimit:4;stroke-dasharray:0.212598, 0.212598;stroke-dashoffset:0;stroke-opacity:1"
           id="path342" />
      </g>
      <g
         id="g344"
         transform="matrix(0.117642,1,-1,0.117642,0,0)">
        <path
           d="m 440.483,-734.673 -5.846,3.375 0.002,-6.754 z"
           style="fill:#000000;fill-opacity:1;fill-rule:evenodd;stroke:#000000;stroke-width:0.900874;stroke-linecap:butt;stroke-linejoin:miter;stroke-miterlimit:4;stroke-dasharray:none;stroke-opacity:1"
           id="path346" />
      </g>
      <g
         id="g348">
        <path
           d="m 778.719,287.953 -41.117,58.18"
           style="fill:none;stroke:#000000;stroke-width:0.850394;stroke-linecap:butt;stroke-linejoin:miter;stroke-miterlimit:4;stroke-dasharray:0.212598, 0.212598;stroke-dashoffset:0;stroke-opacity:1"
           id="path350" />
      </g>
      <g
         id="g352"
         transform="matrix(-0.706677,1,-1,-0.706677,0,0)">
        <path
           d="m -113.583,-655.07 -4.807,2.777 v -5.555 z"
           style="fill:#000000;fill-opacity:1;fill-rule:evenodd;stroke:#000000;stroke-width:0.740783;stroke-linecap:butt;stroke-linejoin:miter;stroke-miterlimit:4;stroke-dasharray:none;stroke-opacity:1"
           id="path354" />
      </g>
      <g
         id="g356">
        <path
           d="m 778.719,287.953 19.133,126.77"
           style="fill:none;stroke:#000000;stroke-width:0.850394;stroke-linecap:butt;stroke-linejoin:miter;stroke-miterlimit:4;stroke-dasharray:0.212598, 0.212598;stroke-dashoffset:0;stroke-opacity:1"
           id="path358" />
      </g>
      <g
         id="g360"
         transform="matrix(0.150919,1,-1,0.150919,0,0)">
        <path
           d="m 527.099,-718.885 -5.82,3.36 v -6.726 z"
           style="fill:#000000;fill-opacity:1;fill-rule:evenodd;stroke:#000000;stroke-width:0.89693;stroke-linecap:butt;stroke-linejoin:miter;stroke-miterlimit:4;stroke-dasharray:none;stroke-opacity:1"
           id="path362" />
      </g>
      <g
         id="g364">
        <path
           d="M 778.719,287.953 767.547,412.59"
           style="fill:none;stroke:#000000;stroke-width:0.850394;stroke-linecap:butt;stroke-linejoin:miter;stroke-miterlimit:4;stroke-dasharray:0.212598, 0.212598;stroke-dashoffset:0;stroke-opacity:1"
           id="path366" />
      </g>
      <g
         id="g368"
         transform="matrix(-0.0896259,1,-1,-0.0896259,0,0)">
        <path
           d="m 344.968,-798.113 -5.86,3.388 -0.002,-6.777 z"
           style="fill:#000000;fill-opacity:1;fill-rule:evenodd;stroke:#000000;stroke-width:0.903465;stroke-linecap:butt;stroke-linejoin:miter;stroke-miterlimit:4;stroke-dasharray:none;stroke-opacity:1"
           id="path370" />
      </g>
      <g
         id="g372">
        <path
           d="m 778.719,287.953 47.926,133.934"
           style="fill:none;stroke:#000000;stroke-width:0.850394;stroke-linecap:butt;stroke-linejoin:miter;stroke-miterlimit:4;stroke-dasharray:0.212598, 0.212598;stroke-dashoffset:0;stroke-opacity:1"
           id="path374" />
      </g>
      <g
         id="g376"
         transform="matrix(0.357834,1,-1,0.357834,0,0)">
        <path
           d="m 639.918,-598.98 -5.54,3.201 -0.001,-6.406 z"
           style="fill:#000000;fill-opacity:1;fill-rule:evenodd;stroke:#000000;stroke-width:0.854054;stroke-linecap:butt;stroke-linejoin:miter;stroke-miterlimit:4;stroke-dasharray:none;stroke-opacity:1"
           id="path378" />
      </g>
      <g
         id="g380">
        <path
           d="m 778.719,287.953 8.816,182.485"
           style="fill:none;stroke:#000000;stroke-width:0.850394;stroke-linecap:butt;stroke-linejoin:miter;stroke-miterlimit:4;stroke-dasharray:0.212598, 0.212598;stroke-dashoffset:0;stroke-opacity:1"
           id="path382" />
      </g>
      <g
         id="g384"
         transform="matrix(0.0483173,1,-1,0.0483173,0,0)">
        <path
           d="m 511.223,-763.022 -5.875,3.396 v -6.793 z"
           style="fill:#000000;fill-opacity:1;fill-rule:evenodd;stroke:#000000;stroke-width:0.90603;stroke-linecap:butt;stroke-linejoin:miter;stroke-miterlimit:4;stroke-dasharray:none;stroke-opacity:1"
           id="path386" />
      </g>
      <g
         id="g388">
        <path
           d="m 778.719,287.953 -38.821,82.875"
           style="fill:none;stroke:#000000;stroke-width:0.850394;stroke-linecap:butt;stroke-linejoin:miter;stroke-miterlimit:4;stroke-dasharray:0.212598, 0.212598;stroke-dashoffset:0;stroke-opacity:1"
           id="path390" />
      </g>
      <g
         id="g392"
         transform="matrix(-0.468395,1,-1,-0.468395,0,0)">
        <path
           d="m 23.455,-749.221 -5.329,3.083 10e-4,-6.161 z"
           style="fill:#000000;fill-opacity:1;fill-rule:evenodd;stroke:#000000;stroke-width:0.821442;stroke-linecap:butt;stroke-linejoin:miter;stroke-miterlimit:4;stroke-dasharray:none;stroke-opacity:1"
           id="path394" />
      </g>
      <g
         id="g396">
        <path
           d="m 778.719,287.953 22.609,176.375"
           style="fill:none;stroke:#000000;stroke-width:0.850394;stroke-linecap:butt;stroke-linejoin:miter;stroke-miterlimit:4;stroke-dasharray:0.212598, 0.212598;stroke-dashoffset:0;stroke-opacity:1"
           id="path398" />
      </g>
      <g
         id="g400"
         transform="matrix(0.128204,1,-1,0.128204,0,0)">
        <path
           d="m 561.786,-729.805 -5.838,3.372 10e-4,-6.745 z"
           style="fill:#000000;fill-opacity:1;fill-rule:evenodd;stroke:#000000;stroke-width:0.899723;stroke-linecap:butt;stroke-linejoin:miter;stroke-miterlimit:4;stroke-dasharray:none;stroke-opacity:1"
           id="path402" />
      </g>
      <g
         id="g404">
        <path
           d="m 778.719,287.953 83.793,185.949"
           style="fill:none;stroke:#000000;stroke-width:0.850394;stroke-linecap:butt;stroke-linejoin:miter;stroke-miterlimit:4;stroke-dasharray:0.212598, 0.212598;stroke-dashoffset:0;stroke-opacity:1"
           id="path406" />
      </g>
      <g
         id="g408"
         transform="matrix(0.450626,1,-1,0.450626,0,0)">
        <path
           d="m 720.558,-539.423 -5.366,3.101 -10e-4,-6.203 z"
           style="fill:#000000;fill-opacity:1;fill-rule:evenodd;stroke:#000000;stroke-width:0.826998;stroke-linecap:butt;stroke-linejoin:miter;stroke-miterlimit:4;stroke-dasharray:none;stroke-opacity:1"
           id="path410" />
      </g>
      <g
         id="g3388"
         transform="translate(47.915973,7.6121583)">
        <path
           d="m 180.484,405.309 c 0,-0.051 0,-0.493 -0.582,-0.493 -1.027,0 -4.289,0.36 -5.453,0.442 -0.359,0.051 -0.844,0.094 -0.844,0.902 0,0.531 0.399,0.531 1.067,0.531 2.144,0 2.234,0.309 2.234,0.762 l -0.133,0.891 -6.48,25.738 c -0.176,0.625 -0.176,0.719 -0.176,0.984 0,1.028 0.895,1.25 1.293,1.25 0.586,0 1.254,-0.398 1.52,-0.941 0.226,-0.398 2.234,-8.664 2.504,-9.785 1.515,0.137 5.183,0.851 5.183,3.805 0,0.308 0,0.484 -0.133,0.933 -0.089,0.535 -0.179,1.074 -0.179,1.567 0,2.636 1.785,4.421 4.109,4.421 1.344,0 2.543,-0.714 3.527,-2.367 1.118,-1.969 1.61,-4.422 1.61,-4.511 0,-0.45 -0.399,-0.45 -0.531,-0.45 -0.454,0 -0.493,0.18 -0.629,0.805 -0.891,3.262 -1.918,5.539 -3.887,5.539 -0.848,0 -1.434,-0.492 -1.434,-2.102 0,-0.757 0.184,-1.785 0.36,-2.5 0.183,-0.761 0.183,-0.937 0.183,-1.386 0,-2.903 -2.82,-4.196 -6.613,-4.688 1.383,-0.808 2.812,-2.234 3.836,-3.308 2.152,-2.371 4.203,-4.289 6.398,-4.289 0.266,0 0.309,0 0.399,0.043 0.535,0.089 0.578,0.089 0.933,0.359 0.094,0.043 0.094,0.09 0.184,0.176 -2.145,0.14 -2.551,1.875 -2.551,2.418 0,0.707 0.492,1.558 1.703,1.558 1.157,0 2.457,-0.984 2.457,-2.726 0,-1.336 -1.031,-2.813 -3.043,-2.813 -1.25,0 -3.3,0.36 -6.523,3.93 -1.516,1.703 -3.258,3.488 -4.961,4.16 l 4.652,-18.855"
           style="fill:#000000;fill-opacity:1;fill-rule:nonzero;stroke:none"
           id="path412" />
        <path
           d="m 201.641,422.465 c 0,-0.86 -0.063,-0.887 -0.95,-0.887 -2.023,1.988 -4.898,2.02 -6.199,2.02 v 1.136 c 0.762,0 2.848,0 4.59,-0.886 v 16.132 c 0,1.047 0,1.454 -3.164,1.454 h -1.199 v 1.14 c 0.57,-0.031 4.457,-0.129 5.629,-0.129 0.976,0 4.961,0.098 5.656,0.129 v -1.14 h -1.199 c -3.164,0 -3.164,-0.407 -3.164,-1.454 v -17.515"
           style="fill:#000000;fill-opacity:1;fill-rule:nonzero;stroke:none"
           id="path414" />
      </g>
      <g
         id="g3392"
         transform="translate(32.603327,-30.936503)">
        <path
           d="m 376,505.941 c 0,-0.05 0,-0.492 -0.586,-0.492 -1.023,0 -4.285,0.356 -5.453,0.442 -0.359,0.05 -0.844,0.089 -0.844,0.898 0,0.535 0.403,0.535 1.071,0.535 2.14,0 2.234,0.309 2.234,0.758 l -0.133,0.895 -6.48,25.738 c -0.176,0.625 -0.176,0.715 -0.176,0.984 0,1.024 0.89,1.25 1.293,1.25 0.582,0 1.25,-0.402 1.515,-0.941 0.227,-0.403 2.239,-8.668 2.504,-9.785 1.52,0.132 5.188,0.851 5.188,3.804 0,0.309 0,0.485 -0.133,0.934 -0.094,0.535 -0.184,1.074 -0.184,1.566 0,2.637 1.786,4.422 4.11,4.422 1.344,0 2.547,-0.719 3.531,-2.367 1.117,-1.969 1.609,-4.422 1.609,-4.516 0,-0.449 -0.402,-0.449 -0.535,-0.449 -0.449,0 -0.492,0.184 -0.625,0.809 -0.894,3.262 -1.918,5.539 -3.886,5.539 -0.852,0 -1.434,-0.492 -1.434,-2.102 0,-0.758 0.184,-1.785 0.359,-2.504 0.18,-0.757 0.18,-0.933 0.18,-1.382 0,-2.903 -2.816,-4.196 -6.613,-4.688 1.386,-0.809 2.812,-2.234 3.84,-3.312 2.148,-2.368 4.203,-4.286 6.394,-4.286 0.266,0 0.309,0 0.402,0.043 0.532,0.09 0.575,0.09 0.934,0.356 0.09,0.043 0.09,0.094 0.184,0.176 -2.145,0.14 -2.555,1.879 -2.555,2.418 0,0.711 0.492,1.562 1.703,1.562 1.16,0 2.461,-0.984 2.461,-2.726 0,-1.336 -1.035,-2.813 -3.043,-2.813 -1.254,0 -3.305,0.359 -6.523,3.93 -1.52,1.699 -3.262,3.484 -4.961,4.16 L 376,505.941"
           style="fill:#000000;fill-opacity:1;fill-rule:nonzero;stroke:none"
           id="path416" />
        <path
           d="m 402.531,537.449 h -1.074 c -0.094,0.696 -0.41,2.563 -0.824,2.879 -0.254,0.192 -2.684,0.192 -3.129,0.192 h -5.816 c 3.316,-2.946 4.425,-3.832 6.324,-5.313 2.34,-1.871 4.519,-3.832 4.519,-6.832 0,-3.832 -3.351,-6.164 -7.402,-6.164 -3.922,0 -6.578,2.746 -6.578,5.656 0,1.61 1.363,1.774 1.679,1.774 0.762,0 1.672,-0.543 1.672,-1.68 0,-0.57 -0.214,-1.676 -1.859,-1.676 0.977,-2.246 3.125,-2.941 4.617,-2.941 3.16,0 4.805,2.465 4.805,5.031 0,2.746 -1.961,4.934 -2.973,6.07 l -7.625,7.528 c -0.316,0.281 -0.316,0.347 -0.316,1.23 h 13.031 l 0.949,-5.754"
           style="fill:#000000;fill-opacity:1;fill-rule:nonzero;stroke:none"
           id="path418" />
      </g>
      <g
         id="g3396"
         transform="translate(-91.872987,-41.588547)">
        <path
           d="m 593.891,672.18 c 0,-0.047 0,-0.492 -0.582,-0.492 -1.028,0 -4.289,0.359 -5.457,0.445 -0.356,0.047 -0.84,0.09 -0.84,0.898 0,0.535 0.398,0.535 1.066,0.535 2.145,0 2.234,0.309 2.234,0.758 l -0.132,0.891 -6.481,25.738 c -0.176,0.625 -0.176,0.719 -0.176,0.985 0,1.027 0.895,1.25 1.293,1.25 0.582,0 1.25,-0.399 1.52,-0.942 0.223,-0.398 2.234,-8.664 2.5,-9.781 1.519,0.133 5.187,0.851 5.187,3.801 0,0.308 0,0.484 -0.132,0.937 -0.09,0.531 -0.184,1.074 -0.184,1.567 0,2.632 1.785,4.418 4.113,4.418 1.34,0 2.543,-0.715 3.528,-2.368 1.117,-1.968 1.609,-4.422 1.609,-4.511 0,-0.45 -0.398,-0.45 -0.535,-0.45 -0.449,0 -0.492,0.184 -0.625,0.809 -0.891,3.262 -1.918,5.539 -3.887,5.539 -0.851,0 -1.433,-0.492 -1.433,-2.102 0,-0.761 0.183,-1.785 0.359,-2.503 0.184,-0.758 0.184,-0.934 0.184,-1.383 0,-2.903 -2.821,-4.199 -6.614,-4.688 1.383,-0.808 2.809,-2.238 3.836,-3.312 2.153,-2.367 4.203,-4.289 6.395,-4.289 0.269,0 0.308,0 0.402,0.043 0.535,0.093 0.574,0.093 0.934,0.359 0.093,0.043 0.093,0.09 0.183,0.176 -2.144,0.14 -2.551,1.875 -2.551,2.418 0,0.711 0.493,1.558 1.7,1.558 1.16,0 2.461,-0.98 2.461,-2.726 0,-1.336 -1.036,-2.809 -3.043,-2.809 -1.25,0 -3.305,0.356 -6.524,3.926 -1.515,1.703 -3.261,3.488 -4.961,4.164 l 4.653,-18.859"
           style="fill:#000000;fill-opacity:1;fill-rule:nonzero;stroke:none"
           id="path420" />
        <path
           d="m 613.086,698.883 c 2.465,0 4.238,1.707 4.238,5.094 0,3.921 -2.277,5.089 -4.113,5.089 -1.266,0 -4.047,-0.343 -5.375,-2.214 1.488,-0.063 1.832,-1.106 1.832,-1.77 0,-1.016 -0.758,-1.738 -1.734,-1.738 -0.887,0 -1.77,0.535 -1.77,1.836 0,2.972 3.289,4.898 7.109,4.898 4.403,0 7.438,-2.937 7.438,-6.101 0,-2.469 -2.023,-4.934 -5.504,-5.665 3.316,-1.203 4.52,-3.57 4.52,-5.503 0,-2.497 -2.875,-4.36 -6.387,-4.36 -3.508,0 -6.199,1.703 -6.199,4.235 0,1.074 0.695,1.679 1.644,1.679 0.985,0 1.613,-0.734 1.613,-1.617 0,-0.914 -0.628,-1.582 -1.613,-1.644 1.11,-1.395 3.289,-1.739 4.461,-1.739 1.422,0 3.418,0.696 3.418,3.446 0,1.328 -0.445,2.781 -1.266,3.765 -1.046,1.203 -1.933,1.266 -3.515,1.36 -0.785,0.062 -0.852,0.062 -1.012,0.097 -0.062,0 -0.316,0.063 -0.316,0.407 0,0.445 0.289,0.445 0.824,0.445 h 1.707"
           style="fill:#000000;fill-opacity:1;fill-rule:nonzero;stroke:none"
           id="path422" />
      </g>
      <g
         id="g3957"
         transform="translate(-4.39227,-14.321619)">
        <path
           d="m 918.824,492.207 c 0,-0.047 0,-0.492 -0.582,-0.492 -1.027,0 -4.289,0.359 -5.457,0.445 -0.355,0.047 -0.844,0.09 -0.844,0.899 0,0.535 0.403,0.535 1.071,0.535 2.144,0 2.234,0.308 2.234,0.758 l -0.133,0.894 -6.48,25.738 c -0.176,0.625 -0.176,0.715 -0.176,0.981 0,1.027 0.891,1.254 1.293,1.254 0.582,0 1.25,-0.403 1.52,-0.942 0.222,-0.402 2.234,-8.668 2.5,-9.785 1.519,0.133 5.187,0.852 5.187,3.801 0,0.312 0,0.488 -0.133,0.937 -0.09,0.532 -0.183,1.075 -0.183,1.567 0,2.637 1.785,4.422 4.113,4.422 1.34,0 2.543,-0.719 3.527,-2.371 1.117,-1.965 1.61,-4.418 1.61,-4.512 0,-0.449 -0.403,-0.449 -0.536,-0.449 -0.449,0 -0.492,0.183 -0.625,0.808 -0.89,3.262 -1.918,5.539 -3.886,5.539 -0.852,0 -1.434,-0.492 -1.434,-2.101 0,-0.758 0.184,-1.785 0.36,-2.504 0.183,-0.758 0.183,-0.934 0.183,-1.383 0,-2.902 -2.82,-4.195 -6.617,-4.687 1.387,-0.809 2.812,-2.235 3.84,-3.313 2.148,-2.367 4.203,-4.285 6.394,-4.285 0.27,0 0.309,0 0.403,0.039 0.535,0.094 0.574,0.094 0.933,0.359 0.09,0.043 0.09,0.094 0.184,0.176 -2.145,0.141 -2.551,1.879 -2.551,2.418 0,0.711 0.492,1.563 1.699,1.563 1.16,0 2.461,-0.985 2.461,-2.731 0,-1.332 -1.035,-2.808 -3.043,-2.808 -1.25,0 -3.304,0.359 -6.523,3.929 -1.52,1.699 -3.262,3.485 -4.961,4.16 l 4.652,-18.859"
           style="fill:#000000;fill-opacity:1;fill-rule:nonzero;stroke:none"
           id="path424" />
        <path
           d="m 946.684,509.961 h 6.453 c 4.011,0 5.785,-2.305 5.785,-2.91 0,-0.25 -0.219,-0.25 -0.379,-0.25 -0.129,0 -0.727,0 -2.09,0.918 l -0.152,0.129 c -0.227,0.027 -2.25,0.027 -3.356,0.027 h -5.566 c -2.656,0 -5.277,-0.027 -7.934,0 -0.886,0 -3.351,0.477 -5.757,2.305 -2.438,1.898 -2.594,3.668 -2.594,3.894 0,0.219 0.218,0.254 0.347,0.254 0.188,0 0.821,-0.129 1.645,-0.633 1.074,-0.668 1.172,-0.984 1.297,-1.492 0.535,-2.242 2.027,-2.242 3.191,-2.242 h 6.68 c -0.379,0.254 -0.57,0.727 -0.695,1.168 l -3.516,14.043 c -0.219,0.82 -0.824,2.945 -2.023,5.566 -0.254,0.535 -0.254,0.598 -0.254,0.66 0,0.227 0.254,0.227 0.379,0.227 0.757,0 2.085,-0.824 2.593,-1.363 0.442,-0.535 1.899,-4.043 2.504,-6.446 l 3.442,-13.855"
           style="fill:#000000;fill-opacity:1;fill-rule:nonzero;stroke:none"
           id="path426" />
      </g>
      <g
         id="g428"
         style="font-variation-settings:normal;opacity:1;vector-effect:none;fill:none;fill-opacity:1;stroke:#000000;stroke-width:2.83465;stroke-linecap:butt;stroke-linejoin:miter;stroke-miterlimit:4;stroke-dasharray:0.283465,0.283465;stroke-dashoffset:0;stroke-opacity:1;-inkscape-stroke:none;marker-end:url(#marker8675);stop-color:#000000;stop-opacity:1">
        <path
           d="M 512.32706,314.3703 C 496.93575,109.90496 756.33577,196.62977 776.57266,279.07943"
           style="font-variation-settings:normal;vector-effect:none;fill:none;fill-opacity:1;stroke:#000000;stroke-width:2.83465;stroke-linecap:butt;stroke-linejoin:miter;stroke-miterlimit:4;stroke-dasharray:0.283465, 0.283465;stroke-dashoffset:0;stroke-opacity:1;-inkscape-stroke:none;marker-start:url(#Cap4);marker-end:url(#marker8675);stop-color:#000000;stop-opacity:1"
           id="path430"
           sodipodi:nodetypes="cc" />
      </g>
      <g
         id="g436">
        <path
           d="m 525.516,609.062 78.422,-50.64"
           style="fill:none;stroke:#000000;stroke-width:1.41732;stroke-linecap:butt;stroke-linejoin:miter;stroke-miterlimit:4;stroke-dasharray:2.83465, 1.41732;stroke-dashoffset:0;stroke-opacity:1"
           id="path438" />
      </g>
      <g
         id="g440"
         transform="matrix(-1,0.645773,-0.645773,-1,0,0)">
        <path
           d="m -158.987,-664.025 -14.309,-5.263 14.31,-5.264 c -2.286,3.11 -2.273,7.361 -0.001,10.527 z"
           style="fill:#000000;fill-opacity:1;fill-rule:evenodd;stroke:#000000;stroke-width:0.818565;stroke-linecap:butt;stroke-linejoin:round;stroke-miterlimit:4;stroke-dasharray:none;stroke-opacity:1"
           id="path442" />
      </g>
      <g
         id="g444">
        <path
           d="m 659.176,615.223 33.386,3.867"
           style="fill:none;stroke:#000000;stroke-width:1.41732;stroke-linecap:butt;stroke-linejoin:miter;stroke-miterlimit:4;stroke-dasharray:2.83465, 1.41732;stroke-dashoffset:0;stroke-opacity:1"
           id="path446" />
      </g>
      <g
         id="g448"
         transform="matrix(-1,-0.115868,0.115868,-1,0,0)">
        <path
           d="m -739.122,-525.461 -16.92,-6.219 16.923,-6.223 c -2.703,3.673 -2.691,8.699 -0.003,12.442 z"
           style="fill:#000000;fill-opacity:1;fill-rule:evenodd;stroke:#000000;stroke-width:0.967934;stroke-linecap:butt;stroke-linejoin:round;stroke-miterlimit:4;stroke-dasharray:none;stroke-opacity:1"
           id="path450" />
      </g>
      <g
         id="g452">
        <path
           d="m 697.445,653.492 42.403,-32.43"
           style="fill:none;stroke:#000000;stroke-width:1.41732;stroke-linecap:butt;stroke-linejoin:miter;stroke-miterlimit:4;stroke-dasharray:2.83465, 1.41732;stroke-dashoffset:0;stroke-opacity:1"
           id="path454" />
      </g>
      <g
         id="g456"
         transform="matrix(-1,0.764856,-0.764856,-1,0,0)">
        <path
           d="m -155.046,-743.861 -13.529,-4.973 13.529,-4.976 c -2.16,2.937 -2.149,6.957 0,9.949 z"
           style="fill:#000000;fill-opacity:1;fill-rule:evenodd;stroke:#000000;stroke-width:0.773974;stroke-linecap:butt;stroke-linejoin:round;stroke-miterlimit:4;stroke-dasharray:none;stroke-opacity:1"
           id="path458" />
      </g>
      <g
         id="g460">
        <path
           d="m 700.102,618.578 -4.801,27.356"
           style="fill:none;stroke:#000000;stroke-width:1.41732;stroke-linecap:butt;stroke-linejoin:miter;stroke-miterlimit:4;stroke-dasharray:2.83465, 1.41732;stroke-dashoffset:0;stroke-opacity:1"
           id="path462" />
      </g>
      <g
         id="g464"
         transform="matrix(0.175509,-1,1,0.175509,0,0)">
        <path
           d="m -493.324,790.696 -16.778,-6.169 16.777,-6.167 c -2.681,3.643 -2.666,8.624 10e-4,12.336 z"
           style="fill:#000000;fill-opacity:1;fill-rule:evenodd;stroke:#000000;stroke-width:0.95974;stroke-linecap:butt;stroke-linejoin:round;stroke-miterlimit:4;stroke-dasharray:none;stroke-opacity:1"
           id="path466" />
      </g>
      <g
         id="g468">
        <path
           d="m 654.746,615.746 5.668,-32.601"
           style="fill:none;stroke:#000000;stroke-width:1.41732;stroke-linecap:butt;stroke-linejoin:miter;stroke-miterlimit:4;stroke-dasharray:2.83465, 1.41732;stroke-dashoffset:0;stroke-opacity:1"
           id="path470" />
      </g>
      <g
         id="g472"
         transform="matrix(-0.173914,1,-1,-0.173914,0,0)">
        <path
           d="m 469.47,-733.272 -16.784,-6.171 16.783,-6.169 c -2.68,3.642 -2.664,8.627 0.001,12.34 z"
           style="fill:#000000;fill-opacity:1;fill-rule:evenodd;stroke:#000000;stroke-width:0.96;stroke-linecap:butt;stroke-linejoin:round;stroke-miterlimit:4;stroke-dasharray:none;stroke-opacity:1"
           id="path474" />
      </g>
      <g
         id="g476">
        <path
           d="m 651.91,639.84 2.836,-24.094"
           style="fill:none;stroke:#000000;stroke-width:1.41732;stroke-linecap:butt;stroke-linejoin:miter;stroke-miterlimit:4;stroke-dasharray:2.83465, 1.41732;stroke-dashoffset:0;stroke-opacity:1"
           id="path478" />
      </g>
      <g
         id="g480"
         transform="matrix(-0.117646,1,-1,-0.117646,0,0)">
        <path
           d="m 546.411,-711.013 -16.919,-6.221 16.92,-6.221 c -2.705,3.674 -2.688,8.699 -0.001,12.442 z"
           style="fill:#000000;fill-opacity:1;fill-rule:evenodd;stroke:#000000;stroke-width:0.967735;stroke-linecap:butt;stroke-linejoin:round;stroke-miterlimit:4;stroke-dasharray:none;stroke-opacity:1"
           id="path482" />
      </g>
      <g
         id="g484">
        <path
           d="m 751.309,616.641 27.593,-4.817"
           style="fill:none;stroke:#000000;stroke-width:1.41732;stroke-linecap:butt;stroke-linejoin:miter;stroke-miterlimit:4;stroke-dasharray:2.83465, 1.41732;stroke-dashoffset:0;stroke-opacity:1"
           id="path486" />
      </g>
      <g
         id="g488"
         transform="matrix(-1,0.174492,-0.174492,-1,0,0)">
        <path
           d="m -637.361,-719.449 -16.779,-6.169 16.78,-6.17 c -2.678,3.642 -2.666,8.628 -10e-4,12.339 z"
           style="fill:#000000;fill-opacity:1;fill-rule:evenodd;stroke:#000000;stroke-width:0.959906;stroke-linecap:butt;stroke-linejoin:round;stroke-miterlimit:4;stroke-dasharray:none;stroke-opacity:1"
           id="path490" />
      </g>
      <g
         id="g492">
        <path
           d="m 611.461,562.242 -1.07,49.5"
           style="fill:none;stroke:#000000;stroke-width:1.41732;stroke-linecap:butt;stroke-linejoin:miter;stroke-miterlimit:4;stroke-dasharray:2.83465, 1.41732;stroke-dashoffset:0;stroke-opacity:1"
           id="path494" />
      </g>
      <g
         id="g496"
         transform="matrix(0.0216341,-1,1,0.0216341,0,0)">
        <path
           d="m -583.109,629.619 -17.03,-6.261 17.028,-6.262 c -2.72,3.695 -2.705,8.753 0.002,12.523 z"
           style="fill:#000000;fill-opacity:1;fill-rule:evenodd;stroke:#000000;stroke-width:0.974181;stroke-linecap:butt;stroke-linejoin:round;stroke-miterlimit:4;stroke-dasharray:none;stroke-opacity:1"
           id="path498" />
      </g>
      <g
         id="g500">
        <path
           d="m 620.906,616.641 13.071,19.125"
           style="fill:none;stroke:#000000;stroke-width:1.41732;stroke-linecap:butt;stroke-linejoin:miter;stroke-miterlimit:4;stroke-dasharray:2.83465, 1.41732;stroke-dashoffset:0;stroke-opacity:1"
           id="path502" />
      </g>
      <g
         id="g504"
         transform="matrix(-0.683257,-1,1,-0.683257,0,0)">
        <path
           d="m -716.222,141.257 -14.067,-5.173 14.065,-5.172 c -2.247,3.055 -2.234,7.232 0.002,10.345 z"
           style="fill:#000000;fill-opacity:1;fill-rule:evenodd;stroke:#000000;stroke-width:0.804545;stroke-linecap:butt;stroke-linejoin:round;stroke-miterlimit:4;stroke-dasharray:none;stroke-opacity:1"
           id="path506" />
      </g>
      <g
         id="g3945"
         transform="translate(-273.45086,-38.801714)">
        <path
           d="m 765.918,148.727 c 0,-3.348 -2.457,-6.11 -6.07,-6.11 -2.586,0 -3.836,0.707 -5.395,1.871 -2.453,1.782 -4.91,6.11 -5.75,9.5 l -7.094,28.321 c -0.05,0.175 0.176,0.441 0.532,0.441 0.359,0 0.492,-0.086 0.535,-0.219 l 3.121,-12.312 c 0.848,2.676 2.812,4.328 6.066,4.328 3.258,0 6.602,-1.563 8.61,-3.527 2.14,-2.047 3.57,-4.903 3.57,-8.2 0,-3.215 -1.656,-5.535 -3.262,-6.652 2.59,-1.473 5.137,-4.234 5.137,-7.441 z m -8.035,7.402 c -0.574,0.223 -1.067,0.309 -2.137,0.309 -0.625,0 -1.516,0.046 -1.965,-0.176 0.09,-0.45 1.696,-0.36 2.188,-0.36 0.933,0 1.34,0 1.914,0.227 z m 5.535,-8.434 c 0,3.121 -1.695,6.336 -4.02,7.715 -1.199,-0.441 -2.089,-0.531 -3.429,-0.531 -0.942,0 -3.438,-0.043 -3.438,1.426 -0.043,1.246 2.281,1.113 3.078,1.113 1.653,0 2.325,-0.043 3.657,-0.574 1.699,1.597 1.922,2.988 1.964,5.035 0.09,2.59 -0.98,5.933 -2.23,7.676 -1.738,2.406 -4.73,4.011 -7.27,4.011 -3.386,0 -5.085,-2.589 -5.085,-5.754 0,-0.445 0,-1.113 0.226,-1.96 l 2.856,-11.29 c 0.98,-3.828 4.187,-10.921 9.539,-10.921 2.589,0 4.152,1.382 4.152,4.054"
           style="fill:#000000;fill-opacity:1;fill-rule:nonzero;stroke:none"
           id="path508" />
        <path
           d="m 775.984,160.766 c 0,-0.856 -0.066,-0.887 -0.949,-0.887 -2.019,1.988 -4.89,2.016 -6.187,2.016 v 1.136 c 0.757,0 2.843,0 4.582,-0.886 v 16.101 c 0,1.043 0,1.453 -3.157,1.453 h -1.199 v 1.137 c 0.567,-0.031 4.446,-0.129 5.617,-0.129 0.977,0 4.954,0.098 5.649,0.129 v -1.137 h -1.199 c -3.157,0 -3.157,-0.41 -3.157,-1.453 v -17.48"
           style="fill:#000000;fill-opacity:1;fill-rule:nonzero;stroke:none"
           id="path510" />
      </g>
      <g
         id="g3949"
         transform="translate(-58.512689,-68.235172)">
        <path
           d="m 584.852,243.418 c 0,-3.348 -2.454,-6.113 -6.067,-6.113 -2.59,0 -3.836,0.711 -5.394,1.875 -2.457,1.781 -4.911,6.109 -5.754,9.496 l -7.09,28.32 c -0.051,0.176 0.176,0.442 0.531,0.442 0.36,0 0.492,-0.083 0.535,-0.215 l 3.121,-12.313 c 0.848,2.672 2.813,4.328 6.067,4.328 3.254,0 6.601,-1.562 8.609,-3.527 2.137,-2.051 3.57,-4.906 3.57,-8.203 0,-3.211 -1.656,-5.531 -3.261,-6.649 2.586,-1.472 5.133,-4.238 5.133,-7.441 z m -8.032,7.398 c -0.574,0.227 -1.066,0.309 -2.14,0.309 -0.625,0 -1.516,0.051 -1.965,-0.176 0.094,-0.449 1.699,-0.355 2.191,-0.355 0.934,0 1.34,0 1.914,0.222 z m 5.535,-8.429 c 0,3.121 -1.699,6.332 -4.019,7.715 -1.199,-0.442 -2.09,-0.532 -3.43,-0.532 -0.941,0 -3.437,-0.043 -3.437,1.422 -0.043,1.25 2.277,1.117 3.078,1.117 1.648,0 2.324,-0.043 3.656,-0.578 1.695,1.602 1.922,2.989 1.965,5.039 0.09,2.586 -0.984,5.934 -2.23,7.672 -1.743,2.406 -4.731,4.016 -7.27,4.016 -3.387,0 -5.086,-2.59 -5.086,-5.754 0,-0.449 0,-1.113 0.227,-1.965 l 2.851,-11.285 c 0.985,-3.832 4.192,-10.922 9.543,-10.922 2.586,0 4.152,1.379 4.152,4.055"
           style="fill:#000000;fill-opacity:1;fill-rule:nonzero;stroke:none"
           id="path512" />
        <path
           d="m 600.285,269.777 h -1.074 c -0.09,0.696 -0.406,2.563 -0.82,2.879 -0.25,0.188 -2.68,0.188 -3.121,0.188 h -5.809 c 3.312,-2.938 4.422,-3.824 6.312,-5.305 2.336,-1.863 4.512,-3.82 4.512,-6.816 0,-3.825 -3.347,-6.153 -7.387,-6.153 -3.914,0 -6.566,2.742 -6.566,5.649 0,1.605 1.363,1.765 1.676,1.765 0.758,0 1.672,-0.539 1.672,-1.675 0,-0.567 -0.219,-1.668 -1.86,-1.668 0.977,-2.246 3.121,-2.942 4.61,-2.942 3.156,0 4.797,2.461 4.797,5.024 0,2.742 -1.957,4.925 -2.969,6.062 l -7.61,7.512 c -0.316,0.281 -0.316,0.344 -0.316,1.226 h 13.008 l 0.945,-5.746"
           style="fill:#000000;fill-opacity:1;fill-rule:nonzero;stroke:none"
           id="path514" />
      </g>
      <g
         id="g3953"
         transform="translate(-62.671569,-199.89671)">
        <path
           d="m 637.781,436.18 c 0,-3.348 -2.453,-6.11 -6.066,-6.11 -2.59,0 -3.836,0.707 -5.395,1.871 -2.457,1.786 -4.91,6.114 -5.754,9.5 l -7.089,28.321 c -0.051,0.176 0.175,0.441 0.531,0.441 0.359,0 0.492,-0.086 0.535,-0.219 l 3.121,-12.308 c 0.848,2.672 2.813,4.328 6.066,4.328 3.258,0 6.602,-1.566 8.61,-3.531 2.137,-2.047 3.57,-4.903 3.57,-8.2 0,-3.214 -1.656,-5.535 -3.262,-6.652 2.586,-1.473 5.133,-4.234 5.133,-7.441 z m -8.031,7.402 c -0.574,0.223 -1.066,0.309 -2.141,0.309 -0.621,0 -1.515,0.047 -1.961,-0.176 0.09,-0.449 1.696,-0.36 2.188,-0.36 0.934,0 1.34,0 1.914,0.227 z m 5.535,-8.434 c 0,3.122 -1.699,6.336 -4.019,7.719 -1.2,-0.445 -2.09,-0.535 -3.43,-0.535 -0.941,0 -3.438,-0.043 -3.438,1.426 -0.043,1.246 2.282,1.113 3.079,1.113 1.648,0 2.324,-0.043 3.656,-0.574 1.695,1.598 1.922,2.988 1.965,5.035 0.09,2.59 -0.985,5.938 -2.231,7.676 -1.742,2.406 -4.73,4.012 -7.269,4.012 -3.387,0 -5.086,-2.59 -5.086,-5.75 0,-0.45 0,-1.118 0.226,-1.965 l 2.856,-11.289 c 0.98,-3.828 4.187,-10.922 9.539,-10.922 2.59,0 4.152,1.383 4.152,4.054"
           style="fill:#000000;fill-opacity:1;fill-rule:nonzero;stroke:none"
           id="path516" />
        <path
           d="m 645.891,457.742 c 2.464,0 4.23,1.707 4.23,5.086 0,3.918 -2.273,5.082 -4.101,5.082 -1.266,0 -4.043,-0.344 -5.368,-2.211 1.489,-0.062 1.832,-1.101 1.832,-1.769 0,-1.008 -0.757,-1.731 -1.734,-1.731 -0.883,0 -1.77,0.531 -1.77,1.832 0,2.965 3.286,4.887 7.102,4.887 4.391,0 7.422,-2.93 7.422,-6.09 0,-2.461 -2.02,-4.922 -5.492,-5.652 3.308,-1.199 4.508,-3.563 4.508,-5.492 0,-2.493 -2.868,-4.352 -6.375,-4.352 -3.5,0 -6.188,1.699 -6.188,4.227 0,1.07 0.695,1.675 1.641,1.675 0.984,0 1.613,-0.73 1.613,-1.613 0,-0.914 -0.629,-1.578 -1.613,-1.644 1.109,-1.387 3.285,-1.731 4.457,-1.731 1.414,0 3.406,0.695 3.406,3.438 0,1.324 -0.441,2.777 -1.262,3.757 -1.043,1.204 -1.929,1.266 -3.508,1.356 -0.785,0.062 -0.847,0.062 -1.007,0.098 -0.067,0 -0.317,0.062 -0.317,0.406 0,0.441 0.285,0.441 0.821,0.441 h 1.703"
           style="fill:#000000;fill-opacity:1;fill-rule:nonzero;stroke:none"
           id="path518" />
      </g>
      <path
         d="m 555.75514,35.648214 c -0.75,14.86 -6.945,32.852 -10.965,43.485 -0.344,0.816 -0.344,0.957 -0.344,1.019 0,0.485 0.547,0.485 0.676,0.485 1.231,0 3.688,-1.301 4.77,-2.598 0.344,-0.469 9.211,-22.758 11.246,-40.074 0.344,-2.723 0.484,-5.52 0.484,-5.789 0,-0.824 0,-1.094 -0.75,-1.094 -0.754,0 -2.801,1.02 -4.16,1.707 -3.133,1.563 -5.726,2.859 -5.726,4.082 0,0.41 0.484,0.41 0.75,0.41 0.613,0 0.75,0 4.019,-1.633 z m 36.195,34.832 c 0,-0.074 0,-0.621 -0.816,-0.621 -0.34,0 -1.094,0.079 -2.047,0.829 -0.812,0.546 -0.953,0.75 -1.297,1.832 -1.844,5.179 -8.523,5.179 -8.652,5.179 -6.613,0 -16.219,-21.402 -16.219,-27.531 0,-1.094 0.203,-1.77 2.582,-4.227 5.051,-4.972 17.11,-11.929 20.317,-11.929 1.425,0 2.457,1.09 2.457,2.859 0,0.485 -0.141,0.828 -0.141,1.094 0,0.41 0.203,0.75 0.812,0.75 0.141,0 3.411,-0.203 3.411,-3.547 0,-2.316 -1.426,-4.086 -3.954,-4.086 -4.632,0 -14.035,5.457 -19.429,9.274 -2.86,2.113 -10.153,7.292 -10.153,11.515 0,5.863 6.883,20.582 11.793,25.559 2.391,2.316 3.817,3.207 5.868,3.207 5.316,0 10.836,-2.801 13.421,-6.071 1.778,-2.175 2.047,-3.878 2.047,-4.086"
         style="fill:#000000;fill-opacity:1;fill-rule:nonzero;stroke:none"
         id="path524" />
      <g
         id="g3407">
        <path
           d="m 298.941,578.219 c -0.75,14.859 -6.945,32.847 -10.964,43.484 -0.344,0.813 -0.344,0.953 -0.344,1.02 0,0.48 0.547,0.48 0.676,0.48 1.23,0 3.687,-1.297 4.769,-2.594 0.344,-0.472 9.211,-22.761 11.246,-40.074 0.344,-2.723 0.485,-5.523 0.485,-5.789 0,-0.828 0,-1.094 -0.754,-1.094 -0.75,0 -2.797,1.02 -4.157,1.703 -3.132,1.567 -5.726,2.864 -5.726,4.086 0,0.407 0.48,0.407 0.75,0.407 0.609,0 0.75,0 4.019,-1.629 z m 36.196,34.832 c 0,-0.074 0,-0.621 -0.817,-0.621 -0.343,0 -1.093,0.074 -2.047,0.824 -0.816,0.547 -0.953,0.75 -1.296,1.832 -1.844,5.18 -8.524,5.18 -8.653,5.18 -6.613,0 -16.219,-21.399 -16.219,-27.532 0,-1.093 0.204,-1.769 2.583,-4.222 5.05,-4.977 17.109,-11.934 20.316,-11.934 1.426,0 2.453,1.094 2.453,2.863 0,0.481 -0.137,0.825 -0.137,1.094 0,0.406 0.203,0.75 0.813,0.75 0.14,0 3.41,-0.203 3.41,-3.551 0,-2.312 -1.426,-4.082 -3.957,-4.082 -4.629,0 -14.031,5.457 -19.426,9.274 -2.863,2.109 -10.152,7.289 -10.152,11.512 0,5.867 6.883,20.585 11.793,25.558 2.39,2.316 3.816,3.207 5.863,3.207 5.32,0 10.84,-2.797 13.426,-6.066 1.777,-2.176 2.047,-3.883 2.047,-4.086"
           style="fill:#000000;fill-opacity:1;fill-rule:nonzero;stroke:none"
           id="path526" />
        <path
           d="m 365.027,637.109 c 0.34,0.953 0.684,1.629 1.575,1.629 0.75,0 1.359,-0.609 1.359,-1.363 0,-0.129 0,-0.266 -0.34,-1.082 l -23.309,-64.078 c -0.406,-1.156 -0.621,-1.629 -1.5,-1.629 -0.75,0 -1.363,0.609 -1.363,1.359 0,0.141 0,0.27 0.332,1.094 l 23.246,64.07"
           style="fill:#000000;fill-opacity:1;fill-rule:nonzero;stroke:none"
           id="path528" />
        <g
           id="g3400"
           transform="translate(-34.5)">
          <path
             d="m 423.164,575.152 c 0,-0.074 0,-0.75 -0.887,-0.75 -1.566,0 -6.539,0.547 -8.32,0.676 -0.547,0.074 -1.285,0.137 -1.285,1.371 0,0.817 0.609,0.817 1.629,0.817 3.269,0 3.406,0.468 3.406,1.156 l -0.203,1.363 -9.883,39.258 c -0.269,0.953 -0.269,1.094 -0.269,1.5 0,1.566 1.363,1.91 1.972,1.91 0.891,0 1.91,-0.609 2.317,-1.437 0.343,-0.61 3.41,-13.219 3.816,-14.922 2.316,0.203 7.914,1.297 7.914,5.801 0,0.468 0,0.738 -0.207,1.425 -0.137,0.813 -0.277,1.641 -0.277,2.391 0,4.019 2.722,6.742 6.273,6.742 2.047,0 3.879,-1.094 5.379,-3.613 1.707,-3 2.457,-6.742 2.457,-6.883 0,-0.687 -0.613,-0.687 -0.816,-0.687 -0.684,0 -0.75,0.281 -0.953,1.234 -1.364,4.973 -2.926,8.449 -5.93,8.449 -1.297,0 -2.188,-0.75 -2.188,-3.207 0,-1.156 0.282,-2.723 0.547,-3.816 0.282,-1.157 0.282,-1.426 0.282,-2.114 0,-4.425 -4.301,-6.398 -10.09,-7.148 2.113,-1.234 4.289,-3.41 5.855,-5.051 3.277,-3.613 6.41,-6.539 9.754,-6.539 0.406,0 0.473,0 0.613,0.063 0.813,0.14 0.879,0.14 1.426,0.547 0.137,0.066 0.137,0.14 0.277,0.269 -3.269,0.215 -3.89,2.863 -3.89,3.688 0,1.082 0.75,2.378 2.594,2.378 1.769,0 3.753,-1.5 3.753,-4.16 0,-2.035 -1.578,-4.285 -4.644,-4.285 -1.906,0 -5.039,0.547 -9.949,5.992 -2.317,2.594 -4.973,5.317 -7.567,6.348 l 7.094,-28.766"
             style="fill:#000000;fill-opacity:1;fill-rule:nonzero;stroke:none"
             id="path530" />
          <path
             d="m 464.977,602.234 h 9.843 c 6.121,0 8.821,-3.515 8.821,-4.437 0,-0.387 -0.332,-0.387 -0.579,-0.387 -0.191,0 -1.105,0 -3.183,1.402 l -0.234,0.196 c -0.344,0.043 -3.434,0.043 -5.114,0.043 h -8.492 c -4.055,0 -8.051,-0.043 -12.105,0 -1.348,0 -5.114,0.726 -8.778,3.515 -3.722,2.895 -3.957,5.594 -3.957,5.938 0,0.332 0.332,0.387 0.524,0.387 0.289,0 1.254,-0.192 2.507,-0.965 1.641,-1.02 1.793,-1.5 1.985,-2.274 0.816,-3.418 3.09,-3.418 4.867,-3.418 h 10.188 c -0.582,0.387 -0.872,1.102 -1.063,1.778 l -5.359,21.422 c -0.336,1.254 -1.258,4.492 -3.09,8.492 -0.387,0.812 -0.387,0.91 -0.387,1.008 0,0.339 0.387,0.339 0.582,0.339 1.156,0 3.184,-1.253 3.953,-2.078 0.676,-0.816 2.895,-6.164 3.817,-9.832 l 5.254,-21.129"
             style="fill:#000000;fill-opacity:1;fill-rule:nonzero;stroke:none"
             id="path532" />
        </g>
      </g>
      <path
         style="font-variation-settings:normal;opacity:1;fill:#ff0000;fill-opacity:0.098967;stroke:#000000;stroke-width:0.75;stroke-linecap:butt;stroke-linejoin:miter;stroke-miterlimit:4;stroke-dasharray:none;stroke-dashoffset:0;stroke-opacity:1;stop-color:#000000;stop-opacity:1"
         d="m 354.66912,187.43875 c -32.40281,-7.26484 -86.51701,-3.13614 -115.06985,16.88236 -28.55285,20.01849 -31.54348,55.92461 -30.41568,96.26241 1.12779,40.3378 6.37371,85.10464 19.60708,106.21088 13.23337,21.10624 34.45269,18.55201 71.05527,5.66047 36.60258,-12.89155 88.58622,-36.11934 105.02959,-58.56285 16.44337,-22.4435 -2.65415,-44.10232 -7.98147,-64.28438 -5.32731,-20.18206 3.11648,-38.8857 1.99287,-57.56634 -1.1236,-18.68065 -11.815,-37.33771 -44.21781,-44.60255 z"
         id="path1037"
         inkscape:path-effect="#path-effect1039"
         inkscape:original-d="m 376.37981,176.04526 c -54.11344,4.12945 -108.22764,8.25816 -162.34258,12.38611 -2.99,35.9083 -5.98063,71.81442 -8.97207,107.7205 5.24688,44.76937 10.49279,89.53621 15.73806,134.30319 21.22092,-2.55359 42.44024,-5.10783 63.65924,-7.66286 51.98646,-23.22798 103.9701,-46.45577 155.95403,-69.68478 -19.09754,-21.65894 -38.19506,-43.31777 -57.29372,-64.97778 8.44488,-18.70365 16.88867,-37.40729 25.33188,-56.11206 -10.69108,-18.65707 -21.38247,-37.31413 -32.07484,-55.97232 z" />
      <path
         style="font-variation-settings:normal;opacity:1;fill:#0050dd;fill-opacity:0.098967;stroke:#000000;stroke-width:0.75;stroke-linecap:butt;stroke-linejoin:miter;stroke-miterlimit:4;stroke-dasharray:none;stroke-dashoffset:0;stroke-opacity:1;stop-color:#000000;stop-opacity:1"
         d="m 504.05041,320.1726 c -9.76717,6.19794 -21.77449,21.30279 -27.14393,35.41452 -5.36944,14.11173 -4.1012,27.22911 -13.19239,39.86683 -9.09118,12.63772 -28.54115,24.79599 -41.34596,40.28896 -12.80482,15.49297 -18.96348,34.31906 -6.03393,44.69917 12.92954,10.38011 44.94521,12.31419 69.70114,6.84292 24.75592,-5.47127 42.25143,-18.34727 54.96418,-36.73917 12.71275,-18.3919 20.64235,-42.29902 17.8236,-65.07731 -2.81874,-22.77829 -16.38614,-44.42685 -26.93289,-56.60602 -10.54676,-12.17916 -18.07265,-14.88784 -27.83982,-8.6899 z"
         id="path1080"
         inkscape:path-effect="#path-effect1082"
         inkscape:original-d="m 506.29064,311.26561 c -12.00657,15.10559 -24.0139,30.21043 -36.02197,45.31452 1.26904,13.11865 2.53728,26.23603 3.80479,39.35292 -19.45,12.1595 -38.89997,24.31777 -58.35109,36.47553 -6.15816,18.82759 -12.31683,37.65368 -18.47636,56.4794 32.01769,1.93491 64.03336,3.869 96.04891,5.80237 17.49696,-12.87578 34.99247,-25.75178 52.48759,-38.6288 7.93066,-23.90732 15.86025,-47.81444 23.78926,-71.72278 -13.56719,-21.64867 -27.13459,-43.29723 -40.70301,-64.94697 -7.52544,-2.70804 -15.05133,-5.41671 -22.57812,-8.12619 z" />
      <path
         style="font-variation-settings:normal;opacity:1;fill:#00ff96;fill-opacity:0.098967;stroke:#000000;stroke-width:0.75;stroke-linecap:butt;stroke-linejoin:miter;stroke-miterlimit:4;stroke-dasharray:none;stroke-dashoffset:0;stroke-opacity:1;stop-color:#000000;stop-opacity:1"
         d="m 626.38955,533.39781 c -45.87572,-2.04858 -78.11249,11.55728 -99.78779,28.17408 -21.6753,16.6168 -32.78818,36.24334 -30.05977,52.03453 2.72842,15.79119 19.2967,27.74577 38.06658,31.94225 18.76988,4.19648 39.74044,0.63546 62.82348,5.1085 23.08304,4.47304 48.27684,16.97916 69.24137,24.90892 20.96453,7.92977 37.69862,11.28307 64.91113,-0.091 27.21252,-11.37407 64.90234,-37.47426 76.60033,-57.3658 11.69799,-19.89155 -2.59656,-33.57425 -39.5016,-49.26745 -36.90505,-15.69321 -96.41801,-33.39545 -142.29373,-35.44403 z"
         id="path1084"
         inkscape:path-effect="#path-effect1086"
         inkscape:original-d="m 612.75023,517.74352 c -32.23602,13.60661 -64.47279,27.21248 -96.7103,40.81758 -11.11258,19.62809 -22.22546,39.25464 -33.33932,58.88083 16.5697,11.95582 33.13798,23.9104 49.70585,35.86448 20.97214,-3.56041 41.94269,-7.12143 62.9129,-10.68327 25.19558,12.50738 50.38938,25.01349 75.58295,37.51911 16.73552,3.35419 33.46961,6.70749 50.20328,10.06011 37.69208,-26.10047 75.38191,-52.20064 113.07166,-78.30209 -14.2944,-13.6825 -28.58895,-27.36521 -42.88455,-41.04894 -59.51461,-17.70221 -119.02757,-35.40446 -178.54247,-53.10781 z" />
      <path
         style="font-variation-settings:normal;opacity:1;fill:#f1ff00;fill-opacity:0.098967;stroke:#000000;stroke-width:0.75;stroke-linecap:butt;stroke-linejoin:miter;stroke-miterlimit:4;stroke-dasharray:none;stroke-dashoffset:0;stroke-opacity:1;stop-color:#000000;stop-opacity:1"
         d="m 666.86999,276.23896 c 22.34633,-4.91512 62.40847,-1.76515 98.57582,7.69758 36.16734,9.46272 68.43686,25.23705 90.90733,54.22735 22.47047,28.99029 35.14105,71.19319 39.24759,100.18139 4.10655,28.9882 -0.35102,44.75849 -16.22727,55.01092 -15.87625,10.25244 -43.17046,14.98641 -61.31457,16.81616 -18.14411,1.82975 -27.13729,0.75502 -52.25859,-27.98687 -25.1213,-28.74189 -66.36863,-85.1494 -90.81223,-118.93935 -24.44361,-33.78996 -32.08235,-44.96081 -33.58772,-57.03663 -1.50538,-12.07582 3.1233,-25.05544 25.46964,-29.97055 z"
         id="path1166"
         inkscape:path-effect="#path-effect1168"
         inkscape:original-d="m 649.15259,268.17375 c 40.06368,3.15078 80.12582,6.30075 120.18881,9.45009 32.2716,15.77573 64.54111,31.55006 96.8106,47.32399 12.67209,42.20621 25.34267,84.4091 38.01328,126.61386 -4.45711,15.77204 -8.91468,31.54233 -13.37328,47.31287 -27.29464,4.73493 -54.58885,9.46891 -81.88443,14.20224 -8.99287,-1.07403 -17.98605,-2.14877 -26.9802,-3.22428 C 740.67912,453.44351 699.4318,397.036 658.1829,340.62661 c -7.63828,-11.17054 -15.27701,-22.34139 -22.91665,-33.51321 4.62963,-12.97939 9.2583,-25.95901 13.88634,-38.93965 z"
         sodipodi:nodetypes="cccccccccc" />
      <path
         style="fill:none;stroke:#000000;stroke-width:2.25;stroke-linecap:butt;stroke-linejoin:miter;stroke-dasharray:4.5, 2.25;stroke-dashoffset:0;stroke-opacity:1"
         d="M 589.79147,12.00299 C 567.09491,11.818132 537.1767,12.796131 484.99206,15.507408 432.80741,18.218684 358.36205,22.662949 286.82762,50.401643 215.29319,78.140337 146.6775,129.1712 110.82207,208.90454 c -35.855425,79.73334 -38.948892,188.16082 -5.39128,283.1381 33.5576,94.97728 103.76154,176.49288 195.30649,224.42181 91.54495,47.92893 204.42205,62.26641 301.80275,61.68832 97.38071,-0.5781 179.25811,-16.07092 240.68582,-47.17366 61.4277,-31.10274 102.39901,-77.81184 127.19428,-152.65584 24.79527,-74.844 33.41167,-177.81661 10.68846,-269.47786 C 958.38536,217.18417 904.32488,136.841 842.82165,89.731687 781.31843,42.62237 712.37958,28.753229 670.17074,21.144345 627.96191,13.535462 612.48803,12.187848 589.79147,12.00299 Z"
         id="path3409"
         inkscape:path-effect="#path-effect3411"
         inkscape:original-d="m 597.01303,10.840136 c -29.91809,0.97877 -59.8363,1.956769 -89.75648,2.934058 C 432.80746,18.219476 358.3621,22.663741 283.91151,27.107523 215.29382,78.14118 146.67813,129.17204 78.060317,180.20317 74.967415,288.6379 71.873949,397.06538 68.779547,505.49862 138.98845,587.01987 209.19239,668.53546 279.39979,750.05521 c 112.88236,14.33881 225.75946,28.6763 338.63806,43.01332 81.88305,-15.493 163.76045,-30.98583 245.64199,-46.48032 40.97451,-46.71114 81.94582,-93.42024 122.91883,-140.13288 C 995.2162,503.47934 1003.8326,400.50672 1012.4485,297.53129 958.38553,217.18405 904.32505,136.84089 850.26059,56.492177 781.31831,42.622946 712.37946,28.753804 643.43562,14.883061 627.96185,13.536141 612.48797,12.188527 597.01303,10.840136 Z"
         sodipodi:nodetypes="ccccccccccccc" />
      <g
         id="g15639" />
    </g>
  </g>
</svg>
