<?xml version="1.0" encoding="UTF-8" standalone="no"?>
<!-- Created with Inkscape (http://www.inkscape.org/) -->

<svg
   version="1.1"
   id="svg2"
   xml:space="preserve"
   width="665.33331"
   height="332"
   viewBox="0 0 665.33331 332"
   sodipodi:docname="ir_energy_projections_artistic.svg"
   inkscape:version="1.1.2 (1:1.1+202202050950+0a00cf5339)"
   inkscape:export-filename="/home/fernando/Pictures/samis_presentation/ir_energy_projections_artistic.png"
   inkscape:export-xdpi="150"
   inkscape:export-ydpi="150"
   xmlns:inkscape="http://www.inkscape.org/namespaces/inkscape"
   xmlns:sodipodi="http://sodipodi.sourceforge.net/DTD/sodipodi-0.dtd"
   xmlns="http://www.w3.org/2000/svg"
   xmlns:svg="http://www.w3.org/2000/svg"><defs
     id="defs6"><marker
       style="overflow:visible"
       id="TriangleOutL"
       refX="0.0"
       refY="0.0"
       orient="auto"
       inkscape:stockid="TriangleOutL"
       inkscape:isstock="true"><path
         transform="scale(0.8)"
         style="fill-rule:evenodd;fill:context-stroke;stroke:context-stroke;stroke-width:1.0pt"
         d="M 5.77,0.0 L -2.88,5.0 L -2.88,-5.0 L 5.77,0.0 z "
         id="path1575" /></marker><marker
       style="overflow:visible"
       id="DotL"
       refX="0.0"
       refY="0.0"
       orient="auto"
       inkscape:stockid="DotL"
       inkscape:isstock="true"><path
         transform="scale(0.8) translate(7.4, 1)"
         style="fill-rule:evenodd;fill:context-stroke;stroke:context-stroke;stroke-width:1.0pt"
         d="M -2.5,-1.0 C -2.5,1.7600000 -4.7400000,4.0 -7.5,4.0 C -10.260000,4.0 -12.5,1.7600000 -12.5,-1.0 C -12.5,-3.7600000 -10.260000,-6.0 -7.5,-6.0 C -4.7400000,-6.0 -2.5,-3.7600000 -2.5,-1.0 z "
         id="path1494" /></marker><marker
       style="overflow:visible;"
       id="Arrow2Lend"
       refX="0.0"
       refY="0.0"
       orient="auto"
       inkscape:stockid="Arrow2Lend"
       inkscape:isstock="true"><path
         transform="scale(1.1) rotate(180) translate(1,0)"
         d="M 8.7185878,4.0337352 L -2.2072895,0.016013256 L 8.7185884,-4.0017078 C 6.9730900,-1.6296469 6.9831476,1.6157441 8.7185878,4.0337352 z "
         style="stroke:context-stroke;fill-rule:evenodd;fill:context-stroke;stroke-width:0.62500000;stroke-linejoin:round;"
         id="path1454" /></marker><marker
       style="overflow:visible"
       id="Arrow1Lstart"
       refX="0.0"
       refY="0.0"
       orient="auto"
       inkscape:stockid="Arrow1Lstart"
       inkscape:isstock="true"><path
         transform="scale(0.8) translate(12.5,0)"
         style="fill-rule:evenodd;fill:context-stroke;stroke:context-stroke;stroke-width:1.0pt"
         d="M 0.0,0.0 L 5.0,-5.0 L -12.5,0.0 L 5.0,5.0 L 0.0,0.0 z "
         id="path1433" /></marker></defs><sodipodi:namedview
     id="namedview4"
     pagecolor="#ffffff"
     bordercolor="#666666"
     borderopacity="1.0"
     inkscape:pageshadow="2"
     inkscape:pageopacity="0.0"
     inkscape:pagecheckerboard="0"
     showgrid="false"
     inkscape:zoom="1.0784068"
     inkscape:cx="270.76979"
     inkscape:cy="132.60302"
     inkscape:window-width="1920"
     inkscape:window-height="1163"
     inkscape:window-x="0"
     inkscape:window-y="0"
     inkscape:window-maximized="1"
     inkscape:current-layer="g10" /><g
     id="g8"
     inkscape:groupmode="layer"
     inkscape:label="ir_energy_projections"
     transform="matrix(1.3333333,0,0,-1.3333333,0,332)"><g
       id="g10"
       transform="scale(0.1)"><path
         d="M 0,0 H 4988.96 V 2494.49 H 0 Z"
         style="fill:#ffffff;fill-opacity:1;fill-rule:nonzero;stroke:none"
         id="path12" /><path
         d="M 0,0 H 4988.96 V 2494.49 H 0 Z"
         style="fill:#ffffff;fill-opacity:1;fill-rule:nonzero;stroke:none"
         id="path14" /><path
         d="m 645.188,456.938 h 3871.14 v 1850.28 H 645.188 Z"
         style="fill:#ffffff;fill-opacity:1;fill-rule:nonzero;stroke:none"
         id="path16" /><g
         id="g136"
         transform="scale(1.00075,-0.999253)"
         style="stroke:#0010ff;stroke-opacity:1;stroke-width:29.99996415;stroke-miterlimit:4;stroke-dasharray:none;fill:#ffffff;fill-opacity:1"><path
           d="m 2095.3,-654.665 241.77,-49.326 241.76,-61.698 241.77,-77.034 241.76,-96.428 241.77,-120.429 241.76,-150.58 241.77,-188.2 241.76,-235.31 241.77,-294.13 241.76,-367.58"
           style="fill:#ffffff;stroke:#0010ff;stroke-width:29.99996415;stroke-linecap:butt;stroke-linejoin:bevel;stroke-miterlimit:4;stroke-dasharray:none;stroke-dashoffset:0;stroke-opacity:1;fill-opacity:1"
           id="path138" /></g><g
         id="g18"
         transform="scale(1.00075,-0.999253)"><path
           d="M 644.706,-457.279 H 4512.95"
           style="fill:none;stroke:#262626;stroke-width:5.00023;stroke-linecap:square;stroke-linejoin:round;stroke-miterlimit:10;stroke-dasharray:none;stroke-opacity:1"
           id="path20" /></g><g
         id="g22"
         transform="scale(1.00075,-0.999253)"><path
           d="M 886.475,-457.279 V -495.96"
           style="fill:none;stroke:#262626;stroke-width:5.00023;stroke-linecap:square;stroke-linejoin:round;stroke-miterlimit:10;stroke-dasharray:none;stroke-opacity:1"
           id="path24" /></g><g
         id="g26"
         transform="scale(1.00075,-0.999253)"><path
           d="M 2095.3,-457.279 V -495.96"
           style="fill:none;stroke:#262626;stroke-width:5.00023;stroke-linecap:square;stroke-linejoin:round;stroke-miterlimit:10;stroke-dasharray:none;stroke-opacity:1"
           id="path28" /></g><g
         id="g30"
         transform="scale(1.00075,-0.999253)"><path
           d="M 3304.13,-457.279 V -495.96"
           style="fill:none;stroke:#262626;stroke-width:5.00023;stroke-linecap:square;stroke-linejoin:round;stroke-miterlimit:10;stroke-dasharray:none;stroke-opacity:1"
           id="path32" /></g><g
         id="g34"
         transform="scale(1.00075,-0.999253)"><path
           d="M 4512.95,-457.279 V -495.96"
           style="fill:none;stroke:#262626;stroke-width:5.00023;stroke-linecap:square;stroke-linejoin:round;stroke-miterlimit:10;stroke-dasharray:none;stroke-opacity:1"
           id="path36" /></g><g
         id="g38"
         transform="scale(10)"><text
           transform="matrix(1,0,0,-0.99850225,72.584,25.5191)"
           style="font-variant:normal;font-weight:normal;font-size:16.0046px;font-family:'Times New Roman';-inkscape-font-specification:Times-Roman;writing-mode:lr-tb;fill:#262626;fill-opacity:1;fill-rule:nonzero;stroke:none"
           id="text42"><tspan
             x="0 8.002285 16.00457 24.006857 120.97439 128.97667 136.97896 144.98125 241.94846 249.95074 257.95303 265.95532 362.92285 370.92514 378.92743 386.92972"
             y="0"
             sodipodi:role="line"
             id="tspan40">2010201520202025</tspan></text></g><path
         d="m 2443.5,63.2813 v 6.0898 c 11.8,0 17.7,1.793 17.7,5.3789 v 35.582 l -36.22,59.465 c -1.64,2.262 -3.98,3.687 -7.03,4.269 -3.05,0.586 -6.88,0.879 -11.49,0.879 v 6.09 h 48.53 v -6.09 c -8.05,0 -12.07,-1.328 -12.07,-3.98 0,-0.235 0.12,-0.664 0.35,-1.289 l 31.18,-51.5 28.49,46.707 c 0.77,1.09 1.17,2.258 1.17,3.508 0,2.261 -1,3.918 -2.99,4.972 -1.99,1.055 -4.24,1.582 -6.74,1.582 v 6.09 h 37.39 v -6.09 c -4.45,0 -8.61,-0.8 -12.48,-2.398 -3.87,-1.598 -6.9,-4.074 -9.09,-7.43 l -33.41,-54.785 V 74.75 c 0,-3.5859 5.9,-5.3789 17.71,-5.3789 v -6.0898 h -51"
         style="fill:#262626;fill-opacity:1;fill-rule:nonzero;stroke:none"
         id="path44" /><path
         d="m 2564.86,61.2891 c -7.04,0 -13.49,1.8554 -19.35,5.5664 -5.85,3.707 -10.46,8.6211 -13.83,14.7422 -3.36,6.1289 -5.04,12.625 -5.04,19.4923 0,6.711 1.53,13.09 4.57,19.14 3.05,6.047 7.31,10.942 12.78,14.688 5.47,3.746 11.6,5.621 18.4,5.621 5.24,0 9.81,-0.879 13.72,-2.637 3.91,-1.757 7.13,-4.214 9.67,-7.371 2.54,-3.164 4.45,-6.871 5.74,-11.125 1.29,-4.25 1.94,-8.953 1.94,-14.105 0,-1.481 -0.59,-2.219 -1.76,-2.219 h -49.94 v -1.871 c 0,-9.5235 1.92,-17.6993 5.75,-24.5274 3.83,-6.8281 10.12,-10.2383 18.87,-10.2383 3.52,0 6.78,0.7774 9.78,2.336 3.02,1.5625 5.61,3.746 7.8,6.5546 2.19,2.8125 3.72,5.8164 4.58,9.0196 0.07,0.3906 0.26,0.7383 0.58,1.0468 0.31,0.3165 0.67,0.4727 1.06,0.4727 h 1.52 c 1.17,0 1.76,-0.7422 1.76,-2.2227 -1.64,-6.4804 -5.16,-11.8242 -10.55,-16.039 -5.39,-4.2149 -11.41,-6.3242 -18.05,-6.3242 z m -22.98,46.1249 h 39.39 c 0,4.289 -0.61,8.656 -1.82,13.106 -1.21,4.445 -3.22,8.132 -6.04,11.058 -2.81,2.926 -6.48,4.391 -11.02,4.391 -6.56,0 -11.62,-3.043 -15.18,-9.133 -3.55,-6.082 -5.33,-12.559 -5.33,-19.422"
         style="fill:#262626;fill-opacity:1;fill-rule:nonzero;stroke:none"
         id="path46" /><path
         d="m 2607,80.1367 c 0,6.8672 2.7,12.4453 8.09,16.7344 5.39,4.2969 11.86,7.3199 19.4,9.0739 7.54,1.758 14.71,2.637 21.51,2.637 v 7.137 c 0,3.277 -0.73,6.476 -2.17,9.597 -1.45,3.122 -3.56,5.676 -6.33,7.672 -2.78,1.985 -5.81,2.981 -9.09,2.981 -7.66,0 -13.48,-1.715 -17.46,-5.149 2.19,0 4,-0.816 5.45,-2.457 1.44,-1.64 2.17,-3.554 2.17,-5.738 0,-2.34 -0.82,-4.312 -2.46,-5.91 -1.65,-1.598 -3.56,-2.395 -5.75,-2.395 -2.34,0 -4.34,0.797 -5.98,2.395 -1.64,1.598 -2.46,3.57 -2.46,5.91 0,6.008 2.76,10.496 8.26,13.461 5.51,2.969 11.59,4.453 18.23,4.453 4.69,0 9.38,-0.996 14.07,-2.992 4.69,-1.984 8.54,-4.832 11.54,-8.539 3.02,-3.711 4.52,-8.024 4.52,-12.938 V 77.207 c 0,-2.1797 0.49,-4.2265 1.46,-6.1406 0.98,-1.9141 2.48,-2.8711 4.52,-2.8711 1.87,0 3.28,0.957 4.21,2.8711 0.95,1.9141 1.41,3.9609 1.41,6.1406 v 11.0039 h 5.05 V 77.207 c 0,-2.5703 -0.69,-5.0078 -2.06,-7.3086 -1.36,-2.3046 -3.18,-4.1562 -5.45,-5.5586 -2.27,-1.4101 -4.73,-2.1132 -7.38,-2.1132 -3.37,0 -6.26,1.3086 -8.68,3.9257 -2.42,2.6094 -3.78,5.711 -4.1,9.3047 -2.11,-4.2929 -5.24,-7.7265 -9.38,-10.3007 -4.14,-2.5782 -8.59,-3.8672 -13.36,-3.8672 -4.38,0 -8.67,0.664 -12.9,1.9922 -4.22,1.3281 -7.75,3.3789 -10.6,6.1445 -2.85,2.7695 -4.28,6.3437 -4.28,10.7109 z m 13.95,0 c 0,-3.9804 1.48,-7.3515 4.45,-10.1211 2.97,-2.7695 6.49,-4.1562 10.55,-4.1562 3.75,0 7.13,0.9375 10.14,2.8086 3.01,1.875 5.41,4.4062 7.21,7.6054 1.8,3.1993 2.7,6.5547 2.7,10.0664 V 104.25 c -5.24,0 -10.59,-0.859 -16.07,-2.574 -5.46,-1.719 -9.99,-4.3908 -13.59,-8.0158 -3.6,-3.6329 -5.39,-8.1407 -5.39,-13.5235"
         style="fill:#262626;fill-opacity:1;fill-rule:nonzero;stroke:none"
         id="path48" /><path
         d="m 2692.56,63.2813 v 6.0898 c 3.91,0 7.13,0.3125 9.67,0.9375 2.54,0.625 3.81,2.1055 3.81,4.4414 v 47.059 c 0,3.121 -0.47,5.363 -1.41,6.726 -0.93,1.363 -2.26,2.203 -3.98,2.52 -1.72,0.308 -4.42,0.465 -8.09,0.465 v 6.089 l 24.74,1.75 v -16.734 c 1.79,4.996 4.41,9.031 7.85,12.113 3.44,3.082 7.62,4.621 12.55,4.621 3.35,0 6.38,-0.992 9.07,-2.98 2.7,-1.992 4.05,-4.664 4.05,-8.016 0,-2.031 -0.74,-3.828 -2.22,-5.386 -1.49,-1.563 -3.33,-2.344 -5.52,-2.344 -2.11,0 -3.92,0.762 -5.44,2.285 -1.53,1.523 -2.29,3.34 -2.29,5.445 0,3.121 1.09,5.309 3.28,6.555 h -0.93 c -4.7,0 -8.51,-1.676 -11.44,-5.031 -2.93,-3.36 -5.02,-7.532 -6.27,-12.528 -1.25,-4.992 -1.88,-9.754 -1.88,-14.277 V 74.75 c 0,-3.5859 5.59,-5.3789 16.77,-5.3789 v -6.0898 h -42.32"
         style="fill:#262626;fill-opacity:1;fill-rule:nonzero;stroke:none"
         id="path50" /><g
         id="g52"
         transform="scale(1.00075,-0.999253)"><path
           d="M 644.706,-457.279 V -2308.94"
           style="fill:none;stroke:#262626;stroke-width:5.00023;stroke-linecap:square;stroke-linejoin:round;stroke-miterlimit:10;stroke-dasharray:none;stroke-opacity:1"
           id="path54" /></g><g
         id="g56"
         transform="scale(1.00075,-0.999253)"><path
           d="m 644.706,-457.279 h 38.69"
           style="fill:none;stroke:#262626;stroke-width:5.00023;stroke-linecap:square;stroke-linejoin:round;stroke-miterlimit:10;stroke-dasharray:none;stroke-opacity:1"
           id="path58" /></g><g
         id="g60"
         transform="scale(1.00075,-0.999253)"><path
           d="m 644.706,-827.61 h 38.69"
           style="fill:none;stroke:#262626;stroke-width:5.00023;stroke-linecap:square;stroke-linejoin:round;stroke-miterlimit:10;stroke-dasharray:none;stroke-opacity:1"
           id="path62" /></g><g
         id="g64"
         transform="scale(1.00075,-0.999253)"><path
           d="m 644.706,-1197.94 h 38.69"
           style="fill:none;stroke:#262626;stroke-width:5.00023;stroke-linecap:square;stroke-linejoin:round;stroke-miterlimit:10;stroke-dasharray:none;stroke-opacity:1"
           id="path66" /></g><g
         id="g68"
         transform="scale(1.00075,-0.999253)"><path
           d="m 644.706,-1568.27 h 38.69"
           style="fill:none;stroke:#262626;stroke-width:5.00023;stroke-linecap:square;stroke-linejoin:round;stroke-miterlimit:10;stroke-dasharray:none;stroke-opacity:1"
           id="path70" /></g><g
         id="g72"
         transform="scale(1.00075,-0.999253)"><path
           d="m 644.706,-1938.6 h 38.69"
           style="fill:none;stroke:#262626;stroke-width:5.00023;stroke-linecap:square;stroke-linejoin:round;stroke-miterlimit:10;stroke-dasharray:none;stroke-opacity:1"
           id="path74" /></g><g
         id="g76"
         transform="scale(1.00075,-0.999253)"><path
           d="m 644.706,-2308.94 h 38.69"
           style="fill:none;stroke:#262626;stroke-width:5.00023;stroke-linecap:square;stroke-linejoin:round;stroke-miterlimit:10;stroke-dasharray:none;stroke-opacity:1"
           id="path78" /></g><g
         id="g80"
         transform="scale(10)"><text
           transform="matrix(1,0,0,-0.99850225,51.0656,40.0766)"
           style="font-variant:normal;font-weight:normal;font-size:16.0046px;font-family:'Times New Roman';-inkscape-font-specification:Times-Roman;writing-mode:lr-tb;fill:#262626;fill-opacity:1;fill-rule:nonzero;stroke:none"
           id="text94"><tspan
             x="0"
             y="0"
             id="tspan82">0</tspan><tspan
             x="-15.754797 -7.7525115 0.2497741"
             y="-37.061008"
             sodipodi:role="line"
             id="tspan84">500</tspan><tspan
             x="-24.007177 -16.00489 -8.0026064 -0.00032048"
             y="-74.121613"
             sodipodi:role="line"
             id="tspan86">1000</tspan><tspan
             x="-24.007177 -16.00489 -8.0026064 -0.00032048"
             y="-111.18262"
             sodipodi:role="line"
             id="tspan88">1500</tspan><tspan
             x="-24.007177 -16.00489 -8.0026064 -0.00032048"
             y="-148.24364"
             sodipodi:role="line"
             id="tspan90">2000</tspan><tspan
             x="-24.007177 -16.00489 -8.0026064 -0.00032048"
             y="-185.30424"
             sodipodi:role="line"
             id="tspan92">2500</tspan></text></g><path
         d="m 177.191,637.469 h -6.101 c 0,11.863 -1.797,17.793 -5.387,17.793 H 70.8672 c -3.668,0 -5.5039,-5.93 -5.5039,-17.793 h -6.1016 v 97.496 l 39.6211,4.801 v -5.032 c -10.0039,-1.25 -17.25,-2.964 -21.7422,-5.148 -4.4922,-2.188 -7.5781,-5.719 -9.2578,-10.594 -1.6797,-4.879 -2.5195,-12.234 -2.5195,-22.066 V 680.07 c 0,-2.105 0.0976,-3.726 0.293,-4.855 0.1914,-1.133 0.6796,-2.067 1.4609,-2.809 0.7812,-0.742 2.0312,-1.113 3.75,-1.113 h 42.0818 v 12.762 c 0,5.847 -0.488,10.218 -1.465,13.109 -0.972,2.887 -2.851,4.875 -5.625,5.965 -2.777,1.094 -7.0934,1.641 -12.9488,1.641 v 5.031 h 46.2968 v -5.031 c -5.859,0 -10.195,-0.547 -13.012,-1.641 -2.808,-1.09 -4.703,-3.078 -5.683,-5.965 -0.977,-2.891 -1.465,-7.262 -1.465,-13.109 v -12.762 h 46.656 c 2.422,0 3.926,0.703 4.508,2.109 0.586,1.407 0.879,3.629 0.879,6.668 v 18.262 c 0,7.961 -0.625,14.398 -1.875,19.313 -1.25,4.914 -3.36,8.738 -6.324,11.468 -2.973,2.735 -6.801,4.84 -11.493,6.325 -4.687,1.48 -11.171,2.847 -19.453,4.097 v 5.031 l 45.246,-7.257 v -99.84"
         style="fill:#262626;fill-opacity:1;fill-rule:nonzero;stroke:none"
         id="path96" /><path
         d="m 177.191,756.988 h -6.101 c 0,3.899 -0.313,7.117 -0.938,9.657 -0.625,2.535 -2.109,3.804 -4.449,3.804 h -47.129 c -3.125,0 -5.371,-0.469 -6.734,-1.406 -1.367,-0.934 -2.207,-2.262 -2.524,-3.98 -0.308,-1.715 -0.464,-4.411 -0.464,-8.075 h -6.098 l -1.758,24.93 h 16.762 c -4.922,2.344 -8.945,5.777 -12.07,10.301 -3.129,4.523 -4.692,9.441 -4.692,14.75 0,7.953 1.895,13.941 5.68,17.965 3.793,4.019 9.633,6.027 17.527,6.027 h 41.5 c 2.34,0 3.824,1.25 4.449,3.746 0.625,2.496 0.938,5.734 0.938,9.715 h 6.101 v -39.445 h -6.101 c 0,3.898 -0.313,7.117 -0.938,9.656 -0.625,2.535 -2.109,3.805 -4.449,3.805 h -41.027 c -5.629,0 -10.238,-0.821 -13.836,-2.458 -3.594,-1.636 -5.395,-4.996 -5.395,-10.07 0,-6.629 2.66,-12.094 7.977,-16.387 5.312,-4.293 11.367,-6.437 18.168,-6.437 h 34.113 c 2.34,0 3.824,1.25 4.449,3.746 0.625,2.496 0.938,5.695 0.938,9.598 h 6.101 v -39.442"
         style="fill:#262626;fill-opacity:1;fill-rule:nonzero;stroke:none"
         id="path98" /><path
         d="m 179.184,892.457 c 0,-7.027 -1.856,-13.469 -5.575,-19.32 -3.711,-5.848 -8.629,-10.449 -14.761,-13.805 -6.137,-3.359 -12.645,-5.035 -19.524,-5.035 -6.719,0 -13.109,1.519 -19.168,4.562 -6.054,3.047 -10.957,7.297 -14.711,12.758 -3.75,5.461 -5.6247,11.586 -5.6247,18.375 0,5.227 0.8787,9.793 2.6407,13.699 1.762,3.903 4.219,7.122 7.383,9.657 3.164,2.531 6.879,4.441 11.14,5.73 4.254,1.289 8.965,1.934 14.125,1.934 1.481,0 2.223,-0.586 2.223,-1.754 v -49.867 h 1.875 c 9.535,0 17.723,1.914 24.563,5.738 6.835,3.824 10.253,10.109 10.253,18.848 0,3.511 -0.781,6.765 -2.339,9.769 -1.567,3.004 -3.754,5.598 -6.567,7.781 -2.812,2.188 -5.824,3.711 -9.031,4.571 -0.391,0.074 -0.738,0.269 -1.051,0.582 -0.316,0.312 -0.472,0.664 -0.472,1.058 v 1.52 c 0,1.168 0.742,1.754 2.23,1.754 6.484,-1.637 11.84,-5.149 16.059,-10.532 4.222,-5.386 6.332,-11.394 6.332,-18.023 z m -46.188,-22.945 v 39.328 c -4.297,0 -8.676,-0.606 -13.129,-1.813 -4.453,-1.211 -8.144,-3.218 -11.074,-6.031 -2.934,-2.808 -4.398,-6.476 -4.398,-11.004 0,-6.554 3.05,-11.605 9.148,-15.156 6.09,-3.551 12.574,-5.324 19.453,-5.324"
         style="fill:#262626;fill-opacity:1;fill-rule:nonzero;stroke:none"
         id="path100" /><path
         d="m 177.191,932.074 h -6.101 c 0,3.903 -0.313,7.121 -0.938,9.656 -0.625,2.532 -2.109,3.801 -4.449,3.797 h -47.129 c -3.125,0.004 -5.371,-0.464 -6.734,-1.398 -1.367,-0.938 -2.207,-2.266 -2.524,-3.977 -0.308,-1.718 -0.464,-4.41 -0.464,-8.078 h -6.098 l -1.758,24.692 h 16.762 c -5.004,1.797 -9.047,4.414 -12.133,7.843 -3.086,3.434 -4.629,7.61 -4.629,12.524 0,3.355 0.996,6.379 2.988,9.074 1.996,2.691 4.672,4.035 8.028,4.035 2.035,0 3.832,-0.742 5.394,-2.222 1.563,-1.485 2.348,-3.317 2.348,-5.5 0,-2.106 -0.766,-3.922 -2.289,-5.446 -1.527,-1.519 -3.344,-2.277 -5.453,-2.277 -3.129,0 -5.317,1.09 -6.567,3.273 v -0.937 c 0,-4.68 1.68,-8.481 5.043,-11.406 3.36,-2.93 7.543,-5.016 12.543,-6.266 5,-1.246 9.77,-1.871 14.301,-1.871 h 28.371 c 3.59,0 5.387,5.578 5.387,16.734 h 6.101 v -42.25"
         style="fill:#262626;fill-opacity:1;fill-rule:nonzero;stroke:none"
         id="path102" /><path
         d="m 190.672,1001.28 c -4.067,0 -7.645,1.48 -10.731,4.44 -3.086,2.97 -5.253,6.52 -6.503,10.65 -1.793,-2.34 -4.004,-4.12 -6.625,-5.32 -2.614,-1.21 -5.407,-1.82 -8.379,-1.82 -5.391,0 -10.157,1.72 -14.297,5.16 -5.239,-5.23 -11.176,-7.85 -17.821,-7.85 -3.593,0 -6.976,0.76 -10.14,2.28 -3.168,1.52 -5.903,3.67 -8.207,6.44 -2.309,2.77 -4.047,5.83 -5.215,9.19 -1.172,3.35 -1.758,6.78 -1.758,10.3 0,6.86 1.996,12.99 5.981,18.37 -2.582,2.42 -4.555,5.24 -5.926,8.43 -1.3674,3.2 -2.051,6.56 -2.051,10.07 0,2.42 0.8828,4.43 2.641,6.03 1.757,1.6 3.886,2.4 6.386,2.4 1.407,0 2.637,-0.55 3.692,-1.64 1.054,-1.09 1.582,-2.34 1.582,-3.75 0,-1.41 -0.528,-2.65 -1.582,-3.75 -1.055,-1.09 -2.285,-1.63 -3.692,-1.63 -2.109,0 -3.597,0.7 -4.457,2.11 0,-5.94 2.035,-11.01 6.098,-15.22 2.113,2.03 4.672,3.69 7.676,4.97 3.011,1.29 6.004,1.94 8.972,1.94 4.844,0 9.219,-1.35 13.129,-4.04 3.907,-2.7 6.953,-6.25 9.137,-10.65 2.191,-4.41 3.289,-8.96 3.289,-13.64 0,-6.25 -1.723,-11.98 -5.164,-17.21 2.273,-1.64 4.773,-2.46 7.504,-2.46 3.051,0 5.73,1 8.035,2.99 2.305,1.99 3.457,4.51 3.457,7.56 v 14.04 c 0,6.87 0.606,13.05 1.817,18.54 1.21,5.51 3.671,10.13 7.382,13.88 3.711,3.75 8.969,5.62 15.77,5.62 5.074,0 9.273,-2.15 12.594,-6.44 3.328,-4.29 5.73,-9.39 7.211,-15.28 1.484,-5.88 2.23,-11.37 2.23,-16.44 0,-5.07 -0.746,-10.6 -2.23,-16.57 -1.481,-5.96 -3.883,-11.07 -7.211,-15.33 -3.321,-4.25 -7.52,-6.37 -12.594,-6.37 z m 0,9.7 c 3.906,0 7.148,1.57 9.73,4.69 2.575,3.12 4.508,6.9 5.797,11.35 1.293,4.45 1.938,8.63 1.938,12.53 0,3.9 -0.645,8.06 -1.938,12.47 -1.289,4.4 -3.222,8.17 -5.797,11.29 -2.582,3.12 -5.824,4.68 -9.73,4.68 -6.016,0 -9.906,-2.75 -11.668,-8.25 -1.754,-5.5 -2.633,-12.19 -2.633,-20.07 v -14.04 c 0,-2.67 0.625,-5.1 1.875,-7.33 1.25,-2.22 3.012,-4 5.277,-5.32 2.266,-1.33 4.649,-2 7.149,-2 z m -43.492,23.77 c 0,9.75 -6.953,14.63 -20.864,14.63 -6.015,0 -10.98,-1.04 -14.89,-3.1 -3.906,-2.07 -5.86,-5.91 -5.86,-11.53 0,-5.62 1.954,-9.46 5.86,-11.53 3.91,-2.07 8.875,-3.1 14.89,-3.1 3.829,0 7.282,0.39 10.368,1.17 3.093,0.78 5.613,2.24 7.562,4.39 1.957,2.14 2.934,5.17 2.934,9.07"
         style="fill:#262626;fill-opacity:1;fill-rule:nonzero;stroke:none"
         id="path104" /><path
         d="m 205.555,1096.19 c 1.722,2.19 2.582,4.61 2.582,7.26 0,7.25 -5.473,13.18 -16.414,17.79 l -14.532,5.85 -63.418,-25.87 c -2.109,-1.01 -3.457,-2.61 -4.043,-4.79 -0.585,-2.19 -0.878,-5.12 -0.878,-8.78 h -6.098 v 36.17 h 6.098 c 0,-6.33 1.367,-9.49 4.097,-9.49 0.469,0 0.821,0.04 1.059,0.12 l 47.121,19.19 -42.434,17.33 c -0.859,0.31 -1.84,0.46 -2.933,0.46 -1.407,0 -2.637,-0.39 -3.692,-1.16 -1.054,-0.78 -1.855,-1.76 -2.402,-2.93 -0.543,-1.17 -0.816,-2.54 -0.816,-4.09 h -6.098 v 28.67 h 6.098 c 0,-3.59 0.82,-6.71 2.461,-9.36 1.64,-2.65 4.062,-4.72 7.261,-6.2 l 73.149,-29.73 c 3.675,-1.57 7.074,-3.4 10.203,-5.5 3.125,-2.11 5.683,-4.69 7.672,-7.74 1.996,-3.03 2.996,-6.35 2.996,-9.94 0,-4.22 -1.391,-7.9 -4.164,-11.06 -2.778,-3.16 -6.235,-4.74 -10.375,-4.74 -2.114,0 -3.891,0.72 -5.336,2.16 -1.446,1.45 -2.168,3.26 -2.168,5.44 0,1.41 0.312,2.7 0.937,3.87 0.625,1.17 1.508,2.06 2.641,2.68 1.133,0.63 2.437,0.94 3.926,0.94 1.875,0 3.535,-0.6 4.98,-1.81 1.445,-1.21 2.285,-2.79 2.52,-4.74"
         style="fill:#262626;fill-opacity:1;fill-rule:nonzero;stroke:none"
         id="path106" /><path
         d="M 220.328,1256.11 H 47.7773 v 23.53 h 6.918 v -16.63 H 213.41 v 16.63 h 6.918 v -23.53"
         style="fill:#262626;fill-opacity:1;fill-rule:nonzero;stroke:none"
         id="path108" /><path
         d="m 177.191,1293 c 0,-1.09 -0.746,-1.63 -2.23,-1.63 -0.309,0 -0.816,0.09 -1.523,0.29 -0.704,0.19 -1.274,0.43 -1.704,0.7 -0.429,0.27 -0.644,0.64 -0.644,1.11 0,7.02 -0.391,11.94 -1.168,14.75 -0.473,1.48 -1.996,2.53 -4.57,3.16 l -94.8364,23.64 c -1.0937,0.24 -1.875,0.36 -2.3398,0.36 -1.25,0 -1.957,-0.67 -2.1172,-2 -0.4648,-2.18 -0.6953,-6.32 -0.6953,-12.4 0,-1.18 -0.7422,-1.76 -2.2305,-1.76 -0.3125,0.08 -0.8203,0.19 -1.5234,0.35 -0.7031,0.16 -1.2696,0.39 -1.7031,0.7 -0.4297,0.31 -0.6446,0.7 -0.6446,1.17 v 59.47 c 0,5.45 0.9805,10.74 2.9336,15.86 1.9531,5.11 4.918,9.28 8.9063,12.52 3.9843,3.24 8.832,4.85 14.539,4.85 7.2657,0 13.7696,-2.57 19.5114,-7.72 5.746,-5.15 10.223,-11.55 13.422,-19.2 3.207,-7.65 4.809,-15.06 4.809,-22.23 v -27.98 l 42.555,-10.53 c 1.167,-0.24 1.988,-0.35 2.46,-0.35 0.469,0 0.86,0.07 1.168,0.23 0.317,0.16 0.512,0.35 0.586,0.59 0.082,0.23 0.161,0.62 0.243,1.17 0.464,2.18 0.695,6.35 0.695,12.52 0,1.09 0.785,1.63 2.348,1.63 1.562,-0.38 2.578,-0.7 3.046,-0.93 0.469,-0.23 0.707,-0.89 0.707,-1.98 z m -58.961,44.83 v 24.11 c 0,11.16 -3.011,19.67 -9.031,25.52 -2.969,2.96 -7.265,5.38 -12.8904,7.25 -5.625,1.88 -10.707,2.81 -15.2461,2.81 -5.6992,0 -9.7422,-2.14 -12.1289,-6.43 -2.3828,-4.29 -3.5703,-9.64 -3.5703,-16.04 v -16.5 c 0,-3.12 0.2695,-5.19 0.8164,-6.21 0.5469,-1.01 2.2656,-1.95 5.1601,-2.8 l 46.8902,-11.71"
         style="fill:#262626;fill-opacity:1;fill-rule:nonzero;stroke:none"
         id="path110" /><path
         d="m 166.875,1440.58 c 3.207,1.17 5.609,3.25 7.207,6.26 1.602,3 2.402,6.3 2.402,9.89 0,3.59 -1.25,7.04 -3.75,10.36 -2.5,3.32 -5.629,6.14 -9.379,8.48 -3.75,2.34 -7.46,3.94 -11.132,4.8 l -81.7074,20.37 c -0.4687,0.15 -0.8008,0.23 -0.9961,0.23 -0.1953,0 -0.4101,0.04 -0.6484,0.12 -1.25,0 -2.0273,-0.43 -2.3398,-1.29 -0.7774,-3.04 -1.168,-9.21 -1.168,-18.49 0,-1.17 -0.7422,-1.76 -2.2305,-1.76 -0.9375,0.24 -1.6601,0.43 -2.168,0.59 -0.5078,0.15 -0.9179,0.41 -1.2304,0.75 -0.3125,0.36 -0.4727,0.89 -0.4727,1.59 v 46.7 c 0,1.17 0.7852,1.76 2.3477,1.76 2.5039,-0.48 3.7539,-1.21 3.7539,-2.23 0,-4.05 0.3125,-7.12 0.9375,-9.18 0.625,-2.07 2.3047,-3.49 5.039,-4.28 l 81.4692,-20.36 c 5.39,-1.33 10.234,-3.96 14.531,-7.91 4.301,-3.93 7.64,-8.62 10.023,-14.04 2.383,-5.42 3.578,-10.9 3.578,-16.44 0,-6.02 -1.679,-11.32 -5.043,-15.92 -3.359,-4.6 -7.929,-6.91 -13.714,-6.91 -3.829,0 -7.114,1.06 -9.848,3.17 -2.731,2.1 -4.098,5.02 -4.098,8.77 0,2.18 0.664,4.04 1.989,5.56 1.332,1.52 3.089,2.28 5.273,2.28 3.051,0 5.73,-1.15 8.035,-3.45 2.305,-2.3 3.461,-5.02 3.461,-8.14 0,-0.63 -0.043,-1.05 -0.121,-1.28"
         style="fill:#262626;fill-opacity:1;fill-rule:nonzero;stroke:none"
         id="path112" /><path
         d="m 220.328,1539.98 h -6.918 v 16.74 H 54.6953 v -16.74 h -6.918 v 23.64 H 220.328 v -23.64"
         style="fill:#262626;fill-opacity:1;fill-rule:nonzero;stroke:none"
         id="path114" /><path
         d="m 219.977,1697.04 c -5.082,-6.4 -10.887,-11.9 -17.407,-16.51 -6.527,-4.6 -13.504,-8.39 -20.925,-11.35 -7.426,-2.97 -15.184,-5.18 -23.27,-6.62 -8.09,-1.44 -16.195,-2.17 -24.324,-2.17 -8.281,0 -16.469,0.73 -24.563,2.17 -8.086,1.44 -15.8591,3.67 -23.3239,6.67 -7.461,3.01 -14.4571,6.86 -20.9805,11.53 -6.5234,4.69 -12.207,10.11 -17.0547,16.28 -0.2344,0 -0.3516,0.31 -0.3516,0.93 v 1.52 c 0,0.39 0.1563,0.72 0.4649,1 0.3164,0.27 0.668,0.41 1.0586,0.41 0.4687,0 0.8203,-0.12 1.0586,-0.35 5.5429,-5.62 11.4648,-10.3 17.7578,-14.05 6.2891,-3.74 12.9922,-6.75 20.1055,-9.01 7.1054,-2.27 14.4493,-3.91 22.0313,-4.92 7.582,-1.02 15.516,-1.52 23.797,-1.52 36.57,0 64.351,9.75 83.344,29.26 0.316,0.39 0.785,0.59 1.41,0.59 0.308,0 0.64,-0.16 0.996,-0.47 0.351,-0.31 0.527,-0.63 0.527,-0.94 v -1.52 c 0,-0.62 -0.117,-0.93 -0.351,-0.93"
         style="fill:#262626;fill-opacity:1;fill-rule:nonzero;stroke:none"
         id="path116" /><path
         d="M 177.191,1720.56 H 172.5 c -0.234,0 -0.508,0.12 -0.816,0.35 l -29.664,26.81 c -4.454,4.06 -8.165,7.34 -11.133,9.83 -2.973,2.5 -6.391,4.98 -10.258,7.43 -3.871,2.46 -7.816,4.41 -11.836,5.86 -4.027,1.44 -8.27,2.16 -12.7227,2.16 -4.7695,0 -9.3008,-0.86 -13.5976,-2.57 -4.293,-1.72 -7.7344,-4.31 -10.3125,-7.78 -2.5821,-3.48 -3.8711,-7.63 -3.8711,-12.47 0,-4.99 1.5039,-9.48 4.5156,-13.46 3.0039,-3.98 6.8945,-6.79 11.6641,-8.43 -0.0782,0.39 -0.1172,1.02 -0.1172,1.88 0,2.57 0.8593,4.75 2.5781,6.55 1.7148,1.8 3.9805,2.69 6.7969,2.69 2.582,0 4.789,-0.89 6.6254,-2.69 1.836,-1.8 2.753,-3.98 2.753,-6.55 0,-2.74 -0.937,-5.02 -2.812,-6.85 -1.875,-1.84 -4.0664,-2.76 -6.5664,-2.76 -4.375,0 -8.4571,0.82 -12.25,2.47 -3.793,1.63 -7.1524,3.97 -10.0821,7.02 -2.9336,3.04 -5.1757,6.49 -6.7382,10.36 -1.5665,3.86 -2.3477,7.93 -2.3477,12.23 0,6.55 1.3867,12.66 4.1641,18.32 2.7773,5.65 6.7031,10.14 11.7773,13.46 5.082,3.31 11.0195,4.97 17.8203,4.97 4.9997,0 9.7497,-1.09 14.2457,-3.28 4.489,-2.18 8.575,-4.97 12.25,-8.37 3.672,-3.39 7.832,-7.76 12.485,-13.11 4.644,-5.34 7.75,-8.87 9.316,-10.59 l 18.875,-19.43 v 16.51 c 0,8.11 -0.078,14.92 -0.238,20.42 -0.156,5.5 -0.387,8.41 -0.699,8.72 -1.41,1.33 -6.688,2.69 -15.828,4.1 v 5.03 l 30.714,-4.8 v -64.03"
         style="fill:#262626;fill-opacity:1;fill-rule:nonzero;stroke:none"
         id="path118" /><path
         d="m 148.703,1804.72 h -6.09 l -79.4802,53.25 c -0.5508,0.39 -0.8242,0.98 -0.8242,1.76 v 2.57 c 0,1.25 0.625,1.87 1.875,1.87 h 78.4294 v 16.98 h 6.09 v -16.98 h 17 c 2.34,0 3.824,1.68 4.449,5.04 0.625,3.35 0.938,7.25 0.938,11.7 h 6.101 v -47.4 h -6.101 c 0,4.45 -0.313,8.35 -0.938,11.7 -0.625,3.36 -2.109,5.04 -4.449,5.04 h -17 z m -6.09,5.73 v 40.73 H 81.5352 l 61.0778,-40.73"
         style="fill:#262626;fill-opacity:1;fill-rule:nonzero;stroke:none"
         id="path120" /><path
         d="m 216.93,1897.52 c -0.391,0 -0.625,0.04 -0.707,0.12 l -166.3363,59.93 c -0.7031,0.23 -1.2304,0.63 -1.5859,1.17 -0.3477,0.55 -0.5235,1.17 -0.5235,1.87 0,1.02 0.3125,1.85 0.9375,2.52 0.625,0.66 1.4454,1 2.461,1 h 0.7031 L 218.219,1904.2 c 1.406,-0.63 2.109,-1.72 2.109,-3.27 0,-0.95 -0.332,-1.75 -1,-2.41 -0.664,-0.66 -1.465,-1 -2.398,-1"
         style="fill:#262626;fill-opacity:1;fill-rule:nonzero;stroke:none"
         id="path122" /><path
         d="m 172.734,2005.67 c -6.406,0 -12.679,0.57 -18.816,1.7 -6.133,1.13 -12.188,2.77 -18.172,4.92 -5.976,2.14 -11.836,4.73 -17.578,7.78 -5.746,3.04 -11.156,6.39 -16.234,10.07 l -21.9184,15.68 v -19.67 c 0,-20.36 0.2696,-30.86 0.8164,-31.48 1.875,-1.56 7.1875,-3.01 15.9414,-4.33 v -4.92 l -36.2187,5.62 v 5.03 h 0.582 c 2.0313,0 3.3594,3.52 3.9844,10.54 0.625,7.02 0.9375,13.89 0.9375,20.6 v 32.07 h 4.457 c 0.0821,0 0.1563,-0.02 0.2344,-0.07 0.0781,-0.03 0.1602,-0.08 0.2383,-0.17 l 33.4067,-23.64 c 8.675,-5.85 18.285,-9.52 28.839,-11 10.547,-1.49 23.715,-2.23 39.5,-2.23 2.266,0 4.2,-0.79 5.805,-2.39 1.602,-1.61 2.402,-3.54 2.402,-5.8 0,-2.27 -0.8,-4.21 -2.402,-5.85 -1.605,-1.64 -3.539,-2.46 -5.805,-2.46"
         style="fill:#262626;fill-opacity:1;fill-rule:nonzero;stroke:none"
         id="path124" /><path
         d="m 220.328,2074.84 c 0,-1.02 -0.508,-1.53 -1.523,-1.53 -0.469,0 -0.825,0.12 -1.059,0.36 -19.226,19.58 -47.125,29.38 -83.695,29.38 -36.5744,0 -64.3557,-9.72 -83.3401,-29.15 -0.2343,-0.39 -0.707,-0.59 -1.4101,-0.59 -0.3906,0 -0.7422,0.16 -1.0586,0.48 -0.3086,0.31 -0.4649,0.66 -0.4649,1.05 v 1.52 c 0,0.39 0.1172,0.66 0.3516,0.82 6.4883,8.27 14.3984,15.16 23.7383,20.66 9.3359,5.5 19.2812,9.52 29.8278,12.05 10.555,2.54 21.34,3.81 32.356,3.81 8.129,0 16.137,-0.68 24.031,-2.06 7.891,-1.36 15.668,-3.54 23.324,-6.55 7.66,-3 14.739,-6.8 21.223,-11.41 6.484,-4.6 12.266,-10.1 17.348,-16.5 0.234,-0.16 0.351,-0.43 0.351,-0.82 v -1.52"
         style="fill:#262626;fill-opacity:1;fill-rule:nonzero;stroke:none"
         id="path126" /><g
         id="g128"
         transform="scale(1.00075,-0.999253)"><path
           d="m 644.706,-580.746 241.769,-4.598 241.765,-11.403 241.76,-9.847 241.77,-11.778 241.76,-16.892 241.77,-19.401 241.77,-24.886 241.76,-34.74 241.77,-38.068 241.76,-37.11 241.77,-49.025 241.76,-48.594 241.77,-50.437"
           style="fill:none;stroke:#000000;stroke-width:19.9934;stroke-linecap:butt;stroke-linejoin:round;stroke-miterlimit:10;stroke-dasharray:none;stroke-opacity:1"
           id="path130" /></g><g
         id="g132"
         transform="scale(1.00075,-0.999253)"><path
           d="m 2095.3,-654.665 241.77,-23.627 241.76,-26.59 241.77,-29.702 241.76,-33.255 241.77,-37.251 241.76,-41.777 241.77,-46.734 241.76,-52.363 241.77,-58.586 241.76,-65.7"
           style="fill:none;stroke:#000000;stroke-width:19.9934;stroke-linecap:butt;stroke-linejoin:bevel;stroke-miterlimit:10;stroke-dasharray:59.9728, 59.9728;stroke-dashoffset:0;stroke-opacity:1"
           id="path134" /></g><path
         d="m 727.715,2007.57 h 2948.36 v 217.238 H 727.715 Z"
         style="fill:#ffffff;fill-opacity:1;fill-rule:nonzero;stroke:none"
         id="path140" /><path
         d="m 1085.25,2077.84 v 5.5 c 9.38,0 15.16,3.12 17.35,9.36 l 33.06,96.1 c 0.31,1.09 1.17,1.64 2.57,1.64 h 2 c 1.41,0 2.27,-0.55 2.58,-1.64 l 34.47,-100.42 c 1.01,-2.19 2.89,-3.57 5.62,-4.16 2.73,-0.59 6.13,-0.88 10.2,-0.88 v -5.5 h -43.85 v 5.5 c 8.68,0 13.02,1.41 13.02,4.22 v 0.82 l -8.56,24.58 h -38.21 l -7.04,-20.26 c -0.07,-0.39 -0.11,-0.93 -0.11,-1.63 0,-2.66 1.23,-4.61 3.69,-5.86 2.46,-1.25 5.14,-1.87 8.03,-1.87 v -5.5 z m 32.12,40.62 h 34.59 l -17.35,50.21 -17.24,-50.21"
         style="fill:#000000;fill-opacity:1;fill-rule:nonzero;stroke:none"
         id="path142" /><path
         d="m 1239.52,2076.09 c -6.41,0 -12.2,1.66 -17.35,4.97 -5.16,3.32 -9.22,7.73 -12.19,13.23 -2.97,5.5 -4.46,11.33 -4.46,17.49 0,6.17 1.47,12.1 4.4,17.79 2.93,5.7 6.99,10.25 12.19,13.64 5.19,3.4 11,5.09 17.41,5.09 6.09,0 11.68,-1.19 16.76,-3.57 5.08,-2.37 7.62,-6.3 7.62,-11.76 0,-2.11 -0.74,-3.9 -2.22,-5.38 -1.49,-1.48 -3.29,-2.23 -5.4,-2.23 -2.03,0 -3.79,0.75 -5.27,2.23 -1.49,1.48 -2.23,3.27 -2.23,5.38 0,1.8 0.58,3.38 1.76,4.74 1.17,1.37 2.66,2.25 4.45,2.64 -3.67,2.26 -8.79,3.39 -15.36,3.39 -5,0 -9.04,-1.66 -12.13,-4.97 -3.08,-3.32 -5.25,-7.44 -6.5,-12.36 -1.25,-4.91 -1.87,-9.79 -1.87,-14.63 0,-5.07 0.75,-9.96 2.28,-14.69 1.52,-4.71 3.96,-8.64 7.32,-11.76 3.36,-3.12 7.58,-4.68 12.66,-4.68 5,0 9.24,1.52 12.72,4.56 3.48,3.05 5.84,7.03 7.09,11.94 0,0.63 0.43,0.94 1.29,0.94 h 1.88 c 0.31,0 0.6,-0.14 0.88,-0.41 0.27,-0.27 0.41,-0.6 0.41,-0.99 v -0.35 c -1.64,-6.25 -4.81,-11.18 -9.5,-14.81 -4.68,-3.63 -10.23,-5.44 -16.64,-5.44"
         style="fill:#000000;fill-opacity:1;fill-rule:nonzero;stroke:none"
         id="path144" /><path
         d="m 1287.44,2096.69 v 43.42 h -13.01 v 4.09 c 6.88,0 11.92,3.21 15.12,9.61 3.2,6.39 4.81,13.34 4.81,20.83 h 4.57 v -29.03 h 22.27 v -5.5 h -22.27 v -43.07 c 0,-4.37 0.72,-8.2 2.16,-11.47 1.45,-3.28 4.09,-4.92 7.92,-4.92 3.6,0 6.19,1.74 7.79,5.21 1.61,3.47 2.41,7.2 2.41,11.18 v 9.25 h 4.45 v -9.6 c 0,-3.28 -0.61,-6.52 -1.82,-9.72 -1.21,-3.2 -2.98,-5.81 -5.33,-7.84 -2.35,-2.03 -5.2,-3.04 -8.55,-3.04 -6.33,0 -11.33,1.87 -15.01,5.62 -3.67,3.74 -5.51,8.74 -5.51,14.98"
         style="fill:#000000;fill-opacity:1;fill-rule:nonzero;stroke:none"
         id="path146" /><path
         d="m 1350.61,2096.57 v 34.77 c 0,2.8 -0.42,4.83 -1.28,6.08 -0.86,1.24 -2.07,2.01 -3.64,2.28 -1.56,0.28 -4.02,0.41 -7.38,0.41 v 5.5 l 23.8,1.76 v -50.8 c 0,-4.06 0.31,-7.23 0.94,-9.54 0.62,-2.3 1.89,-4.02 3.81,-5.15 1.91,-1.13 4.97,-1.69 9.19,-1.69 5.63,0 10.11,2.36 13.43,7.08 3.32,4.71 4.98,10.08 4.98,16.09 v 27.98 c 0,2.8 -0.43,4.83 -1.29,6.08 -0.86,1.24 -2.07,2.01 -3.63,2.28 -1.57,0.28 -4.03,0.41 -7.39,0.41 v 5.5 l 23.8,1.76 v -55.25 c 0,-2.73 0.43,-4.74 1.28,-6.02 0.86,-1.29 2.08,-2.07 3.64,-2.35 1.56,-0.27 4.02,-0.41 7.38,-0.41 v -5.5 l -23.32,-1.75 v 13.22 c -1.95,-3.9 -4.67,-7.08 -8.15,-9.54 -3.48,-2.45 -7.33,-3.68 -11.54,-3.68 -7.51,0 -13.49,1.6 -17.94,4.79 -4.46,3.2 -6.69,8.43 -6.69,15.69"
         style="fill:#000000;fill-opacity:1;fill-rule:nonzero;stroke:none"
         id="path148" /><path
         d="m 1428.86,2093.3 c 0,6.24 2.46,11.31 7.39,15.21 4.93,3.9 10.82,6.67 17.7,8.31 6.88,1.63 13.44,2.45 19.69,2.45 v 6.44 c 0,3.05 -0.66,5.97 -1.98,8.79 -1.34,2.8 -3.27,5.12 -5.81,6.95 -2.54,1.84 -5.3,2.75 -8.26,2.75 -7.04,0 -12.35,-1.56 -15.95,-4.68 1.96,0 3.6,-0.76 4.93,-2.27 1.32,-1.53 1.98,-3.27 1.98,-5.22 0,-2.1 -0.73,-3.89 -2.21,-5.38 -1.49,-1.48 -3.25,-2.22 -5.29,-2.22 -2.1,0 -3.9,0.74 -5.38,2.22 -1.49,1.49 -2.23,3.28 -2.23,5.38 0,5.54 2.5,9.64 7.5,12.29 5,2.66 10.55,3.98 16.65,3.98 4.21,0 8.47,-0.89 12.77,-2.69 4.3,-1.79 7.84,-4.38 10.61,-7.78 2.77,-3.4 4.16,-7.36 4.16,-11.88 v -35.35 c 0,-2.03 0.43,-3.9 1.29,-5.62 0.86,-1.72 2.19,-2.58 3.99,-2.58 1.8,0 3.11,0.86 3.93,2.58 0.82,1.72 1.23,3.59 1.23,5.62 v 10.07 h 4.68 v -10.07 c 0,-2.34 -0.62,-4.58 -1.87,-6.73 -1.25,-2.15 -2.91,-3.84 -4.98,-5.09 -2.08,-1.25 -4.32,-1.87 -6.74,-1.87 -3.05,0 -5.69,1.19 -7.91,3.57 -2.23,2.38 -3.46,5.2 -3.7,8.48 -1.95,-3.9 -4.82,-7.02 -8.62,-9.37 -3.79,-2.33 -7.87,-3.5 -12.25,-3.5 -3.98,0 -7.91,0.58 -11.78,1.75 -3.86,1.17 -7.08,3.02 -9.67,5.56 -2.58,2.54 -3.87,5.83 -3.87,9.9 z m 12.78,0 c 0,-3.67 1.36,-6.78 4.05,-9.32 2.7,-2.53 5.92,-3.79 9.67,-3.79 3.36,0 6.43,0.85 9.2,2.56 2.77,1.72 4.98,4.03 6.62,6.91 1.64,2.89 2.46,5.97 2.46,9.25 v 16.39 c -4.76,0 -9.65,-0.78 -14.65,-2.34 -5,-1.57 -9.14,-4.02 -12.42,-7.38 -3.28,-3.36 -4.93,-7.45 -4.93,-12.28"
         style="fill:#000000;fill-opacity:1;fill-rule:nonzero;stroke:none"
         id="path150" /><path
         d="m 1507.37,2077.84 v 5.5 c 3.59,0 6.54,0.29 8.85,0.88 2.3,0.59 3.46,1.97 3.46,4.16 v 82.51 c 0,2.81 -0.41,4.86 -1.23,6.15 -0.82,1.28 -2.04,2.07 -3.64,2.34 -1.6,0.27 -4.08,0.41 -7.44,0.41 v 5.5 l 23.44,1.76 v -98.67 c 0,-2.19 1.15,-3.57 3.46,-4.16 2.3,-0.59 5.21,-0.88 8.73,-0.88 v -5.5 h -35.63"
         style="fill:#000000;fill-opacity:1;fill-rule:nonzero;stroke:none"
         id="path152" /><g
         id="g154"
         transform="scale(1.00075,-0.999253)"><path
           d="M 757.149,-2117.77 H 1056.92"
           style="fill:none;stroke:#000000;stroke-width:19.9934;stroke-linecap:butt;stroke-linejoin:round;stroke-miterlimit:10;stroke-dasharray:none;stroke-opacity:1"
           id="path156" /></g><path
         d="m 1944.03,2077.84 v 5.5 c 13.13,0 19.69,1.68 19.69,5.04 v 82.51 c -5.47,-2.57 -12.35,-3.86 -20.63,-3.86 v 5.51 c 12.89,0 22.62,3.35 29.19,10.05 h 2.23 c 0.31,0 0.64,-0.13 0.99,-0.4 0.35,-0.27 0.53,-0.6 0.53,-0.99 v -92.82 c 0,-3.36 6.56,-5.04 19.69,-5.04 v -5.5 h -51.69"
         style="fill:#000000;fill-opacity:1;fill-rule:nonzero;stroke:none"
         id="path158" /><path
         d="m 2017.25,2077.84 v 4.22 c 0,0.23 0.12,0.5 0.35,0.82 l 24.38,27.03 c 3.75,4.06 6.78,7.44 9.09,10.13 2.31,2.69 4.57,5.81 6.8,9.36 2.23,3.55 4.01,7.14 5.34,10.77 1.32,3.63 1.99,7.51 1.99,11.65 0,4.29 -0.81,8.4 -2.41,12.35 -1.59,3.94 -3.98,7.08 -7.15,9.41 -3.16,2.35 -6.97,3.52 -11.43,3.52 -4.53,0 -8.61,-1.37 -12.24,-4.1 -3.64,-2.73 -6.2,-6.28 -7.68,-10.65 0.39,0.08 0.93,0.12 1.64,0.12 2.34,0 4.36,-0.79 6.04,-2.35 1.67,-1.56 2.51,-3.62 2.51,-6.2 0,-2.34 -0.84,-4.35 -2.51,-6.02 -1.68,-1.68 -3.7,-2.52 -6.04,-2.52 -2.43,0 -4.48,0.86 -6.15,2.57 -1.68,1.72 -2.53,3.71 -2.53,5.97 0,3.98 0.75,7.69 2.23,11.12 1.48,3.44 3.63,6.5 6.45,9.19 2.81,2.69 5.96,4.76 9.44,6.2 3.47,1.45 7.2,2.16 11.19,2.16 6.01,0 11.6,-1.26 16.76,-3.79 5.16,-2.54 9.26,-6.13 12.31,-10.77 3.05,-4.65 4.57,-10.05 4.57,-16.21 0,-4.53 -1,-8.84 -2.99,-12.93 -1.99,-4.1 -4.55,-7.83 -7.68,-11.19 -3.12,-3.36 -7.13,-7.16 -12.01,-11.41 -4.89,-4.25 -8.11,-7.12 -9.67,-8.61 l -17.82,-17.08 h 15.12 c 7.42,0 13.64,0.06 18.64,0.18 5,0.11 7.66,0.33 7.97,0.64 1.25,1.33 2.5,6.16 3.75,14.51 h 4.69 l -4.46,-28.09 h -58.49"
         style="fill:#000000;fill-opacity:1;fill-rule:nonzero;stroke:none"
         id="path160" /><path
         d="m 2111.34,2072.1 c 0,0.63 0.16,1.17 0.47,1.64 l 71.39,106.17 c -6.33,-3.52 -13.29,-5.27 -20.87,-5.27 -8.2,0 -16.05,2.11 -23.55,6.32 2.1,-4.99 3.15,-10.57 3.15,-16.74 0,-3.43 -0.41,-6.94 -1.23,-10.53 -0.82,-3.59 -2.05,-6.99 -3.69,-10.18 -1.64,-3.21 -3.75,-5.84 -6.33,-7.9 -2.57,-2.07 -5.62,-3.11 -9.14,-3.11 -4.92,0 -9.15,1.64 -12.66,4.92 -3.52,3.27 -6.17,7.37 -7.97,12.29 -1.8,4.92 -2.7,9.75 -2.7,14.51 0,4.6 0.9,9.39 2.7,14.34 1.8,4.96 4.45,9.07 7.97,12.35 3.51,3.28 7.74,4.91 12.66,4.91 3.91,0 7.5,-1.55 10.78,-4.68 8.45,-8.27 18.45,-12.4 30.01,-12.4 6.26,0 12.06,1.36 17.41,4.1 5.35,2.73 9.75,6.67 13.19,11.82 0.55,0.77 1.37,1.16 2.46,1.16 0.94,0 1.7,-0.27 2.29,-0.81 0.58,-0.55 0.87,-1.33 0.87,-2.35 0,-0.54 -0.15,-1.05 -0.46,-1.52 L 2116.86,2070 c -0.48,-0.62 -1.26,-0.94 -2.35,-0.94 -0.87,0 -1.61,0.33 -2.23,1 -0.63,0.66 -0.94,1.34 -0.94,2.04 z m 10.2,64.38 c 5.24,0 9.19,3.1 11.84,9.31 2.66,6.2 3.99,12.35 3.99,18.43 0,3.44 -0.55,7.34 -1.65,11.71 -1.09,4.37 -2.83,8.09 -5.21,11.18 -2.38,3.08 -5.37,4.62 -8.97,4.62 -5.23,0 -8.69,-2.91 -10.37,-8.72 -1.68,-5.81 -2.52,-12.15 -2.52,-19.02 0,-6.55 0.87,-12.78 2.63,-18.67 1.76,-5.89 5.18,-8.84 10.26,-8.84 z m 69.86,-67.42 c -4.92,0 -9.16,1.64 -12.71,4.92 -3.56,3.28 -6.22,7.38 -7.98,12.29 -1.75,4.91 -2.63,9.75 -2.63,14.52 0,4.67 0.88,9.49 2.63,14.45 1.76,4.95 4.42,9.07 7.98,12.35 3.55,3.27 7.79,4.91 12.71,4.91 4.54,0 8.35,-1.73 11.44,-5.2 3.08,-3.48 5.33,-7.66 6.73,-12.53 1.41,-4.88 2.11,-9.54 2.11,-13.98 0,-3.36 -0.41,-6.83 -1.23,-10.42 -0.82,-3.59 -2.03,-7.01 -3.63,-10.24 -1.6,-3.24 -3.69,-5.9 -6.27,-7.97 -2.58,-2.07 -5.63,-3.1 -9.15,-3.1 z m 0,4.1 c 3.52,0 6.49,1.58 8.92,4.74 2.42,3.16 4.16,6.91 5.21,11.24 1.06,4.33 1.58,8.21 1.58,11.65 0,6.08 -1.32,12.18 -3.98,18.31 -2.66,6.12 -6.57,9.19 -11.73,9.19 -5.23,0 -8.71,-2.91 -10.42,-8.72 -1.73,-5.82 -2.59,-12.12 -2.59,-18.9 0,-6.63 0.88,-12.88 2.64,-18.73 1.76,-5.85 5.22,-8.78 10.37,-8.78"
         style="fill:#000000;fill-opacity:1;fill-rule:nonzero;stroke:none"
         id="path162" /><path
         d="m 2231.59,2041.68 c 0,0.3 0.07,0.5 0.23,0.58 l 54.74,151.69 c 0.24,0.55 0.61,1 1.12,1.35 0.5,0.35 1.07,0.52 1.7,0.52 0.94,0 1.7,-0.27 2.28,-0.81 0.59,-0.55 0.88,-1.33 0.88,-2.35 v -0.58 l -54.74,-151.69 c -0.63,-1.25 -1.64,-1.88 -3.05,-1.88 -0.86,0 -1.6,0.31 -2.23,0.94 -0.62,0.62 -0.93,1.37 -0.93,2.23"
         style="fill:#000000;fill-opacity:1;fill-rule:nonzero;stroke:none"
         id="path164" /><path
         d="m 2313.72,2051.98 c 1.96,-1.57 4.14,-2.35 6.57,-2.35 6.64,0 12.03,5 16.17,14.98 l 5.39,13.23 -23.56,57.82 c -1.02,1.88 -2.52,3.09 -4.51,3.63 -1.99,0.55 -4.64,0.82 -7.91,0.82 v 5.5 h 33.05 v -5.5 c -5.78,0 -8.67,-1.24 -8.67,-3.74 0,-0.4 0.04,-0.71 0.12,-0.94 l 17.58,-42.96 15.71,38.62 c 0.31,0.86 0.47,1.76 0.47,2.7 0,1.32 -0.36,2.46 -1.06,3.39 -0.7,0.94 -1.6,1.66 -2.69,2.17 -1.1,0.51 -2.35,0.76 -3.75,0.76 v 5.5 h 26.25 v -5.5 c -3.28,0 -6.13,-0.74 -8.56,-2.22 -2.42,-1.48 -4.29,-3.67 -5.62,-6.55 l -27.31,-66.73 c -1.41,-3.35 -3.07,-6.45 -4.99,-9.3 -1.91,-2.85 -4.26,-5.19 -7.03,-7.02 -2.78,-1.83 -5.8,-2.75 -9.08,-2.75 -3.84,0 -7.2,1.26 -10.09,3.8 -2.89,2.54 -4.33,5.68 -4.33,9.42 0,1.95 0.66,3.59 1.99,4.92 1.33,1.32 2.97,1.99 4.92,1.99 1.33,0 2.52,-0.29 3.58,-0.88 1.06,-0.58 1.88,-1.38 2.46,-2.4 0.59,-1.01 0.88,-2.23 0.88,-3.63 0,-1.63 -0.57,-3.14 -1.7,-4.5 -1.13,-1.37 -2.56,-2.13 -4.28,-2.28"
         style="fill:#000000;fill-opacity:1;fill-rule:nonzero;stroke:none"
         id="path166" /><path
         d="m 2422.11,2076.09 c -6.41,0 -12.29,1.68 -17.65,5.03 -5.35,3.35 -9.57,7.84 -12.65,13.45 -3.09,5.63 -4.63,11.56 -4.63,17.8 0,6.08 1.41,11.9 4.22,17.44 2.81,5.54 6.72,10.01 11.73,13.4 5,3.4 10.58,5.09 16.75,5.09 4.77,0 8.95,-0.8 12.55,-2.39 3.59,-1.61 6.54,-3.83 8.85,-6.68 2.31,-2.85 4.04,-6.22 5.21,-10.12 1.17,-3.9 1.76,-8.19 1.76,-12.88 0,-1.4 -0.55,-2.1 -1.64,-2.1 h -45.59 v -1.64 c 0,-8.74 1.75,-16.23 5.27,-22.47 3.51,-6.25 9.26,-9.37 17.23,-9.37 3.2,0 6.17,0.72 8.91,2.17 2.73,1.44 5.12,3.45 7.15,6.02 2.03,2.58 3.4,5.31 4.1,8.2 0.08,0.39 0.28,0.72 0.59,0.99 0.31,0.27 0.62,0.41 0.93,0.41 h 1.41 c 1.09,0 1.64,-0.66 1.64,-1.99 -1.48,-5.93 -4.68,-10.81 -9.61,-14.63 -4.92,-3.82 -10.43,-5.73 -16.53,-5.73 z m -20.98,42.02 h 35.99 c 0,3.89 -0.57,7.87 -1.71,11.94 -1.13,4.05 -2.96,7.43 -5.5,10.12 -2.54,2.69 -5.89,4.03 -10.03,4.03 -5.93,0 -10.54,-2.77 -13.83,-8.3 -3.28,-5.54 -4.92,-11.47 -4.92,-17.79"
         style="fill:#000000;fill-opacity:1;fill-rule:nonzero;stroke:none"
         id="path168" /><path
         d="m 2460.3,2093.3 c 0,6.24 2.47,11.31 7.39,15.21 4.92,3.9 10.83,6.67 17.7,8.31 6.88,1.63 13.45,2.45 19.7,2.45 v 6.44 c 0,3.05 -0.67,5.97 -2,8.79 -1.33,2.8 -3.26,5.12 -5.8,6.95 -2.54,1.84 -5.29,2.75 -8.27,2.75 -7.03,0 -12.34,-1.56 -15.94,-4.68 1.96,0 3.6,-0.76 4.92,-2.27 1.33,-1.53 2,-3.27 2,-5.22 0,-2.1 -0.74,-3.89 -2.23,-5.38 -1.48,-1.48 -3.24,-2.22 -5.27,-2.22 -2.11,0 -3.91,0.74 -5.4,2.22 -1.48,1.49 -2.22,3.28 -2.22,5.38 0,5.54 2.5,9.64 7.5,12.29 5,2.66 10.55,3.98 16.64,3.98 4.23,0 8.48,-0.89 12.78,-2.69 4.3,-1.79 7.83,-4.38 10.61,-7.78 2.77,-3.4 4.16,-7.36 4.16,-11.88 v -35.35 c 0,-2.03 0.43,-3.9 1.29,-5.62 0.86,-1.72 2.19,-2.58 3.99,-2.58 1.79,0 3.1,0.86 3.92,2.58 0.82,1.72 1.23,3.59 1.23,5.62 v 10.07 h 4.69 v -10.07 c 0,-2.34 -0.63,-4.58 -1.88,-6.73 -1.25,-2.15 -2.91,-3.84 -4.98,-5.09 -2.07,-1.25 -4.31,-1.87 -6.74,-1.87 -3.04,0 -5.68,1.19 -7.91,3.57 -2.23,2.38 -3.46,5.2 -3.69,8.48 -1.95,-3.9 -4.83,-7.02 -8.61,-9.37 -3.79,-2.33 -7.88,-3.5 -12.25,-3.5 -3.99,0 -7.92,0.58 -11.78,1.75 -3.87,1.17 -7.1,3.02 -9.68,5.56 -2.58,2.54 -3.87,5.83 -3.87,9.9 z m 12.78,0 c 0,-3.67 1.35,-6.78 4.05,-9.32 2.69,-2.53 5.91,-3.79 9.67,-3.79 3.36,0 6.43,0.85 9.2,2.56 2.77,1.72 4.98,4.03 6.62,6.91 1.64,2.89 2.47,5.97 2.47,9.25 v 16.39 c -4.77,0 -9.66,-0.78 -14.66,-2.34 -5,-1.57 -9.14,-4.02 -12.43,-7.38 -3.28,-3.36 -4.92,-7.45 -4.92,-12.28"
         style="fill:#000000;fill-opacity:1;fill-rule:nonzero;stroke:none"
         id="path170" /><path
         d="m 2538.1,2077.84 v 5.5 c 3.6,0 6.54,0.29 8.85,0.88 2.3,0.59 3.46,1.97 3.46,4.16 v 42.96 c 0,2.8 -0.43,4.83 -1.29,6.08 -0.86,1.24 -2.09,2.01 -3.69,2.28 -1.61,0.28 -4.05,0.41 -7.33,0.41 v 5.5 l 22.51,1.76 v -15.34 c 1.71,4.53 4.14,8.22 7.26,11.06 3.13,2.85 6.92,4.28 11.38,4.28 3.12,0 5.91,-0.92 8.38,-2.75 2.46,-1.83 3.69,-4.27 3.69,-7.32 0,-1.87 -0.69,-3.51 -2.05,-4.92 -1.37,-1.4 -3.03,-2.1 -4.98,-2.1 -1.96,0 -3.64,0.68 -5.04,2.05 -1.41,1.37 -2.11,3.02 -2.11,4.97 0,2.81 1.01,4.8 3.04,5.97 h -0.93 c -4.3,0 -7.78,-1.54 -10.44,-4.63 -2.66,-3.08 -4.55,-6.88 -5.68,-11.4 -1.13,-4.53 -1.7,-8.9 -1.7,-13.11 v -25.75 c 0,-3.36 5.08,-5.04 15.23,-5.04 v -5.5 h -38.56"
         style="fill:#000000;fill-opacity:1;fill-rule:nonzero;stroke:none"
         id="path172" /><g
         id="g174"
         transform="scale(1.00075,-0.999253)"><path
           d="m 1605.68,-2117.77 h 299.77"
           style="fill:none;stroke:#000000;stroke-width:19.9934;stroke-linecap:butt;stroke-linejoin:bevel;stroke-miterlimit:10;stroke-dasharray:59.9728, 59.9728;stroke-dashoffset:0;stroke-opacity:1"
           id="path176" /></g><path
         d="m 2986.84,2077.84 v 4.22 c 0,0.23 0.11,0.5 0.35,0.82 l 24.38,27.03 c 3.75,4.06 6.78,7.44 9.09,10.13 2.3,2.69 4.57,5.81 6.79,9.36 2.23,3.55 4.01,7.14 5.34,10.77 1.33,3.63 1.99,7.51 1.99,11.65 0,4.29 -0.8,8.4 -2.41,12.35 -1.6,3.94 -3.98,7.08 -7.15,9.41 -3.16,2.35 -6.97,3.52 -11.42,3.52 -4.54,0 -8.62,-1.37 -12.25,-4.1 -3.64,-2.73 -6.2,-6.28 -7.69,-10.65 0.4,0.08 0.95,0.12 1.65,0.12 2.34,0 4.36,-0.79 6.04,-2.35 1.68,-1.56 2.52,-3.62 2.52,-6.2 0,-2.34 -0.84,-4.35 -2.52,-6.02 -1.68,-1.68 -3.7,-2.52 -6.04,-2.52 -2.42,0 -4.47,0.86 -6.15,2.57 -1.68,1.72 -2.52,3.71 -2.52,5.97 0,3.98 0.74,7.69 2.22,11.12 1.49,3.44 3.64,6.5 6.45,9.19 2.81,2.69 5.96,4.76 9.44,6.2 3.47,1.45 7.2,2.16 11.19,2.16 6.02,0 11.61,-1.26 16.77,-3.79 5.15,-2.54 9.25,-6.13 12.3,-10.77 3.05,-4.65 4.58,-10.05 4.58,-16.21 0,-4.53 -1,-8.84 -3,-12.93 -1.99,-4.1 -4.55,-7.83 -7.67,-11.19 -3.13,-3.36 -7.14,-7.16 -12.02,-11.41 -4.88,-4.25 -8.11,-7.12 -9.67,-8.61 l -17.82,-17.08 h 15.12 c 7.43,0 13.64,0.06 18.64,0.18 5,0.11 7.66,0.33 7.97,0.64 1.26,1.33 2.51,6.16 3.76,14.51 h 4.69 l -4.46,-28.09 h -58.49"
         style="fill:#000000;fill-opacity:1;fill-rule:nonzero;stroke:none"
         id="path178" /><path
         d="m 3072.72,2095.75 c 1.1,-3.04 2.76,-5.83 4.98,-8.36 2.23,-2.54 4.87,-4.51 7.92,-5.92 3.04,-1.41 6.2,-2.11 9.49,-2.11 7.58,0 12.8,2.95 15.65,8.84 2.85,5.89 4.27,13.05 4.27,21.48 0,3.59 -0.05,6.63 -0.17,9.13 -0.11,2.49 -0.45,4.88 -1,7.14 -1.01,3.75 -2.73,7 -5.15,9.77 -2.43,2.77 -5.4,4.16 -8.91,4.16 -3.52,0 -6.55,-0.55 -9.09,-1.64 -2.54,-1.09 -4.61,-2.36 -6.21,-3.8 -1.6,-1.45 -3.03,-2.95 -4.28,-4.51 -1.25,-1.56 -2.03,-2.42 -2.34,-2.58 h -1.76 c -0.24,0 -0.55,0.18 -0.94,0.53 -0.39,0.35 -0.59,0.68 -0.59,1 v 52.55 c 0,0.23 0.18,0.49 0.53,0.76 0.35,0.27 0.68,0.4 1,0.4 h 0.46 c 7.12,-3.34 14.66,-5.02 22.63,-5.02 7.74,0 15.24,1.68 22.5,5.02 h 0.48 c 0.31,0 0.62,-0.11 0.94,-0.34 0.31,-0.23 0.46,-0.51 0.46,-0.82 v -1.52 c 0,-0.47 -0.07,-0.71 -0.23,-0.71 -3.6,-4.76 -8.11,-8.48 -13.54,-11.17 -5.43,-2.7 -11.04,-4.04 -16.82,-4.04 -4.22,0 -8.52,0.58 -12.9,1.75 v -29.72 c 3.44,2.88 6.55,4.91 9.32,6.08 2.78,1.17 6.28,1.76 10.49,1.76 5.79,0 10.98,-1.66 15.59,-4.97 4.62,-3.33 8.15,-7.66 10.61,-13 2.46,-5.34 3.69,-10.83 3.69,-16.44 0,-6.25 -1.56,-12.06 -4.69,-17.44 -3.12,-5.38 -7.34,-9.68 -12.65,-12.88 -5.32,-3.2 -11.1,-4.8 -17.35,-4.8 -5.16,0 -9.91,1.35 -14.24,4.04 -4.34,2.69 -7.76,6.28 -10.26,10.77 -2.5,4.48 -3.75,9.26 -3.75,14.34 0,2.34 0.76,4.25 2.28,5.73 1.53,1.48 3.46,2.22 5.81,2.22 2.26,0 4.18,-0.74 5.74,-2.22 1.56,-1.48 2.35,-3.39 2.35,-5.73 0,-2.27 -0.79,-4.18 -2.35,-5.74 -1.56,-1.56 -3.48,-2.34 -5.74,-2.34 -0.39,0 -0.82,0.04 -1.29,0.11 -0.47,0.08 -0.78,0.16 -0.94,0.24"
         style="fill:#000000;fill-opacity:1;fill-rule:nonzero;stroke:none"
         id="path180" /><path
         d="m 3160.95,2072.1 c 0,0.63 0.15,1.17 0.47,1.64 l 71.38,106.17 c -6.32,-3.52 -13.28,-5.27 -20.86,-5.27 -8.21,0 -16.06,2.11 -23.56,6.32 2.11,-4.99 3.16,-10.57 3.16,-16.74 0,-3.43 -0.41,-6.94 -1.23,-10.53 -0.82,-3.59 -2.05,-6.99 -3.69,-10.18 -1.64,-3.21 -3.75,-5.84 -6.33,-7.9 -2.58,-2.07 -5.63,-3.11 -9.14,-3.11 -4.93,0 -9.15,1.64 -12.67,4.92 -3.51,3.27 -6.17,7.37 -7.96,12.29 -1.8,4.92 -2.7,9.75 -2.7,14.51 0,4.6 0.9,9.39 2.7,14.34 1.79,4.96 4.45,9.07 7.96,12.35 3.52,3.28 7.74,4.91 12.67,4.91 3.9,0 7.5,-1.55 10.78,-4.68 8.44,-8.27 18.45,-12.4 30.01,-12.4 6.25,0 12.05,1.36 17.4,4.1 5.36,2.73 9.76,6.67 13.19,11.82 0.55,0.77 1.37,1.16 2.46,1.16 0.94,0 1.71,-0.27 2.29,-0.81 0.59,-0.55 0.88,-1.33 0.88,-2.35 0,-0.54 -0.16,-1.05 -0.46,-1.52 L 3166.46,2070 c -0.47,-0.62 -1.25,-0.94 -2.35,-0.94 -0.86,0 -1.6,0.33 -2.23,1 -0.62,0.66 -0.93,1.34 -0.93,2.04 z m 10.2,64.38 c 5.24,0 9.18,3.1 11.84,9.31 2.65,6.2 3.98,12.35 3.98,18.43 0,3.44 -0.55,7.34 -1.64,11.71 -1.09,4.37 -2.83,8.09 -5.22,11.18 -2.38,3.08 -5.37,4.62 -8.96,4.62 -5.24,0 -8.7,-2.91 -10.38,-8.72 -1.68,-5.81 -2.52,-12.15 -2.52,-19.02 0,-6.55 0.88,-12.78 2.64,-18.67 1.75,-5.89 5.18,-8.84 10.26,-8.84 z m 69.86,-67.42 c -4.92,0 -9.16,1.64 -12.72,4.92 -3.55,3.28 -6.21,7.38 -7.97,12.29 -1.76,4.91 -2.64,9.75 -2.64,14.52 0,4.67 0.88,9.49 2.64,14.45 1.76,4.95 4.42,9.07 7.97,12.35 3.56,3.27 7.8,4.91 12.72,4.91 4.53,0 8.34,-1.73 11.43,-5.2 3.09,-3.48 5.33,-7.66 6.74,-12.53 1.41,-4.88 2.11,-9.54 2.11,-13.98 0,-3.36 -0.41,-6.83 -1.23,-10.42 -0.82,-3.59 -2.03,-7.01 -3.63,-10.24 -1.61,-3.24 -3.7,-5.9 -6.27,-7.97 -2.59,-2.07 -5.64,-3.1 -9.15,-3.1 z m 0,4.1 c 3.51,0 6.49,1.58 8.91,4.74 2.42,3.16 4.16,6.91 5.22,11.24 1.05,4.33 1.58,8.21 1.58,11.65 0,6.08 -1.33,12.18 -3.99,18.31 -2.66,6.12 -6.57,9.19 -11.72,9.19 -5.24,0 -8.71,-2.91 -10.43,-8.72 -1.72,-5.82 -2.58,-12.12 -2.58,-18.9 0,-6.63 0.88,-12.88 2.63,-18.73 1.76,-5.85 5.22,-8.78 10.38,-8.78"
         style="fill:#000000;fill-opacity:1;fill-rule:nonzero;stroke:none"
         id="path182" /><path
         d="m 3281.19,2041.68 c 0,0.3 0.08,0.5 0.23,0.58 l 54.75,151.69 c 0.23,0.55 0.6,1 1.12,1.35 0.5,0.35 1.07,0.52 1.69,0.52 0.94,0 1.7,-0.27 2.29,-0.81 0.59,-0.55 0.87,-1.33 0.87,-2.35 v -0.58 l -54.74,-151.69 c -0.62,-1.25 -1.64,-1.88 -3.04,-1.88 -0.86,0 -1.61,0.31 -2.23,0.94 -0.63,0.62 -0.94,1.37 -0.94,2.23"
         style="fill:#000000;fill-opacity:1;fill-rule:nonzero;stroke:none"
         id="path184" /><path
         d="m 3363.32,2051.98 c 1.96,-1.57 4.15,-2.35 6.57,-2.35 6.64,0 12.03,5 16.17,14.98 l 5.4,13.23 -23.57,57.82 c -1.01,1.88 -2.51,3.09 -4.5,3.63 -2,0.55 -4.64,0.82 -7.92,0.82 v 5.5 h 33.05 v -5.5 c -5.78,0 -8.67,-1.24 -8.67,-3.74 0,-0.4 0.04,-0.71 0.12,-0.94 l 17.59,-42.96 15.7,38.62 c 0.31,0.86 0.47,1.76 0.47,2.7 0,1.32 -0.35,2.46 -1.05,3.39 -0.71,0.94 -1.6,1.66 -2.7,2.17 -1.09,0.51 -2.34,0.76 -3.75,0.76 v 5.5 h 26.26 v -5.5 c -3.28,0 -6.13,-0.74 -8.56,-2.22 -2.42,-1.48 -4.3,-3.67 -5.63,-6.55 l -27.31,-66.73 c -1.41,-3.35 -3.07,-6.45 -4.99,-9.3 -1.91,-2.85 -4.25,-5.19 -7.02,-7.02 -2.78,-1.83 -5.81,-2.75 -9.09,-2.75 -3.83,0 -7.19,1.26 -10.09,3.8 -2.89,2.54 -4.33,5.68 -4.33,9.42 0,1.95 0.67,3.59 1.99,4.92 1.33,1.32 2.97,1.99 4.93,1.99 1.33,0 2.52,-0.29 3.57,-0.88 1.06,-0.58 1.88,-1.38 2.47,-2.4 0.58,-1.01 0.87,-2.23 0.87,-3.63 0,-1.63 -0.56,-3.14 -1.7,-4.5 -1.13,-1.37 -2.55,-2.13 -4.28,-2.28"
         style="fill:#000000;fill-opacity:1;fill-rule:nonzero;stroke:none"
         id="path186" /><path
         d="m 3471.72,2076.09 c -6.41,0 -12.29,1.68 -17.65,5.03 -5.35,3.35 -9.57,7.84 -12.66,13.45 -3.08,5.63 -4.62,11.56 -4.62,17.8 0,6.08 1.4,11.9 4.21,17.44 2.82,5.54 6.73,10.01 11.73,13.4 5,3.4 10.59,5.09 16.76,5.09 4.76,0 8.95,-0.8 12.54,-2.39 3.6,-1.61 6.55,-3.83 8.86,-6.68 2.3,-2.85 4.04,-6.22 5.21,-10.12 1.17,-3.9 1.76,-8.19 1.76,-12.88 0,-1.4 -0.55,-2.1 -1.64,-2.1 h -45.6 v -1.64 c 0,-8.74 1.76,-16.23 5.27,-22.47 3.52,-6.25 9.27,-9.37 17.24,-9.37 3.2,0 6.17,0.72 8.9,2.17 2.74,1.44 5.12,3.45 7.15,6.02 2.03,2.58 3.4,5.31 4.11,8.2 0.08,0.39 0.27,0.72 0.58,0.99 0.32,0.27 0.63,0.41 0.94,0.41 h 1.41 c 1.09,0 1.64,-0.66 1.64,-1.99 -1.48,-5.93 -4.69,-10.81 -9.61,-14.63 -4.93,-3.82 -10.44,-5.73 -16.53,-5.73 z m -20.99,42.02 h 35.99 c 0,3.89 -0.57,7.87 -1.7,11.94 -1.13,4.05 -2.97,7.43 -5.51,10.12 -2.54,2.69 -5.88,4.03 -10.02,4.03 -5.94,0 -10.55,-2.77 -13.83,-8.3 -3.28,-5.54 -4.93,-11.47 -4.93,-17.79"
         style="fill:#000000;fill-opacity:1;fill-rule:nonzero;stroke:none"
         id="path188" /><path
         d="m 3509.91,2093.3 c 0,6.24 2.46,11.31 7.38,15.21 4.93,3.9 10.83,6.67 17.71,8.31 6.88,1.63 13.44,2.45 19.69,2.45 v 6.44 c 0,3.05 -0.66,5.97 -1.99,8.79 -1.33,2.8 -3.27,5.12 -5.81,6.95 -2.53,1.84 -5.29,2.75 -8.26,2.75 -7.03,0 -12.35,-1.56 -15.94,-4.68 1.95,0 3.59,-0.76 4.92,-2.27 1.33,-1.53 2,-3.27 2,-5.22 0,-2.1 -0.75,-3.89 -2.23,-5.38 -1.49,-1.48 -3.25,-2.22 -5.28,-2.22 -2.11,0 -3.91,0.74 -5.39,2.22 -1.49,1.49 -2.23,3.28 -2.23,5.38 0,5.54 2.5,9.64 7.5,12.29 5,2.66 10.55,3.98 16.65,3.98 4.22,0 8.48,-0.89 12.78,-2.69 4.29,-1.79 7.83,-4.38 10.6,-7.78 2.78,-3.4 4.17,-7.36 4.17,-11.88 v -35.35 c 0,-2.03 0.43,-3.9 1.29,-5.62 0.86,-1.72 2.19,-2.58 3.98,-2.58 1.8,0 3.1,0.86 3.93,2.58 0.82,1.72 1.23,3.59 1.23,5.62 v 10.07 h 4.68 v -10.07 c 0,-2.34 -0.62,-4.58 -1.87,-6.73 -1.25,-2.15 -2.91,-3.84 -4.98,-5.09 -2.07,-1.25 -4.32,-1.87 -6.74,-1.87 -3.05,0 -5.68,1.19 -7.91,3.57 -2.23,2.38 -3.46,5.2 -3.7,8.48 -1.95,-3.9 -4.82,-7.02 -8.61,-9.37 -3.79,-2.33 -7.87,-3.5 -12.25,-3.5 -3.98,0 -7.91,0.58 -11.78,1.75 -3.87,1.17 -7.09,3.02 -9.68,5.56 -2.57,2.54 -3.86,5.83 -3.86,9.9 z m 12.78,0 c 0,-3.67 1.35,-6.78 4.04,-9.32 2.7,-2.53 5.92,-3.79 9.67,-3.79 3.36,0 6.43,0.85 9.21,2.56 2.77,1.72 4.97,4.03 6.61,6.91 1.65,2.89 2.47,5.97 2.47,9.25 v 16.39 c -4.77,0 -9.65,-0.78 -14.66,-2.34 -5,-1.57 -9.14,-4.02 -12.42,-7.38 -3.28,-3.36 -4.92,-7.45 -4.92,-12.28"
         style="fill:#000000;fill-opacity:1;fill-rule:nonzero;stroke:none"
         id="path190" /><path
         d="m 3587.71,2077.84 v 5.5 c 3.59,0 6.54,0.29 8.84,0.88 2.31,0.59 3.46,1.97 3.46,4.16 v 42.96 c 0,2.8 -0.43,4.83 -1.29,6.08 -0.85,1.24 -2.08,2.01 -3.69,2.28 -1.6,0.28 -4.04,0.41 -7.32,0.41 v 5.5 l 22.5,1.76 v -15.34 c 1.72,4.53 4.14,8.22 7.27,11.06 3.12,2.85 6.91,4.28 11.37,4.28 3.13,0 5.92,-0.92 8.38,-2.75 2.46,-1.83 3.69,-4.27 3.69,-7.32 0,-1.87 -0.68,-3.51 -2.04,-4.92 -1.37,-1.4 -3.03,-2.1 -4.99,-2.1 -1.95,0 -3.63,0.68 -5.04,2.05 -1.4,1.37 -2.11,3.02 -2.11,4.97 0,2.81 1.02,4.8 3.05,5.97 h -0.94 c -4.3,0 -7.78,-1.54 -10.44,-4.63 -2.65,-3.08 -4.54,-6.88 -5.68,-11.4 -1.13,-4.53 -1.7,-8.9 -1.7,-13.11 v -25.75 c 0,-3.36 5.08,-5.04 15.24,-5.04 v -5.5 h -38.56"
         style="fill:#000000;fill-opacity:1;fill-rule:nonzero;stroke:none"
         id="path192" /><g
         id="g194"
         transform="scale(1.00075,-0.999253)"><path
           d="m 2654.49,-2117.77 h 299.78"
           style="fill:none;stroke:#000000;stroke-width:19.9934;stroke-linecap:butt;stroke-linejoin:bevel;stroke-miterlimit:10;stroke-dasharray:14.9932, 14.9932;stroke-dashoffset:0;stroke-opacity:1"
           id="path196" /></g><g
         id="g198"
         transform="scale(1.00075,-0.999253)"><path
           d="m 727.172,-2009.08 v -217.4 H 3673.33 v 217.4 z"
           style="fill:none;stroke:#262626;stroke-width:5.00023;stroke-linecap:butt;stroke-linejoin:miter;stroke-miterlimit:10;stroke-dasharray:none;stroke-opacity:1"
           id="path200" /></g><circle
         style="fill:#ff0000;fill-opacity:1;stroke:none;stroke-width:2.22891;stroke-miterlimit:4;stroke-dasharray:none;stroke-opacity:1;stop-color:#000000"
         id="path2517"
         transform="scale(1,-1)"
         cx="4501.9175"
         cy="-2275.9473"
         r="49.334541" /></g></g></svg>
